<svg xmlns="http://www.w3.org/2000/svg" width="960" height="960" viewBox="0 0 960 960"><radialGradient id="a" cx="480" cy="480" r="478.688" gradientUnits="userSpaceOnUse"><stop offset="0" stop-color="#fff"/><stop offset="1" stop-color="#FDFDFD" stop-opacity="0"/></radialGradient><path fill="url(#a)" d="M480 0v480L380.203 10.49 480 0zM197.863 91.672L480 480 284.767 41.498l-86.904 50.174zM64.308 240L480 480 123.29 158.817 64.308 240zM2.628 429.827L480 480 23.492 331.672 2.63 429.827zM23.493 628.33L480 480 2.63 530.174 23.49 628.33zm99.798 172.854L480 480 64.308 720l58.982 81.184zm161.477 117.32L480 480 197.862 868.328l86.905 50.175zM480 960V480l-99.8 469.512 99.8 10.49zm195.234-41.497L480 480l99.796 469.513 95.438-31.01zm161.476-117.32L480 480l282.136 388.33 74.574-67.146zm99.798-172.854L480 480l415.692 240.004 40.816-91.675zm20.863-198.503L480 480l477.372 50.178v-100.35zM895.693 240L480 480l456.51-148.325L895.692 240zM762.138 91.674L480 480l356.713-321.18-74.575-67.147zM579.798 10.49L480 480 675.237 41.5 579.8 10.49z"/></svg>