<svg xmlns="http://www.w3.org/2000/svg"><defs><font horiz-adv-x="500"><font-face ascent="750" descent="-250"/><glyph/><glyph unicode="&quot;" horiz-adv-x="474" d="M20 527q-5 23 9.5 44.5T91 615q23-13 40.5-24t30.5-24 21-30.5 12-43.5l-9-35-8-41q-16-15-24-36t-12.5-42-7.5-38-9.5-24-18 .5T74 313q19 32 15 61t-18 55.5T41 480t-21 47zm232.5 14.5q-2.5 28.5 14.5 52t67 38.5q19-23 41-38t39.5-31.5 27-38T445 468q-13-17-19.5-40T414 381.5L404 336l-14-38.5-24.5-24.5-41.5-4q11 35 2 71t-24.5 71.5l-31 68.5-18 61.5z"/><glyph unicode="#" horiz-adv-x="627" d="M15 271q16 19 32.5 27.5t34 14.5l37 12.5L161 348l-17 86q-13 7-28 1t-28-10.5-21.5-1T58 453v33q19 7 50 8.5t59 9 47 26.5 15 61q10 32 17 67t17.5 68.5 28 65T341 848l36-34q0-39-13.5-69.5t-30-60.5-30-63-13.5-75q8-25 34-33t53-8q39 26 55 57t20 64.5 3 68 3 68 20 64.5 55 57q32-16 41-35.5t5.5-41-14-46T549 711q-19-3-23-9.5t-1.5-15.5 7-20 1.5-24q-11-11-13.5-23t-2-24 3-23.5 1-21-8.5-17-24-11.5q13-6 30.5-9t33.5-7 27.5-11.5T592 471q6-31-2-43t-24-14-36 .5-37.5 1-29-11.5-9.5-38q6-22 18.5-32t26.5-14.5 28.5-6 26-5.5 17.5-14 4-31q-13-24-34-30t-44-4.5-45.5 5.5-39.5.5-25-20-2-55.5q-17-26-26.5-60T341 27.5 324-47t-24-69q-14-14-28-24.5t-33-2.5q-26 36-22.5 75.5t20 79T273 89t27 70q10 10 6.5 19.5t-7.5 19-3 19 21 19.5q-29-10-53.5-8.5t-44 0-34-12.5-24.5-47q-19-42-20.5-86T136-3.5 118-81t-60-62q-26 39-28.5 72.5t8 64.5T65 54t29.5 59.5 14.5 63T91 246zm207 95q16-7 35.5-17.5T295 334t30.5 3.5T341 374q0 19-9.5 25t-22.5 6.5-25.5 1.5-18.5 10q3-16-1-28.5t-11.5-20-16-8.5-14.5 6z"/><glyph unicode="$" horiz-adv-x="574" d="M12.5 243Q14 272 51 311q9 10 22.5 12t26-2.5 23-13.5 13.5-22q10 10 15.5 23.5t10.5 29 10.5 30.5 15.5 28q-23 19-46.5 30T97 450t-37.5 34T33 544q-16 32-9 62t27.5 56.5 48 49T153 751q16 7 18 27t.5 45-.5 50 17 42q6-13 22.5-18.5t32-9.5 24-10.5-.5-21.5l17-27 43 87 61-52q-29-10-30.5-24.5T364 807l19-36 4-38q38-20 72-46.5t66-65.5q-4-20-8-37.5T505 551t-21.5-28-36.5-23l-35 44q-3-14-11-23t-14-17-7.5-16.5T387 466q28-4 48.5-17.5t37-32T503 377t31-40q3-23 2.5-55t-8-64-23-61-42.5-45q-16 3-27.5 0t-21.5-8.5T395.5 91L378 77q-15-13-16.5-28t3.5-31.5T376.5-16t8-33-7.5-30-35-25q-15 28-32.5 32.5t-36-2-36-17-31.5-13-23.5 9T171-44q13 43-1 75.5t-39.5 59-55 49.5-47 48.5-16 54.5zM119 613l17-86-9 17 52 59h-43v10h-17zm121-225l43-77-25 8q0-10-1-19.5t1.5-18T268 265t23-15q-11 11-11.5 24.5T282 303l6 29 1 26-13 20-36 10zm0 139l18-9q26 0 35.5 7t9.5 19-6.5 27-12 30-8 29.5T283 656q-9-23-16.5-36.5t-9-23 4-19T283 552zm16-314.5q1-5.5 5.5-5.5t12.5 1 17-9q7 12 3.5 18t-10.5 9-15 6-11 9q-3-23-2-28.5zM266-9h17q0 6-1 16.5T274 26zm8 827l17-49v16zm104-448q13-19 16-40t2-42-2.5-41.5T395 207q15-7 21.5-3t9 12.5 3 18.5 3 17 9.5 8 22-10q0 20 2.5 37.5T482 319q-11 7-23 11t-21.5 9-14.5 12-2 19h-43z"/><glyph unicode="%" horiz-adv-x="684" d="M26 448q0 53 8 104.5T68 656l43 30 49 29 50 14 48-14 53 22 52.5 29.5 43 40.5 24.5 56 8-8q7 26 27 37.5t44.5 11.5 48-11 36.5-30q-7-43-23.5-82t-37-75l-42-71-39-70.5L427 492l-5-78q26-13 51.5-5t50.5 17 49 8.5 47-28.5q22-33 30-65.5t6.5-65-10-65T628 147q-15-23-35.5-45.5t-46-39-54.5-23-61 4.5q-22 2-34 13.5T377.5 85 364 119t-15 32.5-24 23-41 6.5L129-147q-29 13-35.5 31.5T90-76t9.5 42.5T103 7q19 14 28.5 29T146 68.5t8 36.5 10 42q6 16 16.5 33.5l23 37 25 40L250 301q6 13 19.5 29.5t22.5 34 8 36.5-23 38q3-32-15-51t-41.5-28-45.5-9.5-29 2.5q-23-3-43.5 4T66 377.5t-26.5 32T26 448zm86-9q32-6 50.5 0t29.5 19.5 17.5 32.5 14 38.5T243 566t34 28q-23-6-34 6t-19 25-19 18.5-34-13.5q-44-39-55-89t-4-102zm214-208l11 10v52zm0 262l11 7q0 3 1 7.5t.5 9-3 7.5-9.5 3q23 12 38.5 33.5T390 606t15.5 48.5T414 699q-23 9-36 2t-21.5-19-14.5-23.5-16-11.5q-24-91 0-154zm26-156q13-11 19.5-9.5t9.5 9.5 4.5 20 6 22 13.5 15.5 26 1.5l-17 18q-3-10-8-22t-12.5-21-18-12.5T352 362v-25zm87-156q14-13 22-22.5t22-2.5q16 13 34 31.5t29 40 12.5 45T543 319q-16-7-35-19.5T472.5 269 446 229t-7-48z"/><glyph unicode="&" horiz-adv-x="686" d="M24 264q6 29 17.5 52.5T69 360t37 38.5 47 38.5q-2 35-11 68t-14.5 64.5-3 63T147 696q22 32 52.5 39.5t62-.5 60-27 48.5-38q-13-17-17-30.5t-3.5-25 3.5-22 4.5-22-1-24.5-12.5-30l-23-33-22-42-10.5-48 11.5-51q20-20 43-27t43 19q-12 32-5.5 53t21 37 31 30.5T456 489q19 13 38 11.5t37-10.5 34-22 30-22l-18-70-87 53q-39-47-55-98t-22-109q9-16 22-31.5t29-28 35.5-20T541 135q28 4 38 13t11 19.5-3.5 22.5-5 22 7 17.5T620 239q19-13 28-31.5t9-38-9-38-28-31.5q-26-23-53.5-29t-55-2T457 85t-53 25q-15 17-28.5 20t-26-3-24.5-17.5-25.5-23-28-20T240 58q-55-11-91 5.5t-59.5 48-38 72.5zm78.5-32.5Q108 184 153 152q26-13 51.5-13.5t49 7.5 44 23 36.5 35L196 376l-59-52q-40-45-34.5-92.5zm86 379q-1.5-17.5 5-34t14.5-32 5-28.5q13-16 22-17.5t15 5.5 10.5 19.5 10 25 12 22.5 17.5 12q3 13-4 24t-19.5 19-29.5 13-34 5q-23-16-24.5-33.5z"/><glyph unicode="'" horiz-adv-x="261" d="M31 616q-7 31 0 63 17 39 49 50t65 3 60-32 33-56q-20-15-29-42.5t-14.5-59T185 480t-13-54-25.5-33.5-46.5.5q-18 40-30 83.5T58 567q-20 18-27 49z"/><glyph unicode="(" horiz-adv-x="249" d="M19.5 326Q9 435 29.5 541.5T112 738l43 103q9 4 14.5-1t10.5-13l10.5-16.5L205 799q-6-46-29.5-88.5T120 636q6-29 1-62.5T108 506l-16-67.5-8-62.5q17-46 33.5-99T153 170t40.5-105T241-28q-17-7-24-22t-13.5-27.5-16.5-16T155-81Q103 6 66.5 111.5T19.5 326z"/><glyph unicode=")" horiz-adv-x="254" d="M25.5 779.5Q22 805 37 830q30 6 43.5-5.5t21-31.5 13-43.5T134 709l15 26q0-29 6.5-61t18-60 27.5-49 35-27q-22-22-28.5-47.5t-5.5-54 6-58.5 7.5-59.5-1-57T194 210q-20-33-28-71.5L149.5 60 127-17 81-84 37-74Q64 6 87.5 90t35 172 5.5 180.5T90 632q-7 23-22 47.5T41 729t-15.5 50.5z"/><glyph unicode="," horiz-adv-x="309" d="M16.5-133Q21-112 38-97.5t39 28T112-34q-9 23-28 42T49.5 47t-20 44T44 148q22 26 48.5 34.5t54 4.5 52.5-19.5 44-38.5 28.5-51.5T277 19q6-32-8-58.5t-38-51-54-48.5-56-51H35q-23 36-18.5 57z"/><glyph unicode="-" horiz-adv-x="581" d="M28 298.5Q29 314 41 331q22 6 49 15.5t55.5 14.5 57.5 1.5 56-22.5q16 16 30.5 19.5T319 363t31.5 1 36.5 11q29-3 51-12.5t41.5-21.5 38.5-26.5 41-27.5q-21-41-55-60t-74.5-24-86-.5T253 214t-86 12-74 1q-20 7-35 18t-23 24.5-7 29z"/><glyph unicode="." horiz-adv-x="298" d="M27.5 126q9.5 17 29 31t42 26 34.5 26q27 3 51-4t42.5-22 31-35.5T273 105q0-33-23.5-61.5T194 2q-26-14-50.5-11.5T97 5.5t-39 34T32 86q-14 23-4.5 40z"/><glyph unicode="/" horiz-adv-x="467" d="M-50-41q10 55 29.5 95.5t40.5 79 40 80T88 314h27q57 136 111 286.5T339 900q11 4 28.5 13t37 17 38 11.5 32.5-2 20-22.5 0-52q-56-49-97.5-119t-78-146L247 450.5 166 322q-6-33-21.5-56l-31-45.5L87 172l-8-65Q63 88 55 64.5L39 17 19-28.5-16-66q-5 13-12.5 19T-50-41z"/><glyph unicode="0" horiz-adv-x="572" d="M25.5 223.5Q21 273 30 325q-3 45 8 93.5T72.5 511t59 81 80.5 59q29-6 58-8.5t56.5-6.5 53-12 48.5-24l57-102 44-98.5 15-95.5-31-92q10-20 4.5-43T500 122t-26-47.5T453 31q-29-32-65-49t-75-21-78 3.5T160-12q-39 26-67.5 62.5t-45.5 80-21.5 93zm98 30.5q2.5-43 28.5-85 26 2 42.5-6t28.5-21 20.5-29 18-29 22-21 31.5-6q35 42 61.5 89t39.5 98 10.5 105.5T402 462q-6 26-22 36t-34 15.5-34 13.5-22 31q-26-7-34-13.5t-13-13-14-12.5-35-12l-34-82-28.5-85-8-86z"/><glyph unicode="1" horiz-adv-x="573" d="M36 56q6 28 26.5 41.5t46 20.5 52 13 45.5 19.5 26 39.5-6 74q-10 19-14 41t-7 45-5.5 45-9.5 41q10 16 12.5 36.5t1 42T198 558l-8 42q-22-3-40.5-1.5t-36 6-36.5 12L36 633q16 30 43 38t58.5 7 64-4.5T261 676q22-58 22.5-112t-4-108-7-110T287 229q-7-23 2.5-41.5t28-29 42.5-11 47 12.5q10-22 21-23t23 3.5 25 6.5 26-13l43-61q-58-26-120.5-29T297 45.5 166 56 36 56z"/><glyph unicode="2" horiz-adv-x="552" d="M28.5 129.5q-.5 26.5 2 53T37 229q8 39 30.5 66t53 46.5 66 34.5l69.5 29 63 30 47 38 21.5 52.5L373 600q-29 33-56.5 39.5t-56 2.5-58.5-12-63-5q10-6 20.5-22t15.5-36.5 2.5-41.5-18.5-38q-8-13-18.5-18t-22-5-22 4.5T79 479q-23 13-27 31.5t.5 39.5T64 592.5t7 40.5q45 36 95.5 55T267 708t98-17.5 87-57.5q3-38 15-76t18-74.5-2.5-70.5-47.5-62q-7 0-18 10t-23.5 18-24.5 8-22-19l34-26h-68 9v-26h-9q-9 19-17 25.5t-16.5 5-17.5-8-20-13-23.5-10.5-27.5 1l18-34q-19 9-34 4.5t-27-17-22.5-28.5L106 211l25-36q-5 0-15 1t-10 9l-17-10 61.5-14.5L222 144l69.5-13.5L347 125q30 0 44.5 6.5T414 150t13 30 15 41q-10 3-8 7.5t8.5 10l14 12L467 264q27-10 38.5-29t15.5-43 4-52.5 3-57.5q-13-29-31-37.5t-38.5-11-40.5-6T381 5q-32 9-64.5 29.5T251 70t-67 17.5T115 64q-10-9-17-17T84 35t-14-3.5T54 39Q41 55 35 79t-6.5 50.5z"/><glyph unicode="3" horiz-adv-x="594" d="M27.5 546.5q-.5 32.5 9 62.5T72 662q55 0 116.5.5t122-4 117-15.5T529 608q-9-26-23-47t-31-40.5-36-38L401 445q8-19 24.5-32t34.5-23l34.5-19 26-20 9-25.5L512 290l43-78 9 9q19-6 18.5-18.5T575 177t-15-24.5-5-17.5q-3 3-4 13.5t-2.5 22.5-5.5 23.5-14 17.5h-8q-7-13-5.5-29t5.5-33 7.5-34 2-32T519 57.5 485 39q-15 11-22.5 10.5t-12-7.5-7.5-17-7.5-18.5-12-12.5T401-4q-42-19-83-23.5t-80 .5-76 16.5T90 14Q63 37 47.5 64t-19 54 7 53.5T72 221q16 16 25.5 14t17.5-10 17.5-16 25.5-5q-3-32 5-63t25.5-54.5 44.5-37T296 39q26 10 52.5 22T398 90t41.5 40.5T467 186q-9 16-14.5 45.5t-17.5 57-35.5 46.5-69.5 16q-19-7-35.5-11l-32-8-30.5-9.5-31-14.5q-11 23-4 45.5t23.5 44T257 440t36.5 42 23.5 42-4 43q-50 17-77.5 15t-43-15.5-24.5-35-21-43.5-32.5-41T55 420q-10 29-18.5 61.5t-9 65z"/><glyph unicode="4" horiz-adv-x="560" d="M23 212q39 55 75.5 113L171 440.5 245 554l80 108q13 3 23-1t17-11.5 12-16.5 8-15q0-84 5.5-173.5T428 263q13 13 25 7t23-18 22.5-23 24.5-8q3-13-.5-20.5t-11-12.5-16-9-14.5-10l-61-9q-13-32-9-49.5t17-27 31.5-14 35.5-11 28-18T532 5q-39 0-77-5t-76.5-9-79.5-4-86 9q-11 28-2.5 41.5t26 20.5 40 11 39 13 23.5 26.5-6 51.5q-28 9-56 11t-55.5 1.5T168 171t-51.5 1.5-49 11.5T23 212zm173 87q18-20 39-28t47-8q28 11 39.5 28t13 37.5T331 371l-10.5 44.5-8 43.5 3.5 38q-23-16-43-39.5t-36.5-50-27-54.5-13.5-54z"/><glyph unicode="5" horiz-adv-x="527" d="M30 66q-7 45 2.5 78.5T80 204q26-7 41-22t25.5-34.5 20-41T192 66v43q17 3 19.5-3.5t0-16l-5-19.5 4.5-13q22 3 51 9t57.5 16.5 53 26.5 37.5 41q9 36 8.5 75T406 298.5t-37 60-64 35.5q-26 13-50.5 7.5T207 383t-45-29-43-24-41.5-3T38 360q3 35 .5 72T35 506t4 73.5T63 651q46-3 96.5-.5T261 653t100-5 91-22q-19-30-52-39t-71-9.5-77 2.5-70-3.5-49.5-27.5-16.5-69q42-10 86.5-8.5t87 0 82-13T443 411q26-29 40-72t17-91-3-95.5T478 66q-29-26-61-49.5T350-22t-72.5-20-76.5 6q-29-4-53.5 5.5T102-5 63.5 30.5 30 66z"/><glyph unicode="6" horiz-adv-x="506" d="M33.5 182Q26 244 34 305.5t27 122T101 547q13 22 36 41.5t51.5 33 59 20 58 2 49-21T387 573l-35-96q-23 0-41 11.5t-32 28-24 34-16 30.5q-6-3-23.5-7T180 562t-32-21.5-14-36.5q7-10 7-21t-4.5-20-14-14.5T101 443q15-22 35-31t41.5-9.5 43 4l40 8.5 31.5 5.5 18-5.5-10-17q7-13 16-16t19.5-1 21.5 5.5 21 3.5q10-20 33.5-49.5t43.5-61 27-62.5-15-54q-6-52-33-98t-73-85q-33-10-72-12.5t-78.5 6T135 2 73 57q-32 63-39.5 125zm74.5-23q0-21 9-37.5t35-19.5q23-14 47.5-25t49-17 49-5T345 66q29 27 43 51t17.5 49.5.5 54.5-9 65q-26 6-45.5 17l-38 21.5-38 17.5-45.5 4q-20 0-40-11.5t-36-28-26.5-34.5-10.5-31q0-16-4.5-38.5T108 159z"/><glyph unicode="7" horiz-adv-x="513" d="M27 561.5q0 32.5 9 64.5 46 20 95.5 20.5t100.5-4 102.5-6T435 651q12-19 22.5-30.5t16-22.5 5-26-10.5-40q20-20 23-34t-3-26-19-22.5-25-22-21-26-7-33.5q-35-42-56-96t-40.5-109.5-44-108T209-36q-26 12-34.5 33.5t-8.5 47 4.5 53T175 150q19 49 50 98l60 97 50 95 21 92q-22 16-44.5 21t-44 6-40.5 1-35 7q-28-18-40.5-40t-17-45-7-45-10-39-26-27.5T36 360q4 35 1 69t-6.5 67-3.5 65.5z"/><glyph unicode="8" horiz-adv-x="592" d="M24 170.5Q28 204 37.5 237T53 299q21 17 27 36.5t3.5 40-10 42.5T61 463.5t-4.5 47T71 558q19 35 44 48t54 17.5 61 8 64 19.5q29-3 53-7.5t45.5-13 43.5-20 48-27.5q13-39 18-76.5t6.5-73.5 2.5-72 6-71 17-70 36-70q-6-35-15-62.5t-26.5-48T484 4t-69-24q-48-10-97.5-12.5t-96.5 5T131.5-2 53 48q-23 26-28 57.5t-1 65zm86 41q-6-24.5 4.5-50.5t32.5-51 45-44q38-3 75-8t72.5-4.5T409 64t66 36q13 22 13.5 42t-5.5 39-14 37-11 38q-72 32-155 32t-155-32q-32-20-38-44.5zM121 428q23-26 53-38.5t64-17 70-4.5h71q20 3 36 14.5t27.5 27 17.5 32 6 29.5q-9 33-28.5 52t-44 30.5T343 571t-49 12q-3-13-13-16t-23-2-26.5 3-23.5-1q-17-20-32.5-31T148 513t-19.5-30.5T121 428z"/><glyph unicode="9" d="M33.5 466.5Q36 510 53 549q32 32 70.5 61t84.5 41q65 10 111-14.5t77.5-67 50-95.5 27.5-98q-3-29-4-69.5t-6-82.5-16-80-33-60q-20-40-62-75t-95-55q-17 6-35.5 8.5l-36 5-33.5 7L125.5-11 108 17.5 104 66q3 16 5 31.5t7 28 14 21.5 26 13q19-9 40-28.5t43.5-34T286 80t50 20q23 13 25.5 28.5t2 32 3.5 32 30 28.5q-42 3-77.5-3.5t-69-10.5-69 1-77.5 31q-22 26-39 63t-25.5 79-6 85.5zM104 368q19-16 35-32t32-29 35-22.5 45-12.5q13 9 32.5 19.5t40 23T363 342t31 33.5 14 40-11 46.5h-25q3 19-9.5 39t-33 36-44.5 24.5-43 5.5q-32-7-62.5-20T129 514q-9-20-14.5-36.5T107 444t-2.5-35.5-.5-40.5z"/><glyph unicode=":" horiz-adv-x="264" d="M26.5 376q-1.5 25 9 46t30 40 42.5 39q28 12 49.5 5t38-23.5 28.5-36 22-32.5q-11-15-24-34.5t-28-38-32-33.5-35-20.5-38.5 1T47 319q-19 32-20.5 57zM28 33q7 23 13 48t16.5 46 28 35.5T133 180q19-3 34-14.5t25.5-28 17.5-35T220 68q6-23 .5-39.5T202.5 0 173-21t-33-16q-19-3-39.5-.5T63-27 35.5-4.5 28 33z"/><glyph unicode=";" horiz-adv-x="319" d="M35 421l25 42.5 27.5 34 35.5 24 49 12.5q13-19 36-33.5t43.5-30T283 436t1-48l-21.5-27.5-25-27.5-30-24-35.5-17q-23 10-45 21t-40 25.5-32 34T35 421zm5-318.5q6 22.5 22 39t38.5 26T146 180q19-13 41-23.5t41.5-22.5 34.5-28 21-38q0-32-4.5-72t-18-79-38.5-72.5-67-52.5L52-198q-3 35 6 65t15.5 59T76-14.5 44 52q-10 28-4 50.5z"/><glyph unicode="<" horiz-adv-x="1304" d="M27 493l4-8q0 5-4 8zm0 19l4 3q7 3 13 2t10 4q0 8 .5 17.5T62 551q5 4 13 5t15 4q9-2 11.5-8.5t4.5-13 5.5-9.5 13.5 3q-2 3-1.5 7t1.5 7.5 0 6-6 2.5q-2 1-4 1.5t-2 3.5q0 4 3 5 0-1 1-1h2v1q0 1 2 1h1v-1q2 0 3 1.5t4-1.5q0 9-2.5 18.5T129 601q1 5-1 9.5t2 7.5h3q0-13 8.5-22t10.5-23q0-3 2.5-1.5t6.5-.5q0 2 .5 3.5t2.5-1.5q2-2 10-2 0 2 2 4t4 2v-2q0-2 2-2v4q2 0 4-2 1-1 1-2 2 5 0 10l-57 84q-1 0 0 .5t3 .5q5 0 7.5-5.5t7.5-7.5q0-5 4-6.5t4-8.5v4q0-3 .5-4t.5-3q3-1 6-4.5t3-9.5q16-11 24-26.5t19-31.5q-2 0-3-1-2-2 0-4h3q8 0 16.5.5T245 564l5-4q-3 3 1 3.5t-1 1.5q3 3 4.5 2t1.5 2q0 2 0 1t-2-1h-2q-2 0-2 2l-7 9-7 8q7 2 13 3t9 5q0 3-4 3-7-2-11.5-1.5T233 596q-13 13-22 31-7-3-5.5-8t-5.5-4q-2-1-2.5-3t-.5-4h3q-2-2-2.5-1.5t-.5-1.5q-2 7-6 6t-4 4q0 11 8 16 4-3 4.5-1.5t2.5 2.5q0 4-2 6t-4.5 2.5-5 2-3.5 6.5l-5 10q-3 6-5 13t-11 5q-2-2-4-1t-5-1q-1 2-.5 2.5t.5 2.5q4 1 4 10h21q0-4 4-4.5t6-.5q4 4 2 8.5t-2 5.5q2 9 0 18t3 16q5-7 14.5-3.5T224 733h4q3-3 6-2t6 2.5 5.5 1.5 4.5-4l614 69q5 1 7.5-1.5t3.5-6 2-7.5 3-7q6-10 15.5-13t19.5 0q4 0 1.5 4t-2.5 6-2 2.5-2 2.5q4 3 10 3 3-6 3-16t9-10q0 6 4 9.5t9 8.5q14-11 29.5-19t29.5-23q-4-2-6.5-1t-2.5-1q1-4 3-3.5t5 1.5 6 1 5-6h1q1 1 1 2l27.5-16.5L1070 690v-18q7-4 11 .5t11 2.5q-3-2-7.5-4.5t-9.5-2.5q3-7 8.5-8t8.5-2q0 1 2 .5t0 .5q5 6 7.5 1.5t8.5-1.5q-6 3-4 9.5t-4 8.5q0-2-1-3t-4 1h-2q-1 0-1 2h3q0 3-4 5.5t-5 2.5q3 4 8.5 4.5t8.5.5q0 6-2.5 7t-5.5 2q3 2 6.5 1t8.5-1q19-11 22-31.5t3-40.5q4-3 2.5 3t2.5 7v-10q2 0 4 2t5 2q3 4-.5 2t-5.5-1q2 6 8.5 6t10.5 2q0 1 1 1 1-1 2-1-2-6-3.5-15t-8.5-7q0-2-2-1.5t-2-1.5l-4 3q0-2-1.5-1t-3.5 1q-4 0-3.5 2.5t-1.5 2.5q-2-1-2-3t2-2l-8-8q8 0 16 2t16 2q0-3 1.5-5t1.5-4q-6-3-13-4t-9-5q2 2 4 1t5-1q10-2 21.5-1t16.5-9q1-8 4-15.5t5-14.5 1-13.5-7-13.5q-4-4-10-4.5t-12-.5q2-9 5-18.5t3-17.5q-1-9-6.5-14t-7.5-11q-6-7 0-11-2-36-15.5-67t-19.5-65q-2-15-4.5-31t-2.5-32.5 3.5-32.5 13.5-29l65-129q21-57 67-103 10-13 5-29l-9-29q3-5 .5-7t-2.5-7q-11-7-24.5-11t-27.5-7-28-7-26-10q-26-8-53.5-15t-56.5-18q5-3 11.5-6.5t11.5-5.5q13 2 23 5.5t21 6.5q5 0 9.5 2.5t8.5 2.5q0 2 5 2 12 2 20 5.5t19 5.5q5 0 9 2 7-2 9.5 3t7.5 0h5q0-2-2-3.5t-3-1.5h1q-1 0-3-3t-4 0q-2-3-6.5-4.5L1181-170q-2 0-7-1t-7-1q0-5-4.5-5t-6.5-2q-7 0-13-3t-11-3q-14-3-28.5-8.5T1072-201q-20-8-39.5-14.5L991-229q-37-13-74.5-22.5T842-273q-57-20-116-35l-116-29q-2 0-6-2t-7-2q-12-4-23-7t-22-10h-11.5l-9.5-1q-6 1-8.5-1t-9.5 2q-3-4-6.5-2t-5.5 1q-5 1-8.5 1H485q-16 7-27.5 16.5T440-318q0 7-9 13 0 4-4 7.5t-4 6.5q-4 11-9 17t-11 14q-2 2-1 4t-1 2q-7 6-11.5 14T379-226q-3 6-6 9t-3 8h-4l4 2q-6 0-6.5 5t-5.5 7q0 2-2 4t0 4q-2 0-4 4t-4 6q-3 5-6 8.5t-3 9.5q0 2-1.5 5.5T334-148q-2 9-7 11.5t-6 9.5q-3 0-4 .5t-3-.5v1q-2 0-5 2t-1 6q-2 0-3.5-1t-1.5 1h3q-2 3-4 8t-4 5l-3 2-4 2-5 6q-2 2-6.5 4t-6.5 8q-4 0-4-2-1-1 0-1 0 4-2.5 4.5t-4.5.5q2 2-2 2.5t-6 1.5q-3 0-5.5 3.5T245-70h-4q-2 5-6 4t-4 6q-2 0-4.5 1.5T224-60v4q-1 0-.5-2t-.5-1q0 3-3 3h-3q-2 2-4 1.5t-4 3.5l-3-3q0 3-2 3h-4q0 3-2 3h-1q-2-2-3-1t-2 3-2 3-3-2q-4 5-5.5 3t-3.5 0q-3 0-3.5 2t-2.5 3q-2-1-2.5.5T166-37q-2 7-6 4t-8-1v2q-2 3-2 2t0 2q-2-3-4-.5t-2 .5v3q-4 0-7 3.5t-8 5.5v-3l-4 3h4-4q5 0 5 1-1 3-3 1.5t-2 2.5l-3-5v5h-3v5q-2 0-4 1.5T111-6q2 3-.5 4t.5 1q4-1 5 2t3 6q-1-1-1 0v1q0 2 1 3h4q5 0-1 2l-3-2q0 2-1.5 3t-1.5-1q5-2 6.5 2t6.5 1l1 4-1 2q0 2-.5 1.5T125 25l4 3v-3q0 3 4 3l-3 2q2 0 4-1t5 1v3q2-4 2.5-2t2.5 2v2q0 1-1 1.5t-2-1.5q-2 3-5 1t-1 3v3q-1 1 0 1h1q1 0 1.5-.5t1.5-.5q0 2 2.5 2t2.5-2v2h4v4h-7q1 0 1 1t-1 1v-2q0-2-.5-2t-.5 1q-1 1-1 3 0 5 4.5 2t4.5 0h-4q3 3 .5 4.5T144 61v-4q0 3 3 4t1 4v1q0 2-1.5 3t1.5 4l2-7q0 7 2 8h-2q0 3 0 1t2-1v4h4v11l-4-2v1q-1 1-2 1 0 2-2 1t-7 1q7 3 14 2t9 2q2-4 4-2 1 0 2 2h2l-2 2q2 4-2 4t-4 1l-3-1q0-3-.5-1.5T157 102h4l3 4v-4q2 0 1 2t1 2l4-4h-4 8q6 6 6 0 2 0 2 2v2h-1q-2 0-3 3v-3q0 2-3 2.5t-1 2.5h4v3q3-4 6.5-1t7.5 1l-3 3h1q2 0 2-3l3 3q-2 0-3 1t-3 1q5 3 8 2.5t5 6.5l-2 4q5 1 8.5-1t8.5 2q-2 2-5 3t-1 5q2-1 3-.5t3 .5q-2 5-1 10.5t3 11 2.5 11T219 185q0 9 9 18l-14 170q0 23-8 45-5 3-10 3.5t-9 1.5q0 3-3 3h-2q-8-2-17.5-2.5T148 426q-5 4-6.5 9.5t-1.5 11-1 10.5-4 8h-2q-3 5-4.5 11t-9.5 9q0-11 1-25t-9-20q-11 0-20-2.5T75 444q-5 10-7.5 19.5T62 481l-9 4q-3 0-2-2t-2-2q-2 3-1 4t1 3q3-2 4.5-1t3.5 1q-2 4-5 2.5t-3 2.5-1.5 5-1.5 6q2 0 6 .5t2 5.5q-1 2-6 0t-7 2q-1 2-5 1.5t-5 1.5q1-8 3-17.5t6-17.5q-4 6-6.5 15T27 512zm13-47l9 6v9q0-4-3-4-1-1-2 0v-2h-3q0-2-.5-4.5T40 465zm22 64h2l-2 3v-3zm10-70l3-2v2h-3zM97 6q1-2 4-.5t6 .5q0 1-4.5.5T97 6zm6 1l4 4V7l6 4q-2 2-4.5 1t-5.5-1V7zm10 0h3q-1-1-2 0-1 0-1 4h3q-2 0-2.5-2.5T113 7zm3 9q0 1 1 1 1-1 2-1l-3 4v-4zm3 4h6q-1 0-1 1l1 1zm3 5h3l-3 3v-3zm0 537q0-1 3 2 0 1-2.5.5t-.5-.5v-2zm3-572v-1h4-1q-1 0-1 .5t-2 .5zm0 21q1-1 2-1 2-2 2-3v4h-4zm0 496q4 0 5 3-1 1-3 1-1 0-2-1v-3zm0 48l5-4v4q5 0 9 1-10 0-14-1zm4-62h4q-4 5-4 0zm1-458q0 2 1 3 1 0 2 1 0 2-1.5 2.5T130 44v-2h3q-3-3-3-7zm3-19v4-4zm0 474h1q1-1 1-2l4-7q4 0 8-2t9 1v-4q11 0 20.5 2.5T197 480l3 1q0 12-3.5 18.5T187 512h-5l-2 3v-5l2 2v-2l5 2q0-2 1-4t-1-6q0 2-2.5 2.5T182 507q0-3 5-5h-5v2h-2v-6q-12-1-24-3.5t-23-4.5zm2-515q3 0 3.5-1.5T141-28q-2 3-6 3zm9 510q4-4 13-4 3 0 5 2.5t4 4.5q-4 4-10.5 2.5T144 485zm0 34q0-3 2.5-2t5.5-2q3 3 4.5 5t4.5 4q-4 2-9 2-2-2-7-1t-1-6zm4-458h2q1 2 1 4 0 1-1 1 0-1-1-1.5t-1-3.5zm2 504q2-4 8.5-4t11.5 3q-5 1-7.5.5t-6.5-.5q-3 0-3.5 2t-.5-2zm2 102q-2 0 1-2.5t3-5.5q4 0 4.5 1t.5 3 1 3.5 4 1.5q-2 3-6 1.5t-8-2.5zm14-4q1-1 2 0 2 0 2 4h-4v-4zm4-552h2-2zm0 421l2-3zm0 2q6-6 12-8t10-7q0-3 2.5-6.5t2.5-5.5q-4 2-7.5 7t-7.5 5q14-10 18-21 0 3-2 5t2 4q3-2 4-5l2-6 3-6 8-5q35 6 72 10.5t73 11.5l8-3q-5 5-7.5 11.5T353 524q-17 0-31.5-3t-30.5-6q-8-4-14-2t-10 6.5-7 10.5-6 11q-3 1-3.5 3t-1 4.5-2 4.5-6.5 2q-8-3-16-4t-16-4q0-3 3-3.5t5-.5q2-2-2-2.5t-4-2.5q6 0 12.5.5T236 541v-3q-4-3-9-5l-10-4 11-19q-9-10-19-6-3 3-3 6-5 4-5.5 9.5T195 529q-6 4-11.5 9t-13.5 3q4 0 4-7h-4zm2-439q0-2 1-2 0-1 .5-.5t.5 2.5v1q-1 0-2-1zm0 456v4-4zm6-456l4-4-2 4h-2zm2 412h2-2zm0 34h7q-7 3-7 0zm2 19q7 0 7 4-2 0-4-2-2-1-3-2zm0 76l5-4v4h-5zm7-95q5 0 4.5-3.5t3.5-5.5v2q0 4 5 4-3 6-13 3zm0 103h3-3zm0 15q5-1 7-4l4-6q0-2-2.5-1t-.5-1q0-3 1-3h2q4 2 1.5 5.5t4.5 3.5q0-5-1-8t6-8q0-1 .5-3t2.5-2q2 4-.5 7t-4.5 8q0 2 1 4t-1 4q-2 3-6 7t-8 1l2-4q-2-1-4 1t-4-1zm6-215q2-3 5-3.5t6-.5q6 6 7 17.5t1 22.5l-3-26q0-7-5.5-8.5T195 444zm2-320q0 3 1.5 2t1.5 2zm2 591.5q1-5.5 3-8.5 13 0 25.5 2t26.5 4l3 3-1 6-2 4q-6 5-7.5 2.5T241 731q0-4-1.5-2.5T236 726q-2 4-4 1t-4-1h-4q-5 0-10.5-1t-13.5-1q-2-3-1-8.5zm1-114.5q0-5 9-5 4 2-.5 4t2.5 5q-9 0-11-4zm0 17q1 2 1 3l-1 1v-4zm1 77.5q-1-2.5 1-5.5l4 4q2-13 5.5-26.5T217 640q2-6 3-11.5t8-6.5q6-5 6 .5t5 8.5l19-4q0-3 .5-6.5t3.5-5.5q8-4 19-1t22 1q21 2 43.5 5.5L389 627l196 26 16 2 198 30q30 4 60.5 9t60.5 8l2 2q8-4 15.5-1t15.5 1q4 2 6 4t4-1q8 3 14.5 4t11.5 5q-11-2-22.5-1.5T945 713q-7 0-12.5-2t-10.5 5q2-2 1-5.5t-3-3.5q-4 3-7 .5t-4-.5q-66-7-129-15.5L652 675l-117-17-139-21q-30-4-59.5-6t-58.5-9l-2 5-18 75q-2 4-7.5 2t-9.5-2q-6 0-15-.5t-17-2.5h-2q-1 0-1 3h-2q-2 0-2-3 0-1-1-3.5zm1-215.5v10-10zm12 119h3v2zm19 105h3-3zm12-297h1q-1 2-.5 4t-.5 4v-8zm13 8q28 2 55.5 8.5T370 432h5l39 5q3-4 3.5-8t2.5-6q0 2-.5 7t-5.5 7h4q4 5 4.5 1t2.5-6q0-2-2-2.5t0-3.5q0-3 5-3 4 3 3.5 4.5t-2.5 3l-4 3-2 3.5q6 6 7 1.5t3-4.5q0 2-1 4t1 2q5 3 6-1.5t3-4.5q0 6-2 6 5 6 6.5 1.5t3.5-4.5q0 2-1 3t-1 4q6 3 6.5-3.5t5.5-8.5q0 4-2 6.5t-2 5.5q5 3 6.5-.5t5.5-3.5l-4 5q5 5 5.5 1.5t2.5-6.5v5q5 5 6.5 2t3.5-3v1q0 1-1 1t-2 2q5 2 6.5 0t2.5-5 2-5.5 5-.5q5-2 4.5-7t-.5-7q2-8 8.5-7t9.5-1l84 17 268 48-80-15-272-47v4q0 4 5 4l152 26 348 60q0 2-1 3t1 4q-2 2-4 1.5t-2 3.5h4v2q-4 0-4 1-1 1 0 2-2 2-3 4t1 5q2 2 2.5-2t3.5-4v6q2 4 4-1t3-5q0 1-.5 2t-.5 2v2q3 4 4 0t4-6v6q1 3 2 2.5t1.5-2.5 1.5-4 3-2l-4 9q5 2 6.5-1t3.5-6q0 7-3 7 3 5 4 1t4-4q2 2-.5 2.5t.5 2.5q4 3 3.5 0t1.5-5q2 2 1 2.5t-1 2.5q5 4 6 1t3-3q0 2-2.5 2.5t2.5 3.5q2 0 2.5-2t2.5-4q-4-5 1.5-8t5.5-9q-5-2-8.5-.5t-5.5-2.5q-7 0-12.5-1t-10.5-1q-3 0-4.5 2.5t-1.5 4.5q-5 5-7.5 1t-6.5-6q6 0 5-3.5t0-7.5q4-8 15-3l3 8q19 3 36 6t35 5q-2 6-5 12.5t-9 12.5h-5l-166-25h-11q-8-4-16-4.5t-16-.5q-31-7-62.5-10t-62.5-9v-5h-5l-3 1-192-31-282-45q-6-3-12-2.5t-11-4.5zm4 178h5v3q0 2-2.5.5T262 593zm5-156h11q6 6 15 5t15 3l58 7 383 63v4h-5l-413-71-33.5-4-30.5-7zm2-131q3-4 6-5t3-5q3 0 3 2-6 2-5.5 8.5T269 315v-9zm0 287q0-5 3.5-8t5.5-8l6 2q4 0 10 1t12 6q-2 2-1 2.5t1 4.5l-3 6q-9-2-17-3t-17-3zm4 29q0-3 1.5-4.5t1.5.5v4q0 1-1.5 1t-1.5-1zm3-12q0-2 3-1t5-1q-2 2-4 3.5t-4-1.5zm2-41q0-5 3-5 0 1-.5 3t-2.5 2zm6-286q0 4 2 4h-2q0-10 5-25 0-3-1-4t1-1v-4q0-5 2-9v4q-2 2 1.5 4t-1.5 5q3-3 4-3.5t3-2.5q0-1 1-1 3 0 4 1l3-3q2-3 5.5-1.5t5.5 1.5q0 4 2.5 7.5t1.5 6.5q-5 0-9.5-1t-8.5 4q-6 1-10 8t-9 10zm0 260q0-7 2-12.5t9-9.5v-2h3q0 4 5 7 2-4 7.5-4t10.5 2h-4q0 2 2 2h2q-3 6-1 14t-8 8q-7-1-15-1.5t-13-3.5zm5 22l19 4q5 2 7.5 1t5.5-1q0 4-4 8l-3-6q-6 5-12 2.5t-13-4.5v-4zm6 49q0-4 5-4v4h-5zm3-143h2-2zm5-90q2-2 2.5-1t2.5 1h-5zm9-35q4-3 4-7t5-2q0 4-3.5 7t-3.5 6zm0 9v4-4zm5 26q4 3 11.5 3.5t14.5.5v5l-13.5-4-12.5-5zm2.5 268.5q1.5-3.5 1.5-5.5 3 0 5.5-2t4.5-2q4 3 3.5 5t-.5 4q-6 11-13 6-3-2-1.5-5.5zM325 555l4-4q0-2 2.5-3t2.5 0h2q2 0 3 3t5 0l-1 5h-9l-9-1zm4-140l15-6q-1 7-6 5.5t-9 .5zm5-14h5q3 0 4 1t1 2q-1 2-6.5 2.5T334 401zm0 111q0-2 5-2 3 2 7.5 2.5t4.5 2.5q-10 6-17 0 1 0 3-2 1-1 2-1l-5 3v-3zm2-94h3-3zm8-53q6-9 14-2v5q-2 1-3.5 3t-3.5 2q-2-3-4.5-4.5T344 365zm0 22l148 25h3l-5 3q-36-8-73-13.5T344 387zm7 94h2-2zm2 250h3-3zm3-250q8-4 16.5-1.5T389 485q-8 0-16.5-2.5T356 481zm6 75h4q0-1 4-.5t4-.5h5q7 0 13 5 0 4 4.5 4h6.5v-4l3 4q2 1 4-1t4 1q0 1 2 1.5t4 3.5q-2 2-1 2t-1-2q-3 0-1.5-.5t1.5-3.5q-6 6-12 4h3l-3-4q-2 5-4 2.5t-5-2.5q-1 3-3.5 1t-4.5-1q-2-4-5.5-.5t-8.5-.5v1h-1q0-4-5-2t-7 1l2-4h-2v-4zm4-193q3-6 6.5-4t8.5-4q-2-4-5-1t-6 1v-5q15 7 31 7 2 2 5 1t3 1q-5 0-5.5 1t1 2.5 2.5 3-1 2.5q0 1-1.5 3t-3.5 2l-31-5zm4-513q0-5 2-9t3-8q1 0 3-2 0-1 1-1 8-13 10.5-28t11.5-28q2-15 14.5-26t22.5-21l-5-3q4-5 3-10.5t4-8.5q6-5 14-8t14-7q3-9 9.5-20.5T499-344v-2q8-6 17.5-3.5T535-341q29 10 57.5 15t55.5 13q11 5 22.5 7.5T691-295q0 3-.5 7.5T685-279q-17-3-33-8.5t-33-7.5q-14-6-30.5-11t-33-6.5-32 2.5-28.5 17q-23 35-39.5 72.5T418-148q-13-2-25-3.5t-23 1.5zm4 580q4-6 5-14t5-12l56 8.5 55 10.5v3q-4 0-6.5-1.5T482 423q-9 2-14.5-1t-11.5 0q-11-3-21-6.5t-21-3.5q0 5 2 6t4 4l-2 1q0 5-5 4.5t-7 4.5l3-6q-2 0-3-1.5t-3-1.5q0-1 .5-3.5t2.5-4.5q5 0 5 7 2 0 1-2.5t-1-4.5q-2 0-1-1.5t-1-1.5l-25-5v11q0 4-3 6.5t-7 5.5zm7-71q2-2 7-.5t9 4.5q-4 0-7.5-2t-8.5-2zm3 71q2-3 4.5-1.5t7.5 1.5q-3 2-6.5 1t-5.5-1zm12-8q0-7 5-7 2 2-1 3t-4 4zm1 63h6-6zm4-422q3-3 5-7-2 4 .5 6.5T409 66q0 5-4 5.5t-4-2.5q-3-3 0-6zm2 425l20 2h-5zm6-107q2-3 3-8.5t6-7.5q0-5-3-6.5t-1-3.5q3 0 7 .5t4 3.5q11 3 21.5 5l21.5 4q3 1 2.5 5.5t-.5 7.5l-2 4q-11 0-21.5-2t-23.5-4l-3 2q-2 5-5.5 2.5T409 381zm4.5-130.5q-1.5-3.5.5-6.5h7l2 7q0 2-1.5 2.5T418 257q-3-3-4.5-6.5zm.5 81.5h4l15 18q-2 0-2.5-1.5T428 347q-4-1-10-4t-4-11zm9 238q0-1 2-1l1 2h-1q-2 0-2-1zm2-80q5 0 7 .5t6 2.5q-4 0-6-1.5t-7-1.5zm8-217q4-6 2.5-11t2.5-9q26 4 55 9t55 11q5 2 4.5 5t-.5 5l-6 7q-15 2-28-1t-26-8q-4-2-9.5-.5T472 279q-9 0-18.5-2t-20.5-4zm5-65l2-1q2 0 4-1.5t2 1.5q-3 0-.5 1t2.5 4q-2 0-5-2t-5-2zm2 285l123 19h-5zm2-553q6-24 14.5-47l15.5-43h4q-6 22-14.5 44.5T442-60zm0 280q5-2 7 0t5 0v2q-2 0-3 1-4 2-5 2 0-2-2-2.5t-2-2.5zm6-106q2 2 5.5 1.5t6.5 1.5q0 2-3.5 3.5T450 119q-2 0-2-5zm4 102q0-1 2-2v-3.5l2 1.5 1 1q0 1 .5 1.5T456 217h-3q-1 0-1-1zm8-115h3q0 4 1 5t4 3q8 2 17 3.5t16-6.5q2-3 1-3.5l-3-1.5q-3 0-4-2.5t-3 2.5h3v1h-5q0-2-5-7h-6l-7 2q-1-4-5-2-2 1-3 2 5-2 7.5-4t7.5-2q2-2 7.5.5T492 89l7 6q2 2 1-1t1-3v4q-2 2 .5 5t2.5 6l-3 3q-8 6-19.5 6t-18.5-6q-2-2-2.5-4.5t-.5-3.5zm0 472h3-3zm0 112q3-4 8-4 0 2-2 6-1 2-2 3-1 0-1.5-.5T460 685zm3-590l1-6q4-2 4 2l-2 2q-1 0-1 .5t-1 .5-1 1zm1 478l4-2h2l-2 6v-4h-4zm0 102v5-5zm2.5-8q-1.5-1 1.5-4 2-3 5.5-3.5t8.5-.5q-3 4-10 4-3 3-1.5 4t-.5 1-3.5-1zm1.5-565q3-5 7.5.5t9.5 3.5q-2 2-4.5-.5t-4.5.5q0-3-3-2t-3-2h-2zm0 299q6 0 10.5.5t8.5 2.5v3q-4-2-8.5-2.5T468 404v-3zm2-10q0-3 2.5-5t-.5-5q3-6 3.5-13.5t.5-17.5q2 4 4.5 2.5t4.5 2.5q-2 6 .5 11t6.5 11q2 3 8 2.5t4 5.5q-4 8-14.5 9t-19.5-3zm6-496q2-17 9-34.5t14-37.5q5-8 9-19t10-21 15-16.5 24-4.5l40.5 10 40.5 10q13 5 24 10t23 5q6-3 9.5-9t10.5-6q0 2-2 4.5t-4 4.5 1.5 4 .5 4q8 8 22 8 5-2 6-5t3-5q3-3 4.5-1.5t1.5 3.5q0 11-6 20l-39-12q-28-12-56.5-22.5T576-232q-7 6-12 15t-1 19q0 7 6 6.5t10 2.5q7 0 12 3.5t9.5 7.5 10 7.5T623-167q-10 17-23 33t-19 33l-2-26q-2 1-5.5 4t-6.5 5q-11 0-15.5 9.5T544-91q-5-1-13-1-1 1-5-.5t-9 .5q-3-3-4 0v-3q1-6 3-13t7-13q-1-4-3-7.5t2-5.5v7q7 7 20.5 10t24.5-1q3-4 7-7t2-9q-4-8-13-11t-17-5q-8 0-13 2.5t-10 3.5q9-5 19-5.5t21-.5q3 2 8.5 5t7.5 9q2 0 0-2.5t0-5.5q-2-3-7.5-7t-8.5-6q-7 0-6.5-4.5T554-167q-2-8 .5-14.5T552-193l-12 18.5-10 17.5q-3 5-9 8t-4 9q-3 11-7 20.5L501-99q-7-3-13.5-3.5T476-105zm0-113q0-8 5.5-16.5T485-252q5 7 .5 16.5T476-218zm2 795.5q1-1.5 1-4.5l3 6v-2 2q-5 0-4-1.5zm4 85.5q0-4 1-4 1-1 2 0 2 3 3.5 4t1.5 4q-2 4-4 1.5t-4-5.5zm0 27h3l-3 4v-4zm3-603h5q-2 1-3 1-2 0-2-1zm0 104l2-1h-1v-1q0-2 1-2h3q0 1-1 2-2 2-4 2zm0 12h2v-4l-2 4 2-4v5h-1q-1 0-1-1zm0 374q1-2 2-3t1-1.5-1 .5l3 4q0 2-5 2v-2zm0 45l2 1h-2v-1zm0 59q0-3 .5-6t4.5-3v3q-2 2-1.5 4t-3.5 2zm2-474q2-6 4.5-3.5t7.5-.5v9q0-4-4-4l-5 6v-2zm0-459q1-2 2-3 2-2-2-2h3v-3q0 6-3 8zm0 607q2 0 5.5 1t6.5 1l-4 16q3 0 5 2.5t4-2.5q0-6 4-11t1-12q3 0 3.5-1.5t1.5-1.5q0 6-2.5 8t-2.5 4q3 3 4.5 2t3.5 2q0 2-4 2.5t-4 2.5v-2q0-1-2-1v4q0 6-3 7t-5 1q-12-11-12-22zm0 93q2 0 2.5-2t2.5-2v1l3 3q0 3-3 1.5t-5-1.5zm4.5 129q1.5-1 3.5-4 3 0 2 2t2 4q-3 0-4 2t-3 2q-2-5-.5-6zm.5 46l54 9q-15-1-28-3.5t-26-5.5zm0 57h3q-2-6 2-9.5t2-7.5h2v5q2 5-2 9.5t5 7.5q2 0 4-.5t5-3.5v4q-11 9-21-4v-1zm3-232l6-4q5 0 2.5 2.5T501 452zm4-258q2 0 4 .5t4-.5q-2 0-2.5.5t-2.5.5h-3v-1zm0 22l5-4q0-1-1.5-.5t-1.5-.5q0 1 1.5-1t1.5 1q0 4 2.5 2t.5-1q-1-1-2 0-1 0-1 4h3q-2 2-3 1t-3 1v-2h-2zm2-72h3-3zm0 443q0-3 .5-6.5t2.5-3.5v4q0 2-3 6zm3-131q2-3 1.5-5.5t3.5-2.5q0-1 1-2 0-1 .5-2.5T509 437l4-3v3q3 2 1.5-.5T513 432q3-2 7.5-1t9.5 1v2q1 3 5 3v-3h-4v-2q4 2 9.5 2H552v3q2-2 5-1t9 1q8 2 15 3t16 5q-6 2-2.5 3t3.5 4l-1-4v4q0 2 0 1t1-1v2q0-2 2 0t4 0v-9q8 2 18.5 3t18.5 4q5 2 9.5 1t5.5 1q5 0 10.5 1.5t7.5 1.5q0 2 1 4t-1 4h5q0-2-1-4t1-4q3 2 9 2 4-2 5 2t3 4h-8q0 2 5 2 2-2 3 3t5 1v3q3-2 5-1t4 1q4-2 4-4.5V465q3-2 4 0t4 0l1 9-5 2-2 2q-2 2-1 3l-1 4q-5 0-2-2t2-3h-4q-3 0-3-4-8 0-8 9-3 0-3-2v-2q1 0 1-1 0-2-1-4-2 0-2.5 2.5T691 481h-3q2-1 2.5-4.5t2.5-5.5q-4 0-5 4.5t-3 5.5q-3 0-6-1 2 0 2.5-2t.5-4q-3 0-4 3-1 1-1 3-6 1-3.5-1.5t.5-4.5q-2 0-5 6h-5l5-9q-3 0-5 2-1 1-1 3-2 0-3 1.5t-4-1.5q0-4 4-5t3-6q-2-1-4-1-3 0-3 1v-6h-1q-2 5-3.5 11t-9.5 4q0-5 5-6.5t5-4.5h-5q-5 0-5 4-1 0-1.5 3.5T638 474q-5 0-1.5-2t1.5-5q-5 0-5 3.5t-3 3.5h-2q-2 0-2-3 3 0 3.5-2t.5-4h-4v2q0 4-5 4 0-3 1-3.5t-1-2.5h-2q0 2-1 5t-6 1q0-5 1.5-7t1.5-5q-2 0-3 2t-1.5 4.5-2 3.5-4.5-2q3-2 3-4-5 0-4.5 1t-1.5 3h-4q1-2 2-3.5t-1-4.5q-1 0-1.5 3t-3.5 5h-2q-2 0-2-2t3.5-4.5.5-6.5l-4-2 8-4q-4 0-6 2-2 1-2 2v-7q-1 0-1 1-2 2-3 2-8 3-5 7.5t-1 9.5q-5 0-5-2 2-3 3.5-6.5t1.5-8.5q-4 5-5.5 11t-6.5 4v-6q3 0 6-.5t1-4.5v-2q0-2-3-2v4q-4 2-5 4t-3 7q-7 2-4-2.5t-1-6.5q-1 0-1.5 2.5T554 459q-1 0-1 1-1 0-1-1 0-2 1-3.5t-1-3.5q-3 0-2 2.5t-2 4.5q-4 0-4-2 0-1 1-2 0-1 .5-1.5t.5-1.5q-5 0-6 1.5t-1 3.5q-2 0-2.5 1t-1.5-1q1-2 2.5-6t1.5-6q-3 0-4 5t-4 7q-6 0-3-3t2-6q-5 0-3.5 4t-4.5 2q0-2 .5-4t-.5-2q-4 0-3 3t-5 3q-5 0-1.5-3.5t1.5-5.5h-1q-4 2-4 5-1 1 0 2-2 0-2.5 1t-2.5-1zm2 129q1-2 3-4h-2 2q3 0 2 1t2 1h-4q3 3 1.5 3.5t-3.5.5-1-2zm1-202q2 2 4 2h3q6-2 3.5-5t4.5-3q0-6 4-10t5-6h4q0 2-.5 5.5T530 368l1 1q0-4 4-4 8 0 8.5 4.5t2.5 9.5q13 6 28 6.5t27 5.5l171 32 63 11 177 31q-3 5 .5 4.5t1.5 4.5q0 5-1.5 5.5t-4.5.5q-77-16-154-28t-158-26l-157-27q-3 6-9 3t-13-3q4-2 2-5t-2-4q-2 0-2.5.5t-1.5.5q-5-1-5.5-4t-.5-8zm0 298q2-2 3-9t7-1q-2 4-3 8.5t-5 4.5zm7-679q6-11 15-12t19-1q5 3 9.5 6.5T558-1q-3 11-14.5 12T523 7q-9 0-9-9zm0 579l8 2q0-1 1-1t3 1q7-2 15 .5t16-.5q1 5 4 3t6 1l4 3v-3l2 2q2 2 3 1 2 2 4 1t5 1l4-2q4 2 15 2 2 0 5 1.5t1 3.5q0 6 1.5 1t3.5-3q3 4 4.5 2t3.5 0q0 2-1 1.5t-1 1.5v3q-2-5-3-6.5t-6 .5h3v6q-3 0-5-3-2 2-4.5 2.5T601 601h3q-2-2-4-1t-3 1q1-6-2-3t-6 1q3 0 1.5-.5T589 596q-3 2-5.5 0t-4.5 0h-3v-3q-7 2-5.5-1t-3.5-1q-1 0-2 1.5t1 3.5l-3-5q-4 4-6.5 1t-4.5 1q0-2-2-1t-4-1q-5 2-8.5-1.5T530 586q-1-1-1-2-1-1-3-1 0 2-1.5 1.5T523 586q-1 2-4 0t-5 0q-2-5 0-9zm2-168h1l22 3 152 25h-3l-152-25q-4 5-9 2.5t-10-2.5l-1-2v-1zm1-415q4-4 9-5t9-4l-5 5q0 3-1.5 6t1.5 3q4 3 7 1.5t7-1.5q3-1 2.5-5t1.5-5q5 1 7 5t2 5q-2 5-6 8t-7 0q-7-1-15-2.5T517-6zm0 687q-2-5 3-6.5t10-6.5q7-1 14 4 2 4-1.5 7.5T539 690q-3 0-2 4.5t-2 4.5q-4 0-2.5-3t-1.5-6h-1q-3 0-6-.5t-7-4.5v-4zm5-615q6-8 15-8.5t15-1.5q2 1 8 6t3 11q-5 8-15.5 8.5T530 80q-3-2-7.5-5.5T522 66zm0 614q1-2 2.5-2.5t1.5-2.5h4q1-2 3.5-2t2.5 4q-1 2-1.5 3.5T531 685q-4 4-5 0t-4-5zm3-614q0-1 1-1 7-3 11-4.5t9 4.5q-2 1-6-3t-4 3q3 1 8 1 2 0 5-1t3-4q4 0 7.5 3.5T563 73q-8 5-19 4t-18-8q-1-1-1-3zm1 148l4 3q0-1-2-1-1 0-2 1v-3zm4-2h1l4 2q-5 0-5-2zm1-218q1 0 3-2 0-1 1-2 1 3 3 2t6 2q0 3-3 4t-6 1q-1 0-2-1-2-2-2-4zm0-126l4-4h6l3 2h4q-2-5-3.5-3.5T539-136q0-3 2.5-5.5t2.5-3.5q2 1 5 .5t5 .5q-2 4-2 5v3l6-8v6.5l-1 3.5v-2q-2 2-4 1t-5 1q2 0 3 1l1 1q2 5 .5 5.5t-4.5.5q-2-1-5.5-1t-3.5-5q0 4-2.5 2t-5.5-2zm0 331l4-1zm0 387l4-3v3h-4zm4-513q0-4 1-4 0 4-1 4zm3.5-2q1.5-2 5.5-2v4h-5q-2 0-.5-2zm.5 127l5 1h2-7v-1zm7 483q5-1 6-5t6-4q4 2 6.5 1.5t2.5 3.5q-1 0-4-2-4 2-6.5 2.5T552 681q2 3 4.5 2t6.5 2q-4 4-6.5 1t-4.5 4q2 3 4 2t4-3 3.5-4 3.5 0v5q-3 3-6.5 5t-8.5-1l-4.5-4.5-1.5-8.5zm2-49h4-4zm4-433h5l-5 4v-4zm0 433h6-6zm2-686q-3-7 4-15 7-3 18-4.5t17 4.5q6 7 4 15-8 6-12 6-7 2-17.5 1.5T554-54zm0-72q2-1 2.5-3.5t1.5-2.5v6q-1 1-2 1t-2-1zm3 66q1-7 5-8t5-2q3 5 2 8.5t2 5.5l8-4 10-9q0 4 4.5 7t3.5 6q-6 6-15.5 6.5T566-51q-12-5-9-9zm0-23q0-7 3.5-12t6.5-8v11l-1 11q-2-2-5-2h-4zm0 527l1 1zm4.5-122.5Q559 320 563 318q2 2 5 2.5t3 2.5q-4 2-5 2-2-2-4.5-3.5zM563-248q31 4 62.5 11.5T688-220q2 3 1 3t-3-1-4.5-1.5-4.5 1.5q-23-8-46.5-13T581-243q-4-2-9.5-2.5T563-248zm0 880q0 3 1.5 2t1.5 2q-1-1-2-1-1-1-1-3zm3-120l30 4.5 30 2.5q5 0 1.5-2t-1.5-2q3 0 7 .5t1 5.5q13 5 26 5-23-4-48.5-6.5T566 512zm1-202q0-4 7-4h-3l3 4q0 2-3.5 2t-3.5-2zm6 135.5q-1-1.5 1-1.5 0 1 2 1-2 2-3 .5zM574-59v-5q0 3 1 2t1 2h-1q-1 0-1 1zm0-7.5q-2 1.5 0-2.5 4-2 11 0-3 4-5 4.5t-4 .5q0-4-2-2.5zm0 595.5q4-2 6.5-3.5t8.5.5v6q0 2 2.5 4t5.5 2q1-3 2.5-5t1.5-4q0-1 4-1 1 0 2 1 9 4 5.5 12.5T607 556q-9 13-10 23-4 0-6 2-2 1-2 2-3-14-9-27t-6-27zm0 161q2-1 2-5-4-3 0-4.5t0-3.5q3-2 9-2-3 4-3.5 7.5T579 690q0 6 3.5 3t6.5-3v8q-8 2-15-4-2-3 0-4zm2-679q4-10 13.5-11T607-1q4 3 9 6t3 8q0-5-3.5-6T610 6q-7-2-7 3t-5 7q0-2 1.5-4t1.5-5q-2 3-3.5 4.5T593 13V7q-3 0-4 3t-4 1q3-3 4-4.5t4-3.5v-4q-6 3-10.5 5.5T576 11q13 16 36 11-6 5-13.5 5T585 25q-9-5-9-14zm0 625h3-3zm3-847q9 0 19 4-7 0-10.5-1t-8.5-3zm0 507v2q0-4 1.5-1t4.5 1q-3 0-3.5 2.5t-2.5.5q-2 0 0-1.5t0-3.5zm2-213q0-9 8-9 6-4 13.5-3t7.5-6h2v1q2 5 7.5 7t3.5 7l-8-6q-4-1-7 3.5t-10 .5v-4q1-1 4 2l2 2q3 0 3-4h-3l3-1h-10l-8 1q-5 4-3 9 1 2 3 4 7 3 16 3.5t16-1.5q-13 8-32 2l-4-2q-4-2-4-6zm0 365h4-4zm0 17l4-6h4q0 10-8 6zm6.5-176.5Q586 286 589 283h4q0 5 3 5t5 2q-2 0-5.5 2.5t-6.5.5q0-2-1.5-4.5zm0 268.5q-1.5-4 1.5-10 3 1 6.5.5t5.5.5q0 6-2.5 11t-9.5 6q0-4-1.5-8zM589-81q0-4 2-7.5t2-6.5q3-6 7.5-11.5T610-121q7-4 15-4.5t16-.5q1 2 4.5 4.5t6.5 7.5v-9q-14-7-16-18t-2-25q11 5 22.5 8t22.5 8l-18.5 26.5L642-95l-1-6q-7 2-13.5 3.5T615-99q-2 5-5.5 9.5T604-81l-3-2v2h-12zm4 779q4-6 5-12.5t9-8.5v4q2 7 3 3t5-4h2q2 0 2 1v21h-4q0-2 1-3.5t-4-4.5q-4 0-2.5 2.5T607 699q-1 1-2 1t-1-1l-1-1h1q-1-5-2-5.5t-2.5 1-3 3.5-3.5 2v-1zm4-693.5q0-1.5 1-1.5h3l-3 4q-1-1-1-2.5zm0 270.5q0 4 1 4h3l-3 2q-1 0-1-6zm1-195q6 0 6 3 0 2-1 2t-2 1q-2 0-3 1-2-7 0-7zm6-86v-4l3 4h-3zm0 279l6-2 2 2q-2 2-4 1t-4-1zm3-387q4-5 9.5-7t9.5-2q-2 2 1 5.5t3 4.5h-9q2 3 5.5 5t5.5-1q0-4-1-7t-1-5q2 0 5.5 1t5.5-1q5 0 6 4t1 8q-1 5-6 5.5t-10 2.5q-7-2-15-2.5T607-114zm0 566l3 2h-3v-2zm5-177h3-3zm3-312q-3-6 4-17 5-4 14.5-4t14.5 2 8 5.5 0 8.5q0 4-4.5 6t-9.5 4q-6 0-13.5 1T615-37zm0-32q6-11 15-22-3 8-2 14t-2 13q-2 0-3.5-2t-3.5 2q0-2-2-4-1-1-2-1zm0 334q3 1 4.5.5t3.5-.5q0 1-1 3.5t-3 2.5v-5h-4v-1zm4-313q2-5 6.5-6.5T632-56l-2 2v1q0 2 2 2 2-2 5.5-2t3.5 2h-9q-2 0-4 2t-2 4 2 2.5 4 .5q2 3 5.5 2.5T642-45q-3-2-5.5 0t-4.5 0q2-2 4.5-1.5T641-48q5 0 5.5-2t.5-4h1q5 2 6.5 6t1.5 6q-6 8-15 7.5T626-37q-7-1-7-11zm0-84l2-2zm2 405q0-2 5-2-3 2-5 2zm0 425q2-3 1.5-6t3.5-7q6-6 12-4 0 7-3 6t-5 3q-3 0-3 4t3 5q2 2 2 1t2-1q3-1 4.5-5.5t-.5-8.5l2-2 2-2q5 3 3 6.5t3 6.5l7-4q0-4 3-4.5t6-.5q5 0 6.5 3t3.5 6q4-7 12.5-5.5T701 690l-5 21q-2 2-4 6.5t-7-1.5q5-4-.5-3.5T679 711q-6 0-6-5t-2-7q-2 0-2 5-4 2-6 4t-7-1q-1 0-1-3h1q8-2 8-10 0-4-4-4-9 0-7 6t-1 6-3.5-1.5-1.5-2.5q-8 6-15 6-7 2-8-1.5t-3-4.5zm2-441q2 1 5.5 1h5.5q0 3-1 5t1 2q-2 1-2 3.5t-2 2.5l2-6q-2-2-2.5-.5t-3.5.5q3-2-1-3t-2-5zm3 336h4q1 1 1 2 0 2-1 4h-4q3-2 1.5-3t-1.5-3zm7-138q0-2 1-3 4 2 4 7l-4-2q-1-1-1-2zm0 141q0 3 1 3v2-8q-1 1-1 3zm1-568q6 5 15.5 6t19.5-1v2q-7 3-13 3.5t-14 .5q-1-3-5.5-5t-2.5-6zm0-215v-2l141 35 194 55q-25-5-50-11t-48-13l-233-62zm0 435v3h4q2 0 1.5 1.5t1.5 4.5q0 3-7-4l4-2h-4q-2-2 .5-2.5t-.5-.5zm4-153q2-5 3.5-6.5T648 87q3-3 8-2.5t7-6.5q1 0 3.5-1.5T671 78q-1 3 1 5t4.5 4 3.5 4-1 6q2-2 .5-5t-5.5-3q-4-7-7.5-2.5T660 89q0-9-12-2-1 0-4 1.5t-3 6.5q1 2 4.5 4t6.5 2v-4q2-2 3-5t5-1q0 3-2.5 5t-2.5 5q4 1 10.5 1h8.5q-4 3-12 3.5t-14 .5l-7.5-4.5L638 95zm0 167l3-4q0 4-3 4zm3-246q5-2 12.5-3.5t10.5.5q5 2 9 5t4 7q-4-4-13-9-1 5-5 2t-7 2q2 2 3 1t1 1q-1 2-3 .5t-5 2.5q3 2 5 1.5t3 1.5q-1 2-4.5.5T647 25l5-9q-4-2-7-1t-4 1zm0 580h1l-1 3v-3zm0 3v2-2zm1-351q5-3 6 0t4 5q1 1-1 3-1 0-3 1 0-3-3-5t-3-4zm0 299l5-4v4h-5zm5-616q-4-7 2.5-15.5T660-99l3 4q0-3 .5-4.5t.5-3.5q8-5 14.5-5.5t14.5-.5q10 0 14 8 2-3-.5-6t-5.5-7l14-20q0-5 2.5-6t6 0 7.5 2.5 7 1.5q-8 14-20.5 28T699-78q-2 0-1.5-2.5T696-83q-14 3-27 0l-14 19q-2 4-3-1t-5-4zm0 668l1-3v5zm5-441q6 7 13.5 8t13.5 1q-4 5-10 3.5t-9-1.5q-3-2-5.5-4t-2.5-7zm0 318l3-11v4q0 1 1 2-1 2-1.5 5t-2.5 0zm3-228q0-4 5-4v4h-5zm0 351v2-2zm1-342l4-4v4h-4zm4-250q2 0 1.5.5T663 11q-3 0-3-2V7zm3-106q1-3 6.5-4.5t9.5-1.5q5 3 2 5t-7 5q2 0 4-2t4-2l3 7h1q2 0 2-3-5-6 .5-6t7.5-2q9 0 9 8-5 9-14 8.5T674-91q-9 0-11-8zm0 464q14 0 27 5t25 11q-14-3-27-8t-25-8zm1-218q4 0 8.5-.5t6.5-5.5h3q0 3 .5 2t2.5 2h-3q2 2 6.5 4t4.5 6q-12-12-29-8zm0 93h5v4h-5v-4zm0 8h5v3h-5v-3zm0 300h5-5zm5-573q0-9 2-12 8-4 16.5-5.5t17.5.5q4 3 6 6.5T710-25q-4 7-12 8.5t-16 .5q-4-2-7.5-3t-5.5-6zm0 624q2 0 2 1v1h-2v4-6zm2-633q5-3 7-3.5t7-.5q0 1-3 3t-3 7q7 2 11 1.5t9-5.5q0-2 1-3.5t-1-2.5h2q3 1 6 3t3 7q-15 15-31 5-2-2-5-5.5t-3-5.5zm0-20q0-5 4.5-11t9.5-12l-3 23q0 5-4.5 2.5T671-54zm0 208h3q2 1 .5.5t-3.5.5v-1zm0 88q0-2 1-3 1-3 5-3v4q0 4-6 4v-2zm0 6q0-4 6-4v4q0 3-6 3v-3zm3-366l3-5v2q0 3-2 3h-1zm3 647l14 3h-9zm4-282.5q-1-2.5 1-2.5h3v3q0 4-3 4 0-2-1-4.5zm.5 456.5q-1.5-2 .5-4 0-1 2-4.5t4-.5q3 0 3 4 0 1-.5 5t-5.5 4q-2-2-3.5-4zm.5-463q0-5 3.5-4.5t5.5-1.5v2q-3 4-9 4zm0 225q0-2 1.5 0t1.5 0q2 5-1.5 3.5T682 465zm2-569q0-1 1-1h8q-2 0-4 1t-4 1zm1 72l6-5q5 0 5 3-2 2-5.5 3.5T685-32zm6-116q4 0 9 .5t7 2.5l-14 22q0-7-1-13t-1-12zm0 390h5v2q-2 0-2.5 2t-2.5 2v-6zm2-200h3q13 9 34 6-6 3-14 3.5T701 50q-2 0-5-1.5t-3-6.5zm0 192q1-1 2-1 3 0 4 1 0 2-3 2h-3v-2zm0 206h6q-2 0-3-1t-3 1zm1 165q0-3 2 0v3q-2 0-2-3zm2-499q4-8 12-8.5t14-2.5v-6h5q-2 3 0 5t4.5 3.5 4 4 .5 7.5v-3q-5-5-13-5h-2q-1 0 1 1-7 0-8-1v-4q-3-2-5-1t-4 1q-3 3-6 5t-3 7q17 12 40 2-7 6-16 7t-19-1l-4.5-4.5-.5-6.5zm0-382q2-8 11-11.5t15-3.5q45 11 86 23l83 25 47 13.5 45 11.5q16 5 28.5 10t26.5 7q5 0 8 3.5t2 8.5q0 3-4 7.5t-10 2.5l-316-89zm0 823q-2-3 1-5 2-1 4-1l-2 2q2 4 4 2.5t2 1.5h-9zm3-517q6-2 12-2.5t11-2.5v-3h1l-1 3q4 4 9 5.5t5 8.5q-3-5-5.5-6l-7.5-3q0 4-3.5 3.5T718 35q-4 9-13 4 0-4 5-9-4-2-7.5 0t-3.5 0zm0 214q0-3 4.5-2t6.5-2q2 0 3 1l1 1q-5 0-7.5 2.5t-7.5-.5zm0 196q6 0 11 2t8 2q-6 0-10-2t-9-2zm0 23q2-4 2-2v2q3-3 5-.5t4 .5q3 2 1.5 3.5T710 471q0-4-3-6l-1 2h-1q-4-2-6-4zm0 69q6 0 13.5 1t14.5 1h-13.5l-14.5-2zm2-583q0-10 7-18.5T718-83l4 2q1-8 9.5-10t14.5-4q11 0 20 9 2-7-3.5-10.5T753-103q0-8-2-15.5t-2-15.5l45 11q-4 11-12 19.5T766-83q0 5-3 6-6 6-15.5 7T730-70q-6 8-10 14.5T710-42zm0 287q4-2 9-2-3 2-9 2zm0 249l4-5 2 1q0 4-6 4zm0 120h4q0 2-2 2.5t-2 2.5v-5zm4-64q7-7 9.5-3.5t7.5 3.5q8 5 14 .5t13-7.5q3-2 5.5-5.5T753 521q4-5 6.5-11t8.5-6q5 2 3 7t1 8q24 4 49 7.5t48 7.5l-94-10q-5 2-7.5 7t-7.5 10h3q-4 0-8 6 4 0 6.5.5t4.5-.5q2 1 5.5 1.5t3.5 2.5q-2 3-4.5 3.5t-4.5.5v-4q-5 3-4.5 0t-1.5-3q-2-1-3.5 1t-3.5 2q0 4 5 4h-9q-7 11-11 19t-11 19q-3 0-6.5-1t-5.5-1q-4-9-4.5-20t-.5-23l5-1q2-5-3-4.5t-7-1.5zm2-506h3q1-1 2 0 1 0 3 4-1 0-3.5-.5T707 35zm0 74q-2-2 1-3t6-4q0 5 1 4.5t3-.5q0 4-2 3.5t-2 1.5q-3 0-4-1t-3-1zm0 499v2-2zm3 0h4-4zm4-578h4l-4 3v-3zm0 147q6 3 12.5 4t11.5 4q-6 0-14.5 1t-9.5-9zm0 57q0-3 4-3 0 3-2 3h-2zm1 331q5 0 9 .5t8 3.5q0 3-3 7.5t-6 9.5q-1 2-3.5-1t-4.5-6q2-5 .5-8t-.5-6zm0 43v2q0 1 1 1 1-1 2-1v4h-3q2 0 .5-2t-.5-4zm3-837v-3q5 0 9 3 4-2 9.5-.5L749-226l165 47q0 2 3 .5t3 1.5h8q6 5 12 5.5t10 4.5q13 0 23 4t18 6l4 3h-6q-9-6-20-7.5t-22-5.5q-4 0-7-2.5t-8-.5q-4-2-12-2v-5q-4 0-4.5 2t-1.5-2h-5l-7-2-90.5-23.5L718-229zm0 471h4l-4 6v-6zm0 246q3-2 2-5t2-2q1 3 0 6t-4 1zm0 120v2-2zm4-53q4-3 6.5-1.5t7.5 1.5q-3 1-5 1.5t-4 3.5zm0 59h1-1q1 1 .5-1.5t.5-4.5l4 2v-2l-4 2q1-1 2 0 2 0 2 4l3-6q2 0 4 2.5t2-.5h2q6-2 4.5 1t3.5 4q2-1 4-1.5t-1-3.5q5 0 3 2t1 3q0-4 2.5-2t2.5 1q2 1 4 .5t4-.5q-3 1-3 8l-3-4h3q-2 0-2.5-2t-2.5-1v3h-3l-1 1-1-1q-5 0-6-1.5t-3-1.5-2.5-.5.5-.5h2l-4-4v4h-2q0 1-2 1-3-1-5 .5t-4-1.5h-4q0-3 0-1.5t-1 1.5zm1-695q3-8 9-9.5t12-1.5q-5 0-8 3.5t0 7.5v1q0 2 2 2t6.5-.5T749-81q-2-2-4 0t-5 0l-2-2q2-2 4-5t4-3 3 3 4 5v-2q0-1 2-1 0-2-.5-3t-.5-2l-1-1h2v1q4 0 7.5 4.5T766-78q-2 1-4 1.5t-4 3.5q-20 5-35-8zm0 257q3-2 5-5.5t2-5.5h-3l3-3q-2-5 3-5t7-2q3 2 3.5 6t2.5 6q-2 0-5.5-1t-8.5 1h4q-5 2-6.5 6t-6.5 3zm0 55q2 0 3 1 0 1 1 2h-4v-3zm0 234h7q-3 1-3 4v2zm0 15q3 0 2-4t2-2zm0 8l7-7h2q-2 3-3 6t-6 1zm4-525h1q2 0 2 3l-3-3q2-8 6-13t7-10q3 3 1.5 5t-1.5 4v14q-3 0-6.5 2t-3.5-2h-3zm0 285q2-3 1.5-5.5t3.5-.5q0 2-1.5 2.5T727 248zm3-264q2-5 6.5-7t9.5-2q-2 2-4 4.5t-4 5.5q5 0 7.5 1.5T753-15q0-1-3.5-.5T744-16q2-2 4-1.5t5-1.5l-4-4q0-7 5-3.5t9 3.5q2 0 5 3.5t0 4.5q-2 7-6 8t-9 1q-7-3-14-4t-9-6zm0-3q6-7 15.5-9.5t17.5.5q4 2 7.5 6.5T772-11q-7 7-16.5 8.5T738-2q-5-3-7.5-7t-.5-10zm2-82l4-4v2q2 2-1 2h-3zm0 589l4-7h2l2-5 4 5q2-1 1-4.5t-1-5.5h2q-2 3 3 9 5-3 4.5 1t1.5 4q-2 2-2.5 5t-3.5 3q-2-2 .5-4t-.5-4q-4 0-4 3.5t-5 1.5q0-2 1.5-4t-1.5-5q-2 3-2 5t-2 4h-2q-2 0-2-2zm4 126l2 1h-2v-1zm8-380h2-2zm2 10q1-1 2 0 1 0 5 4h-4q-1-1-2-1-2-2-1-3zm1.5-191q2.5-3 5.5-3 0 2 1.5 4t3.5 2q0 1-1.5-1t-3.5 2q4 3 6 2t7 2q5 0 12-.5t7-4.5q0 1-8 9-7 0-15-.5T749 57q-4-1-1.5-4zm1.5-5q5-5 12-6t14-3q-2-3-1.5-3.5T772 33h5v2h-2q2 5 8 7t6 8l-6-4-6-2q-4-4-6.5 0t-4.5 6l2 2q-8 0-10-2 4 2 6-2t4-4q-4-4-9-2.5T749 48zm0 71q5-8 13.5-9.5T781 106q3 4 7.5 7t1.5 10q0-5-5-9-3-6-6.5-1t-10.5 4q-3 0-3-3 0-2 1-3-5-2-7-.5t-4 3.5q-3 4 0 9 6 4 15 5.5t15-4.5q-3 6-11 7.5t-16 .5q-2-3-6.5-6t-2.5-7zm0-326h4l295 81q-5 4-6 9.5t-4 11.5l-2 6q-12-2-23-4.5t-22-5.5l-169-48-69-20q0-8-3-14.5t-1-15.5zm0 678h4q0 5-4 5v-5zm4-231q0-4 1-4 0-1 1 0 4 3 6.5.5t6.5-.5q0 3-1.5 3.5T763 242q0-5-3-2.5t-7 .5zm2-32h5q22 5 42 10t37 16q-21-3-42.5-11zm0 36q3 0 3 4-1-1-2-1-2-2-1-3zm0 236q8 0 11 1 5 0 10.5 1.5t8.5-1.5q0-1-2-.5t-2-.5v-4q6-1 7 0t-.5 2.5-3 4 .5 5.5l-4 9q-7 1-4-2t0-5q-2 0-2.5 2t-2.5 5l-4-4 2-2q2-2 2-3-5 0-5.5 3t-.5 6q-6-3-2-7t2-9q-5 3-5.5 6.5T758 493l-3-3q4-2 2-4t-2-6zm3-517q0-13 8-21.5T781-77q0 3-1.5 5.5T781-69l4-4q4-4 12-5t14-3q4 2 7.5 3.5T824-73t1 8-3 6q-8 4-19 5t-18-5q-6 6-9 12.5T768-32q-4 0-5-2.5t-5-2.5zm0 156q10 0 10 4-2 0-5-.5t-5-3.5zm2 357l3-2v2h-3zm3-291q4-7 10-9.5t12-2.5q1-1 2-1 1-1 2-1t1-2q3 5 8.5 7.5T803 187l-4 4q-7 3-13.5 4.5T772 195q-3 0-7-3t-2-7zm3 0q2-6 6-7.5t9-1.5q-6 1-6 9 2 0 4-.5t2-3.5q0 4 4 6 3-2 5.5-4.5t-.5-5.5h-9v-1q7 0 12 1.5t10 7.5q3 0-4 5-2 1-6 1h-8q-6-1-12.5-1t-6.5-5zm0 63l2 3h-2v-3zm0-496q2-3 4.5-2t6.5-2q9 3 6.5 9t-2.5 11q-3 0-1.5-3t1.5-5-2-4l-4-4q-5 2-4 5t1 5h-4q0-2-1-5t-1-5zm2 722q5 0 6 1.5l3 4.5h-9v-6zm4-363h3q0 2-3 1t0-1zm0 140q0-1 4-1 1 0 1 1-1 4-3 2zm3-203h6-6zm0 192h2v2h-2v-2zm2 303h4q0 3-.5 1.5T777 543zm4-559q0-12 5-18t11-14q3 17-3 29-3 0-4.5 1.5T785-19v3q-3 1-3.5-.5t-.5.5zm0-53q6-6 10.5-7.5T803-78l-13 9q5 4 7.5 0t5.5-4l1 9q5 0 3-5t0-8q0-1 2-.5t4 .5 6.5 4 2.5 9q-2 4-7.5 5.5T803-59q-7 0-13-1.5t-9-8.5zm0 311h4-4zm0 11h4q0 4-2 3.5t-2-3.5zm4-255q4-10 13-12t18-2q5 1 8.5 4.5T833-2q0-10 5-17.5L848-34h4q0 8-1 16.5T842-2h-7q-4-6-5-1.5T826 6q-5 4-14.5 5T794 7q-9 0-9-9zm0-79l9-11q2 7-2 8t-7 3zm0 323h4v2h-4v-2zm0 255l4-7 1 3q-1 0-1.5 2t-3.5 3v-1zm3-733.5q2-4.5 1-9.5 4 0 3 3t2 5q2 0 3-3.5t6-1.5v14l-6-5q-2 0-3 1t-4 1q-4 0-2-4.5zM789-2q1-7 6-8t9-1l-5 5q-2 0-2 2.5t2 2.5q9 5 12.5-.5T820-11l4 5q5 3 3.5 6.5T824 6q-3 0-7.5.5T807 7q-3-1-10-2t-8-7zm0 487h1q0 3-1 3v-3zm1-227h4q0 3-.5 2t-3.5 2v-4zm0 240l4-5v5h-4zm3-250q-2-1 1-4 5 0 5 4 0 2 0 1.5t-2 1.5q-2-2-4-3zm4 250l6-1v-2q0-1 .5-.5t.5 2.5q-1 1-1.5 3.5T797 498zm2-232q-2-1 1-2.5t4-1.5v3h-3q-1 0-2 1zm4-268v-6q0-2 1-2 5-2 9 0-2 3-5.5 2T804-6l7 4q-6 2-8 0zm0 63q7-9 21-9 0-2 3.5-2t-1.5-2h7q-2 3 2.5 6t8.5 7q0 5-2 8l2-4q-2-6-6-7.5t-8-1.5q-5 1-5.5 5t-.5 5q-2 2-1 .5t-1-1.5q-5-3-7-1t-4 1q4-3 7.5-2.5T824 56q-6-3-10.5-1T803 61zm0 8q0-4 1-4l7 8q7 0 14 .5t14-.5q-7 4-17.5 4.5T804 73q-1 0-1-4zm0 182h4q4 0 0 2h-2q-2 0-2-2zm0 148q0-2 1-5t3-3v5q0 3-4 3zm1-259q0-6 3-9.5t7.5-5.5 9-3.5 6.5-4.5q0-1 4-1 1 0 1 1 3 5 7.5 7t4.5 9q-2 5-5.5 6.5T835 141q-8 3-16 3.5t-15-4.5zm0 362q-1-4 5-7t2-7q0-2 1-4.5t1-3.5q2 0 4.5 2t4.5-1q6-1 3.5 3t.5 4l4-7q2 0 1 3.5t-1 5.5q-3 0-4.5-2t-1.5 2q2 0 4.5 1t6.5-1v3q3 0 5 1.5t4-1.5q0-2-3-2.5t-6-.5q0-5 4-5 5 0 8 3 0 4 4 4t1 5q7 0 4-3.5t0-5.5h5q-3 4-1.5 7.5t1.5 6.5q0 2-.5 5t-4.5 3v-6q-4 0-4 6-5 0-5-3l2-2q2-2-1-3-3 0-2.5 4.5t-3.5.5q0-2 1-3.5t-1-1.5-3 1.5-4 3.5q-4 0-.5-4.5t.5-5.5q-2 0-2.5 2.5T830 504q0 1-2 1-1 0-2-1 0-2 1.5-2.5T826 498q-2 0-2 2t-2 4h-2q0-3 1-4 0-1 1-2-5-1-4.5 2.5T813 502v-5q-5 0-4.5 4.5t-4.5.5zm3-620q11 3 21 6.5t20 6.5q-3 5-9 13t-13 14h-2q-2-4-6.5-6.5T811-91q0-6-3-13t-1-14zm0 250q3-6 8.5-7t8.5-2q2 1 2 5h-4q-5 0-6 3.5t-3 8.5q-2-3-4-4t-2-4zm0-358v-14h4q7 0 9 5t0 11q-3-2-4-1t-3 1q0-2 3-4t0-4q0-2-1.5-3.5T811-234v8h-4zm0 946q0-3 .5-6t5.5-3 5.5-3 5.5 3q2 2-2 9-2 2-7 2t-8-2zm9-743q-7-11 2.5-19.5T833-59q-1 1-1 2 0 3 1 3 5-8 13.5-9t17.5-1q4 0 7.5 2.5T878-56q2 6-7 14-5 4-16 4t-20-4q-4 4-7 10t-6 13q-2 0-2.5-3t-3.5-1zm4 163q3-7 10-8 2-3 1.5-6t3.5-2q3 3 7 4t2 5q-4 6-11.5 6.5t-12.5.5zm0 59q5 3 12.5 2t11.5 2q-7 4-14 3t-10-7zm0 72h2q0 2-1 2t-1-2zm2-13h2v2q0 2-2 2v-4zm2-492q5-3 4.5.5t4.5-.5q0 2 2.5 1t-.5 1q0 2-1.5 1t-3.5-1v3q3 3 3 5-1-1-2-1t-1 1 2 3q1 0 3 1 0 2-2 2-8 0-8.5-6t-.5-10zm2 421q5-2 10-6t11-4q0 3 4.5 7t4.5 6l-4-3q-3 0-5.5-1t-4.5 1q0 3 1.5 2t3.5 1v1q-3 4-8 4-3 0-6.5-2.5T826 191q-2-1 1-1.5t3-2.5h-4zm0 78q0-3 4-3zm0 14l4-4v4q0 1-2 1-1 0-2-1zm4-218h3-3zm1.5 204.5q-.5-.5 1.5-.5 0-1 1-1t1 1q3 0 3 .5t-3 .5h-2q-1 0-1.5-.5zM833 283l6-2q0 2-3 3.5t-3-1.5zm6-337q2-4 6-5t7-1q0 1-3.5 3t-1.5 6h10q3 0 4-2.5t5-2.5v-4h3q2 1 5 3t0 6q-4 7-11.5 7.5T847-45q-2 0-6.5-2t-1.5-7zm0-15l8-9q1 6-1.5 7t-6.5 2zm2.5 86.5Q840 13 842 11q4-9 12.5-11T871-1q5 3 7.5 5t4.5 3q4-7 10.5-15T906-19q4 12-6 26-2 7-7.5 4t-9.5 0q-4 11-14.5 13.5T847 22q-4 0-5.5-4.5zM842 7q4-3 7.5-3.5T857 3q-1 2-4.5 3.5T852 13q3 0 3.5-1.5L857 7l2 2q2 2 5 2-3 0-3 5 4-2 7-6t3-7q2 2 6.5 3.5T880 13q-5 7-13 8t-15-1q-4-3-7-5.5T842 7zm0-225v-14h2v3q0 2 1.5 2.5t2.5 2.5v-5q8 0 8 3-1 0-2 1-2 2-2 5h-6v1l1 1q0 2-1.5 1t-3.5-1zm0 484q2 0 2.5 3.5t2.5 3.5q-2 2-4.5-.5t-.5-6.5zm0 282q2 0 5 3h-3q-5 0-2-3zm5-764q3-5 9-2 0 5-4 3.5t-5-1.5zm0 713q0-4 5-4zm1-551l4-2q5 0 5 2-1 2-3.5 1t-5.5-1zm4 333h4-4zm0 14v3-3zm4-352v-1q1 0 3.5.5t4.5.5q-6 6-8 0zm1 133q5-7 13.5-7t12.5-6q0 3 2 3t2-3v2q0 2 1 2 2 3 7.5 6.5T898 80q-5 8-14 9.5t-18-.5q-7-2-8.5-6t-.5-9zm0-290q3-2 4-5t3-3q5 0 5 8-4 0-5.5 2t-6.5-2zm3 499.5q2-.5 4-2.5v2q0 1-2 3-1 0-1 1-3-3-1-3.5zM861 4q0-1 3-1 2-3 2.5-1.5T869 3q-4 4-8 3V4zm0 70q2-1 5.5-3t7.5-2q-2 3-5 3.5t-5 1.5h5q0 5 1.5 4.5T874 76t3.5-4 2.5 1q0 1-2.5 3t.5 4q2 0 5.5-3.5T887 69h4q2 3 4.5 4.5T898 80q-5 7-13.5 6.5T869 83q-8 0-8-9zm0-177q10 2 20 5.5t21 5.5q-7 7-12 14t-12 14q-5-5-10.5-8T864-83q0-7-1.5-12t-1.5-8zm0 253q-2-7 1-9.5t7.5-4 9.5-4 8-8.5q3 6 9 10.5t4 12.5q-7 6-19 7.5t-20-4.5zm0 151l2-2q1-1 3-1v3q-2 2-2.5 1t-2.5-1zm0 209q2-5 4-4.5t4-3.5q-2 2-3 7t-5 1zm3-369q2-5 14-5-2 1-2 2-1 1 2 3 8 0 13-5 2 0 4.5 3t4.5 6q-5 7-14 6t-17-1q-2 0-4.5-2t-.5-7zm0 349q2-2 5-1t5 1q0 2-1.5 3t-1.5 4h3q-2 1 1.5 1.5T874 502v-4h-5l1-1h-1l-5 1q0-1 2-1 0-4-2-7zm4.5-502q.5-6 .5-11 7-11 14.5-21T900-64q2 8-4 9.5t-8 6.5q-1 2-1 6t1 5q4-8 12-11t14-3q11 0 17 6 1 10-3 13-10 5-20 7.5T891-32q-11 12-17 26-6 0-5.5-6zm.5 302h2q-1 1-1 2v1h-1v-3zm0 222l2-8q3 0 3 1v2q-2 0-1.5 2.5T869 512zm2-365q0-2 3-2h4q-4 2-7 2zm0 67l22 3q-2 3-13 3-2 0-5.5-2t-3.5-4zm0-434q2-3 2.5-.5t.5 4.5q6 7 6 9h-2q0-7-6-8.5t-1-4.5zm3 427q3-7 9-8.5t8-7.5h2q1 0 2-.5t3 .5q0 3 2.5 5.5t5.5 6.5q-5-4-11-4h-12q4 3 8 3.5t9 .5v5q-7 0-13-.5t-13-.5zm4 91h2v3h-2v-3zm0 212q7-5 5-9t0-8h4q-2 1-2 2-2 2 2 2 1 4 2.5 2t3.5-6q7 0 9 4v1l-2 2q-2 2 0 4h10v-2h-1q-1 0-1-2 0-1 1-2 0-1 1-1 0 1-.5 1.5t.5 3.5l4-4h8q2 0 1 2t1 2l4-4q0 6 3 6v-2h5v8q-4 2-4.5 5.5T928 521h-4q0-2 1.5-2.5T924 515q-2 0-2 2t-2 4q-5 0-1.5-3t1.5-3q-4 0-4.5 2t-1.5 2q-4 2-2.5-1.5T910 512q-1 0-1 7-5 0-2-5t2-7q-5 2-6 5.5t-3 6.5q-5 0-2.5-3.5t2.5-5.5q-4 0-6 2-1 1-1 3h-5q0-2 2.5-2.5t.5-2.5q-2 0-4 5h-4q0-2 1.5-4t-1.5-4q-3 1-3 4v1h-2v-2zm2-374l3 4q0 1-1.5 0t-1.5-4zm3-343v-2q4 0 5 3t3 3v-4q2-3-.5-6t-2.5-5q5 0 10 2-4 5-2 7.5t-3 7.5q-4 0-10-6zm0-11h4-4zm4 528h1q0 2 0 1t-1-1zm4-348q-2-2 2-7 4 0 7-1.5t6-1.5q-3 2-4.5 6t-1.5 5q8 0 14-5-5 5-4 8 3-2 6.5-5.5T920-45q-5-2-8 .5t-6 2.5l3-3q1-5 4.5-4t8.5 1q9 4 9 11-7 7-17 7.5T898-34q-5-2-7-4zm2 63q5-11 15-12.5t20 .5q3 0 6.5 4.5T936 28q-4 5-14 7.5t-20-.5l-6-4-3-6zm5-3q3-5 7.5-5.5t8.5-.5l-4 4q3 0 4.5-3t5.5-1q0 5-3 7.5t-2 4.5q4 0 4.5-3t2.5-5q2 0 2.5-3t3.5-1q2 0 5 3.5t3 5.5q-6 6-14.5 7.5T906 30q-8 0-8-8zm0 320v4-4zm0 139h2-2zm2-688q2-3 4.5-5.5t4.5 1.5q4 2 4.5 6.5t.5 6.5q-6 0-11-1t-3-8zm2 705h4v4h-4v-4zm3-702q-2-3 1-5 3 0 3.5 3t-.5 5q-2 0-4-3zm3 613.5q-1-8.5 1-18.5 1 0 1.5 2.5t3.5 2.5l1 27q-1 2-3 2.5t-3 .5q0-8-1-16.5zm1-52.5l1-2v2h-1zm1-260q0-2 .5-4t3.5-4v2q5 8 15 8.5t18-2.5q-7 7-17.5 8T910 97zm0 407q3-5 6.5-1.5t5.5 1.5v3q-2 0-5-1.5t-7-1.5zm4-595l44 13q-4 7-11 15.5T932-48l-4-6q-11-4-12-15zm.5 251q-.5-3 .5-5 4 9 14 9.5t18 .5q6-6 6-10t-3-5-5-3q-5 5-10.5 7t-10.5 8q0-3 2-4t2-3q3 0 2-1t1-4q0-3-2-3h-1q2-2 6.5-2.5t7.5-4.5q2 4 7.5 7t3.5 11q-5 8-16.5 10.5T915 165q0-2-.5-5zm.5-77q5-2 10.5-3t6.5-6q3 0 5-.5t5 .5q0 7 6 8.5t2 6.5q0-2-1.5-2.5T945 83q-10-4-12 2t-5 6q-3-2 .5-3.5T932 83q-3-2-8-1t-9 1zm0 285h5q0 1-5 1v-1zm3-566.5q2-5.5 2-8.5 2-2 3.5-1t4.5 1q4 5 3 12-1 0-2 1-2 0-3.5.5t-3.5.5q-6 0-4-5.5zm2 348.5l4-3zm2-160q8-11 17-20.5L958-51q1 5-.5 7.5t-4 3.5-5 2.5T945-32q-2 3-1 5t1 4l8-9q14-9 33-2 0 5 1.5 7t1.5 4q-5 9-12 11t-16 2q-5 0-8.5-2.5T945-16q-5 4-9.5 10T928 6h-4q0-5-1-7.5t-1-8.5zm0-193h2q4 2 4 5l-4 3q-2-3-2-8zm0 568q2-2 4-2.5t2-3.5q2 5-1 4.5t-5 1.5zm2 12q1 0 3-2 0-1 1-2zm0 22q0-2 2.5-5t4.5-3q4 6 3 11.5t2 9.5q-3 2-4.5 4t-3.5 2q-3-5-3.5-9t-.5-10zm6.5-21q-1.5 1 .5-1h1l4-4q0 4-4 6 0-2-1.5-1zm.5 146q0-7 5-7t2-7h4q-3 2-4.5 8t-6.5 6zm1-374h4q0 1-2 1-1-1-2-1zm4 240q0-2 1.5-1.5t4.5-1.5q0 3-3 3.5t-3-.5zm2 112q0 2 1.5 3.5T938 507v-5zm0 22q0-2 2-4t2-5l3 4q0 2-1 4.5t-6 .5zm4-499l13-18q-4 10-8 18-1 1-3 1-1 0-2-1zm3 477q6 0 3.5 3t1.5 5l-5 2v-10zm0 22q2-4 5-5.5t3-6.5q0-2 1 0t1-2h-2v-6q6 2 11.5 3t10.5 3l-2 2-4-2q-2 0-1 1t-1 1q5 5 10.5 6t11.5 1q0 2 1.5 3t4.5-1q2-2 5.5-1t5.5-1q0 2 3 1t3 1q-5 2-6.5 7.5T999 534q-1-3 1-4.5t4-2 3-2-1-4.5q-2 4-5.5 5t-3.5 6q-2 2-2.5 1t-3.5-1l4-3v-3q-3 0-3.5 2t-2.5 4q-6 0-3.5-3t.5-3q-3 0-3 6-2-2-2.5-1.5T977 529q3 0 4.5-1.5t-.5-3.5q-3 0-3.5 2.5T975 529l-1 1q-1 0-1-1 2-2 3-5t-1-5q-2 2-2.5 5t-3.5 5q-6 0-3-3t1-5q-4 0-4 2-1 1 0 3-2 0-2.5 1t-2.5-1q6 0 3-5-2 0-3 1.5t-3 3.5h-2v-5q-2-2-2.5.5t-.5 4.5q-2 0-2.5-1t-2.5-1zm2-549q5-2 7-4.5t7-4.5l-8 11q4 0 7.5-2.5T967-28q0 2-1.5 4t1.5 5h2q8-8 8-13-2 0-2 2.5t-2 4.5v-9q3 2 7 3t6 6q2 2 .5 4.5T983-16q-6 4-12 2.5T958-15q-7-1-11-10zm3 64q2-8 9-10t16-4q8 0 16 8 3-2 .5-5.5T991 22q5-5 9.5-10t7.5-6q3 8-.5 14.5T999 33q-2 2-3.5 1t-4.5 1q-4 11-14.5 14T958 50q-4 0-6-3.5t-2-7.5zm2 699.5q-1-3.5 1-5.5 8 0 5 2 0 5-.5 8t-4.5 0q0-1-1-4.5zM953 39q0-5 4-7t6-2q0 2-2.5 4t-2.5 5q2 2 4-1t5-3q0 3 .5 6t5.5 1q-2-3-1-5t3-2.5 4-1.5 2-3q8 0 8 9-5 7-11 8t-15 1q-4 0-7-3.5t-3-5.5zm2-224l3-2zm0-8v-5q5 2 8.5 1.5t5.5 3.5q-5 3-7-.5t-7 .5zm3 708l5-5 4 5h-9zm0 175q0-1 1-3 2-4 2-6 5-10 13.5-5.5T991 680q-2 4-2.5 7.5T986 694q-8 0-14.5-2t-13.5-2zm5-722l2-2q3-3 4 0zm0 133l6-4-2 4h-4zm0 6q0-1 4-1 5 6 13.5 5.5t16.5-.5h-2q-1 0-4 3-6 2-13 1.5t-15-6.5q-1-1 0-2zm0 69q-1-5 2-7.5t6.5-4.5 6.5-4 3-6h2q0 4 6-4 2 0 6 4 0 6 5.5 7.5t3.5 5.5q-4-2-5.5-3.5T995 162q-3 4-7.5 3t-4.5 4q-2 0-2.5 2t-3.5 2q7-7 4-11-5 0-8.5.5T967 167q5 11 15 10t15-1q-6 4-16 5.5t-18-5.5zm4-355v-2q2 2 2 1t0 1h-2zm0-8q2-5 2.5-2.5t3.5.5v2h-6zm0 952l2 4h-2v-4zm1-734q0-1 1-1 3-2 4.5-1t3.5 1q-2 0-3.5 1.5T969 33q-1 0-1-2zm1 66q5-5 10-4.5t7-5.5q2 0 4-2.5t5 2.5q-2 3 0 4.5t4.5 3 4 3 .5 4.5v-1q-8-6-13-6v6q-2 4-5.5 4.5t-8.5.5q-3-3-2.5-6t2.5-5q-2-3-3.5-.5T969 97zm0 570q0-3 2-3.5t4-.5v4l-2 1zm3.5-726.5Q970-66 973-73q6 0 13.5 2.5T1004-64q-5 6-10.5 10.5T983-42q-5 3-5.5-1t-2.5-2q0-8-2.5-14.5zM973 644q3-3 3-8t5-4q6 4 15 5.5t8 11.5l-5 4q-6-5-12-5.5t-14-.5v-3zm1-824q0-1 1-1h2q3-3 1.5-5t-1.5-7h4q2 3 1 6t1 6q0 2 1 2h2v2q-2 0-5.5-1t-5.5-1zm1 183q12-20 33-40 3 9-4 11.5t-9 9.5v3q0 1 2 3 0-4 4-6.5t7-2.5q9-3 15-2.5t13 5.5q2 0 2 2.5v3.5q-3 10-10.5 11.5T1014 3q-12 0-19-9-7 4-10 11t-8 11zm0 665q0-2 1-3 0-1 1-2v4q0 1-2 1zm2-567q1 0 3-2 0-1 1-2 2 0 3.5-1t1.5 1q0 3-3 5.5t-6-1.5zm0 487q5 0 7.5 1.5t6.5 1.5q7 0 4 5h-9q1 4 4.5 4.5t6.5.5 5.5.5 1.5 6.5q0 5-2.5 3.5T997 610q-6-2-11.5-2.5T977 599q3-5 .5-7t-.5-4zm0 116q6 0 6 3h-3q-3 0-3-3zm4-327q0-7 1.5-11l3.5-9q4 0 5 1t6 1q-5 3-6.5 10.5T981 377zm0 133h5-5zm2 157v1-1zm3-505h3v1q0 2-3 2v-3zm0-349q4-2 7 1.5t6-1.5q-2 5-1.5 10t-2.5 5zm3 702l2-3q2 0 3 1 0 1 1 2h-6zm6 166q3-1 6-3t3-6 1-4q0-1 1 0 0 3 1 4t-1 3q2 2 5 1t5 1q-2 6-8 10t-13 7v-13zm4-692q8-8 21-8v3q2 4 4-.5t3 .5q11 0 9 6-5 7-12 8t-16 0q-2 0-5.5-2.5T999-11zm5 59q6-7 15-8t17-1q2 2 5 4.5t1 8.5q-6 10-15.5 11.5T1006 61q-2 0-2-3v-6q2 0 2.5 2.5t5.5 2.5q6 3 15 .5t15-7.5q0-2-2-4t-4-2-4-2-2 2q-6-4-10.5 0t-7.5 6q0-2 2-4t2-4q-3 0-6.5 3t-5.5 3zm0-233q6-2 4 3t0 5l4.5-3 3.5-1q3 3 0 7.5t0 6.5h-2v-10q-2 0-4 2t-4-2zm0 784l2-3q5-2 10-5t10 2q14-2 25 5t24 7q10-7 17.5-2t17.5 5h-16q-4 2-3.5 6t-2.5 4q1 4 2.5 4.5t1.5 4.5q-7-3-12.5-2t-9.5-3q-7 0-11.5-3.5t-9.5-3.5q-11-5-23.5-8t-21.5-8zm2-87q2 0 2 3-2 0-2-2v-1zm0 22q2-2 2.5-4t3.5-4v6q0 1-1 2-2 2-5 0zm2-540q3-3 5-4.5t7-4.5q-5 3-5.5 8t-6.5 1zm0-144q5 2 12 2.5t10 2.5q-6 0-11.5-1.5T1008-150zm0 749l4-3q2 0 1 .5t1 2.5q0-3 1-3h1v3h6q-2 2-6.5 2t-7.5-2zm4-75l2-3v3h-2zm2-343q5-9 12-11.5t16-2.5q5 2 9.5 3.5t4.5 10.5q-5 7-13.5 8.5T1026 191q-3-1-7.5-2t-4.5-8zm0 482q0-4 1-4 0-1 1 0v4h-2zm1-545q1-2 1-4 15-12 32-12 1 3 4.5 5.5t3.5 6.5-4.5 6.5-6.5 3.5q-7 3-15.5 3t-13.5-4q-2-3-1-5zm1-4q3-2 6.5-3.5t4.5.5l-1 3q-2 0-2 1-2 2 2 2 1 2 5.5 2t6.5-2q5-2 2.5-4t-2.5-4q5 0 10 1t5 7q0 2-2.5 4t-5.5 2q-7 0-15.5-.5T1016 114zm0 63q8-6 15.5-5t16.5 1q1 2 3 3t2 5q-4 5-10 5.5t-9 .5q-5-2-10-2t-8-8zm4-236q11 2 20.5 4t17.5 7q-4 8-9.5 13T1036-23q-2-2-4.5-5.5T1026-32q0-8-3-14.5t-3-12.5zm0 516q0-1 1-1 4 0 5 1-3 2-2 5t-4 5v-10zm0 24q0-4 3.5-6t6.5-4q0-3-2-4.5t-1-3.5v2q2 5 5.5 2.5t5.5-2.5q0-2 2.5-4t4.5-2q0-2 1.5-2.5t1.5-2.5q0-1 5 3-3 5-4.5 6t-3.5 4h3q6 0 9.5-5t3.5-10q11 2 17.5 8t13.5 14q2 5 8.5 5.5t13.5 1.5v4q-3 2-9-.5t-11 .5q5 4 11 4.5t11 .5v3q-1 4-3.5 4.5t-5.5 0-6.5-1.5-6.5 1q-11-5-25.5-7.5L1042 485v-4l-6-1q2 0 2-2t-2-2q-4-4-9 0 2 4-1.5 4t-5.5 1zm2-649.5q3-5.5 0-10.5h5q7 0 7 6v7h-7q-8 3-5-2.5zm3.5-1q1.5-3.5 1.5-7.5 2 4 2.5 6t.5 4q-6 1-4.5-2.5zM1026 11l32-34q5 9-2 11.5t-8 9.5v3l1 2q0-5 7-5 7-6 13-7.5t14-.5q4 3 7.5 6.5T1092 6q-2 4-6 6t-7 4q-5 3-10 1t-8 5h-5q0-2 1-2.5t1-3.5q-8 0-10-10-8 5-10.5 11.5T1030 30q-4-11-4-19zm4 103h4q0-2 0-1t2 1h-6zm0 379q3-4 6-3.5t6-1.5v10q0 5-2 4.5t-4-.5q-5 0-4-3t-2-6zm4-317v1-1zm0 228q0-6 4.5-5.5t9.5.5v2q-1 0-2 1-2 2-4 2-3 0-4.5 1t-3.5-1zm2-581q5 0 6 3.5t3 3.5l3-2q1 1 1 2 0 2-.5 4t-.5 7q-8 0-9-6.5t-3-11.5zm0 648q2-4 9-4 2 0 1 2.5t-1 4.5-2 1-5 1v-1q0-2-2-4zm9-26q4 0 8 3h-8v-3zm0 271h3v-1q1 0 1 1-1 0-2.5 1.5t-1.5-1.5zm3-284q-2-5 1-7.5t0-6.5h4q-3 4 1 5.5t2 6.5q-2 3-4.5 2.5t-3.5-.5zm5-426q4-12 17-12 1 3 2 3t2-1 3-2.5 4 .5q2 3 5 4.5t3 4.5q-8 10-22 10-5 0-9.5-1.5T1053 6zm0 63q0-2 .5-5.5t2.5-6.5q4-1 8-1.5t6-5.5h2q2 2 4.5 1t4.5-1 2.5 1 4.5 1q3 0 5.5 5t.5 9q-2 5-7 6t-8 2q-15 7-26-5zm0-230.5q2-4.5 0-5.5 4-2 4.5-1t.5 2q2 0 3-.5t4-.5q0 4 2 6t0 4q-2-2-4.5-1t-4.5 1q-7 0-5-4.5zm3 226.5q4-6 8.5-7.5T1075 56l-3 1q5 3 6.5 1t4.5-2v1l5-1 3.5 3.5.5 5.5q-3 6-9 7t-13 1q-4-3-9-4t-5-4zm2-164l12 4q7-3 10-9t8-10q7 0 13 3t13 6q6 1 8.5 3.5t4 5.5 3.5 6.5 7 6.5q18 5 35 10.5l37 12.5q-3 3 0 8.5t0 13.5q-7 8-15 16t-17 16q-3-7-2.5-13t-7.5-6l-28 24q-2 5-2.5.5T1132-2q2-10-3-15t-5-15q8 3 11.5 5t9.5 2q11-5 23-3.5t21 3.5l16-13q0-13-1-16-16-5-30.5-10.5T1145-73q-23 0-43.5-5T1061-91zm0-60v-2q0-1 3-1 0 1 1 2 0 2-1 3zm3 165h6q-2 1-2.5.5T1061 6zm5.5 123.5q-.5-2.5 3.5-5.5v4q2 9 10.5 8.5t13.5-.5 7-2.5 4-5.5q0-3-1.5-4.5t-2.5-4.5q-12 0-13 4v-4q-9-3-18 4l2-4q8 0 14-4.5t15-.5q0 2 1.5 4t7.5 5q2 0 3 .5t3-.5q0-7 7-10.5t11-3.5 5-4 6-3v-1q-2-5-3-10.5t-3-10.5q-4 2-8 4.5t-11 2.5q-5 0-8.5-1t-9.5-6q-1-5 .5-6.5t7.5-4.5q5-3 15.5-6.5T1142 66q2 2 2.5 5.5t.5 6.5q5-4 10-9t9-8q-2 9-6 18.5t-7 17.5q-3 3 .5 4.5t4.5 4.5q2 2 2.5 6.5t.5 6.5q11-18 18.5-38.5T1196 42h-4q-7 6-17.5 6.5T1155 44q-6 0-8-4.5t0-6.5q9-10 21.5-14.5T1192 16q3 5 3.5 2.5t2.5-2.5q2 4 2 14-2 15-8 27.5T1181 83l-25.5 54-26.5 53q2-7 5-12.5t5-10.5q5-13 11.5-24t8.5-24q-7 9-17 9-10 3-12 12t-7 15h-3l-4-31q-2 0-3 1.5t-1-1.5q-13 16-29 16-3 0-7.5-1t-8.5-6q0-1-.5-3.5zm.5-63.5q0-1 1.5-2.5t1.5 1.5q0 4-3 1zm0 129q2 0 4 2t4 1q-6-3-5.5-5.5t3.5-4.5l6.5-4.5 3.5-6.5q7 3 12.5-1t6.5 5q0 5 1 7.5t-1 6.5v-4q0-4-5-4-3 3 0 4-3 4-8 4-1 2-3.5 0t-2.5 3q4 1 7 .5t7 .5q-4 0-10 3.5t-12 .5q-2-3-6-2.5t-2-5.5zm3-352q2-2 .5-6t4.5-3q6-1 7 5t1 11q-3 0-2.5-5t-1.5-7h-2q-2 0-2 3v2h-5zm0 399q0-2 5-2-4 3-.5 6t.5 7h-2q-1 0-3-2v-4q0-3 2-3zm2-287q12 2 20.5 5t19.5 6l-23 23q-5 0-6-2.5t-4-2.5q0-9-4.5-16t-2.5-13zm0 592q2-5 4.5-6t4.5-3q-2-5 2.5-6t4.5-3l-5-3q7 0 14 2t15 4q-11 10-10 16-4 0-6.5 1t-6.5-1q2-1 7-1.5t5-5.5q-3 2-8 1t-10 1l5 5q-5-1-9.5-.5t-6.5-.5zm3-357q4-3 6-3t5.5-.5 5.5 3.5q0 1-4 1-5 0-6.5 3.5t-6.5 3.5q3 0 4-3.5t-4-4.5zm4-66q3 0 4 2t5 2q-4-3-5.5.5t-3.5 3.5v-8zm0 213q2-2 3.5-1t5.5 1q-4 4-.5 4t1.5 5q0 3-3 2.5t-5 1.5q-2-4-2-13zm1-93.5q-1-1.5 1-3.5l1 1q0 1 .5 1.5t.5 1.5v2q0 2-2 2 0-3-1-4.5zm1-195.5q0-3 1-3t1 3h-2zm0 284q2 0 4.5-1.5t2.5 1.5q3 0 4.5 3t-.5 5q-2 0-4-3t-7-3v-2zm0 379q6-3 5.5-9.5t7.5-3.5q0 4-5 4 0 4 3 7t5 7q-1 1-1 3 0 3 5 3 0 3-2.5 6t-4.5 5q-2-2-2-5v-6q-2-2-5.5-4.5t-5.5-6.5zm2-689q5-8 13-16.5t16-15.5q3 10-4 12.5t-7 8.5-7 8.5-11 2.5zm0 519l5-7q3-2 6.5-2h6.5q0 7-6.5 7t-11.5 2zm11-151q2-2 5.5-7.5t10.5-5.5q-4 3-7.5 8t-8.5 5zm8-374q15-15 35-10 4 1 6 4.5t2 5.5q5-2 8.5-6.5T1161 3q0 8-2 10-11 5-15.5 14.5T1129 42q-4-5-.5-7.5t5.5-6.5q-4 0-11.5 2t-10.5 0v5q-2 0-2.5 3t-4.5 1q-3-3-1-6t6-3q-6-4-7-6.5t-1-7.5zm3 0q5-4 9-6.5t9-2.5l1 6q4 0 6.5-3t6.5-3q2 3 3.5 5t1.5 4q-4 9-14 9h-18q-4-2-4.5-4t-.5-5zm0 58q8-8 18-8 0 9 3.5 4.5t7.5-4.5q2 2 5 3t3 5q-4 7-13 8t-17 1q-2-2-4.5-3t-2.5-6zm0 148q5-4 7.5-9t7.5-6l-4 7q-2 5-4 11t-7-3zm5 182q3 0 3.5 3t.5 5q-3 0-3.5-3t-.5-5zm4-324q-2-7 2-7 3 0 7.5.5t-.5 4.5q0 4-3.5 3t-5.5-1zm2-60q0-4 2-4 1-1 2 0 0 3-2 4.5t-2-.5zm0 484q3-5 4-8.5t3-5.5q1 2 4 1t5-1v8q-5 11-16 6zm0 171h4v2h-4v-2zm4-569l3-5q1-3 3-1.5t-2 2.5q0 4-4 4zm0 13q2-2 1.5-2t1.5 0q1 5 5.5 4t8.5 2q4 0 8-3.5l10-8.5q0 2 .5 3t.5 3l-1 6q-10 1-19 .5t-16-4.5zm0-240l4-2q8 3 8 5 0 3-2 1.5t-6-1.5q-1 0-1.5-1.5t-2.5-1.5zm3 601h6q3 0 3 5h-9l1-4zm11-13q2 0 3.5 4t1.5 9q-5 1-5-4.5V467zm3 88q-5-11 2-14 3-3 12-3 3 0 5 2t0 7q-1 1-3.5 4.5t-5.5 3.5q-2-3-1-6t-1-6v12h-8zm8-647q0-7 5-3t6 3v1q-9 0-11-1zm0 594q2-3 6.5-4t7.5-1q-2 4-5.5 6t-8.5 4v-5zm6-469q4 0 5 2 6 3 11.5 3.5t13.5.5l4-6 4-3q7-2 3.5-4t-5.5-4h5q8 6 6 11-2 2-4.5 4t-4.5 2q-6 4-15 3.5t-15-.5q-2-2-5-4.5t-3-4.5zm58-183q4 0 5-1.5t4 1.5q3 2 1 4t-5 1q-1 0-3-1.5t-2-3.5z"/><glyph unicode="?" horiz-adv-x="522" d="M23 535q-7 33 5 60.5t34.5 50 51 40.5 54.5 32q79 6 147.5-7.5T436 657q11-9 15.5-21t6.5-25.5 3-25.5 5-20.5 12.5-12.5 25.5 1q-16-10-25-26.5t-15-36L452 451l-16-36q-13-6-30-11.5t-35.5-13-37.5-18-35-26.5l-25-103q-26 3-37.5 12.5t-16 24T215 313t-3 42q0 28 24 50t55 41.5l61 37.5 42.5 37.5-1 42L324 614l-8-34q3 16-4 29.5T294 632t-24.5 11.5T246 640q-32 6-60.5-7T143 588q26-26 26-53t-26-59q-17 0-35-.5T73 480t-30.5 17T23 535zm145-422q10 26 33 49t49 32 49.5-2 33.5-53q0-23-7.5-35.5t-19.5-21T278 68t-32-15q-6 0-21 2t-29.5 8.5-24 18T168 113z"/><glyph unicode="@" horiz-adv-x="724" d="M2 292l43 53q-7 12-13 14t-12 2q-7 33 9 62.5T68 484l47 64.5 33 72.5q19 23 40.5 30.5t43 6.5 42.5-5 40.5-3.5 37 10.5 30.5 38l25-52 35 35q25-13 54.5-23t58-23.5 53.5-35 41-57.5q15-15 17.5-37.5T669 460t3-40 18-25q-19-32-34-63l-29.5-62-30-63.5L562 138l-17 26q-13-10-24.5-20T497 127t-25.5-7.5T442 128q-11 22-22 27.5t-22.5 2-23-12T350 131t-26.5-6.5T295 138h-70q8 0 14 9.5t12 16.5l-26 25q-26-6-33.5-23.5t-3.5-37 17-37T235 68q26-6 53-14t54.5-12 54.5-1.5T449 59q-6-10-3.5-16.5t9-11 15.5-8 16-6.5q3 16 17 23.5T533.5 52t32.5 7 23 9l50-42q-12 0-27 1.5T589 17V0q-52 2-98-3.5T403-15t-81.5-8.5-78 5T166 11 86 76l-7-8q2 17-5.5 36T56 142l-20 38-13 37 3 34.5L54 283zm121.5 95.5Q123 377 139 371q-12-47-12-92.5t12-98.5h18q-10 29-10.5 61t6 62.5 19 59T200 414q7-8 11-14.5t-2-11.5q0 22 10 43t24.5 40 31 35l29.5 28q21 22 40.5 29t38 4.5 36.5-12l37-20 38.5-20.5 41.5-14q2 17-5 27.5t-19 18-25.5 13.5-24 14-15 18.5T449 621q-19-17-35.5-21.5t-33-2T347 607t-36 14l18-34h-86q-26 0-40.5-18T179 527.5 164 481t-16-33q3-7-4-17.5T130.5 409t-7-21.5zM260 309l44-94q26 0 48 15.5t37 39 22.5 51T416 371q-20 0-25 9.5t-2.5 21.5 9 23 9.5 14q-7 14-18.5 17t-25.5 9q-26-46-51.5-81.5zm210.5-44.5q1.5-14.5 9-26.5t14-19 .5-4q32 13 48 36t24 51.5 12 59 11 59.5h-27l-8 70q-13-23-18.5-52.5l-10-55.5-12.5-42.5-27-13.5v-35q-17-13-15.5-27.5z"/><glyph unicode="A" horiz-adv-x="724" d="M40 22q14 26 29.5 43T118 82q39 64 61.5 141t41 154.5 39.5 151T316 660q19 6 34.5 3.5T378 653t22.5-20l20.5-24q0-26 8-55.5t34-48.5q-19-10-19-20t7.5-20.5l15.5-22 5-24.5q3-26 8-53.5t15-54.5 25.5-50.5T559 219q-10-10-10-23.5t3.5-28.5 8.5-30.5 5-27.5q33-14 60-35.5T679 39q-13-26-31-36.5t-38.5-12-43.5 3T519.5 1 473 2.5 429-12q-13 10-16 22t-2 25 2.5 25-1.5 22q6 7 11.5 8t10 2 9.5 4 11 13q-25 45-64 60t-91 15q-26 7-37-1.5t-17.5-23-14-29.5-26.5-21l105-87q-33-9-67-16.5T174-4 106-.5 40 22zm233 251q23-13 40-12.5t32.5 5.5 31 9 35.5-2q-7 9-6.5 17t2 16 1.5 16.5-7 18.5q-10 26-17 55.5t-15 57-18.5 50.5-26.5 36l25-18q-19-23-30.5-50.5t-16-56-3-55T309 315z"/><glyph unicode="B" horiz-adv-x="638" d="M30.5 45Q27 55 31 64.5t12 20T57 109q17-17 31.5-16t27 11.5 22 26.5 15.5 29q3 58 2 118.5T149 399t-12.5 117.5T119 626q-10 0-22-2t-23.5-2-20.5 4-13 16q-6 30 5 37t29 6 38-2.5 33 11.5h98.5l108-7 106-24.5L551 609q17-39 18.5-72.5t-4-64.5-12.5-60-7-58 12-59.5 44-65.5Q589 51 421 14L50 22Q34 35 30.5 45zM211 234.5q0-27.5 3-55.5t0-53q19-23 41.5-29t45.5-5 47 3.5 47-4.5q52 7 85 44.5T507 238q-9 32-26.5 49T440 311.5t-49.5 8.5-52.5.5-49.5 1T248 332q-23-20-30-45t-7-52.5zm10 242q-1-16.5 7.5-31T266 418q23 3 41.5 0t35-5 33.5-.5 37 14.5q10 16 27.5 27.5t31 24.5 16.5 30.5-16 46.5q-22 22-56.5 36t-71 15-70-13-52.5-46q6-20 3-37.5t-4-34z"/><glyph unicode="C" horiz-adv-x="552" d="M29 177q0 91 3.5 195T56 574q10 32 28.5 52.5t43 34.5 54.5 23.5l63 19.5q19 7 38 3t37.5-12 36.5-17 36.5-13 37.5-.5 38 20.5q-3-32 .5-61.5t8-58.5 8-59 .5-62q-35 0-58.5 19.5t-43 46.5L345 564.5 296 609q-19 28-42 29.5t-44-8-37.5-21T150 601q-29-39-41.5-85t-16-95-.5-98l6-94q13-33 35-57.5t50.5-37.5 62-12 68.5 20q13 29 30.5 57t39.5 49.5 47.5 35T486 297q23-16 26-36.5t-3-43-14.5-46T486 126q-20-29-46-49t-56-33-61.5-20T262 14q-49-10-82.5 8.5T120 70t-47 60-44 47z"/><glyph unicode="D" horiz-adv-x="649" d="M27 634q-3 22 3.5 31t17 12 22 5.5T88 694q39-6 84-5l91.5 2 93-2 88-17 76-43 58.5-81q-6-29 4.5-66.5l21-78 13-81L597 246h-9q22-23 17.5-51T581 140.5t-49.5-49T476 56q-13-22-35-28t-46.5-6-47 .5T312 14L54 22Q41 46 41.5 60t9 23 22 15.5T99 113t22.5 21 9.5 34q-6 61-1 116l9.5 106.5 3 103L122 601zm191-86q8-35 8-75.5t-1.5-83.5-.5-86.5 10.5-82.5 31.5-72.5T330 91v26q10-3 16.5 4l13 14 13 9.5L389 134q39 22 62 59t34 79.5 14 87.5 3 84q-7 30-24.5 59.5t-42 53.5-53.5 39-58.5 16.5-57-13T218 548z"/><glyph unicode="E" horiz-adv-x="681" d="M21 639q4 30 17.5 39.5t33 11T114 691t46 10q63-10 122.5-9.5t119 .5 119-6T643 658l16-71-62-27q24-11 32.5-19t7-15.5-10-15.5-17.5-18-15.5-23-4.5-31q-33 4-49 17t-22.5 31-5.5 38.5l2 40-.5 35L502 622l-32.5 4-63.5-21q-10 22-21.5 21.5t-23-9T339 602t-21 3q0-22-10.5-31.5t-24-12-27-2-19-1 0-8.5 29.5-25h25q-2-13-9-16.5t-16-4-18 .5-15.5-2.5-8-13.5 5.5-32l106-53q-11 15-10 26.5t8 21 16.5 17.5 15 16 3.5 17.5-17 22.5l44 35 61-85h-7q6-20 3-42t-6.5-43.5-3-40.5 13.5-32h-17q-10-16-6.5-29.5t7.5-26 2.5-24.5-20.5-25q-13 9-21.5 25t-16 34-15.5 35-21 28-33 12.5-50-11.5q0-17-8-26.5T242.5 290t-13-20.5T231 239q7-10 18.5-12t22-5 17-10 3.5-28q-9-6-16-1.5t-12.5 9-11 5T240 184q0-6 .5-13.5t3-13.5 8-10.5T267 142h17l-53-17 70-62q16 23 31 22.5t30-9 30-16 32 2.5q36-15 57-12.5t32 16 15.5 34.5 7.5 43 7 42 14.5 32 30.5 12 55-18q-14-14-26-18.5T597 177l46-52q-14-7-26-9t-20-8l53-54q-69-33-143-43.5T358 1 209 9.5 66 20h-9q0 20 9.5 30t24 15.5T121 74t29.5 9 21.5 17 6 33q-3 59 0 120.5t2 121.5-10 116-35 106q-16-4-32 0t-31 11.5-28 16z"/><glyph unicode="F" horiz-adv-x="642" d="M26 30q2 20 10.5 29.5t20 13.5 25 5.5T109 84t26 13.5 21 28.5q-9 38-6.5 81t8.5 87.5 11 88.5 2.5 85-17.5 77-49 64l-79 25 9 43q75-6 149-1t147 8 143.5-1.5T613 652l-7.5-36.5L598 567l-4-52 3-45-78-17q-7 19-7.5 41t-3.5 42.5-13.5 37.5-36.5 27q8-7 7-16t-6.5-19-12.5-20-8.5-18.5 4-14.5 25.5-8q-15-15-19.5-33t-3.5-37 4.5-39 3.5-40-6-39.5-23-36.5l26-42q-6-7-16.5-14.5T410 213t-24.5-.5T363 229q3 16 2.5 35.5t-7 35.5-20 25.5T303 332q-30 13-44 11.5T240.5 332t-3-27 2-35-3.5-34-19-24q-7-33 4.5-53t32.5-33 46-22 46.5-19.5 34-24.5 8.5-38q-49-3-94.5-7t-90-4.5-89 3.5T26 30zm216 518q9-11 10-24.5t0-28-2-27.5 3-23 15-15 35-3l34 43-26 18 61 68q20 0 37.5 2.5T441 548v34q-15-4-33.5-1t-37.5 8-38 9-36 1.5-31-14-23-37.5z"/><glyph unicode="G" horiz-adv-x="678" d="M24 378q9 74 37.5 144.5T129 652q30 26 59.5 36.5t59 12 59-3.5 60-11 61.5-9.5 64 .5l33-85q-12-17-19.5-38.5T498 509t8-44.5 28-37.5q-20-9-40-4t-38 17.5-31.5 30.5-20.5 34q10 22 3 39t-22.5 29-34.5 21l-32 15q-39 11-66.5 5.5t-47-21T171 554t-26.5-50.5L120 450l-27-48q0-33 3.5-72t16-77 37-71.5T216 126l85-35 26 43q7-6 12.5-7t13.5-1q13 10 13 19t-6 17-13.5 13.5T336 184q3-6 7.5-7t10 0 12 2 13.5-2q8 15 3.5 27T368 226.5 345.5 247 326 268.5t-4.5 24.5 21.5 31q23 6 41.5 14.5t36 13.5 34.5 3.5 37-14.5q6 3 8 9.5t2 13.5-1.5 15-1.5 14q5-24 14.5-35t22.5-15.5 27.5-5 29.5-4 29-13 25-30.5q-37 2-56.5-12t-29-37-12.5-53-8-60.5T525.5 69 492 22q-17 13-32 18t-29.5 5-29.5-4-31-11V14q-78-20-151-.5T93 91q-48 65-63 139t-6 148z"/><glyph unicode="H" horiz-adv-x="692" d="M22 634q11 28 26 38.5T81 684t38-3.5 41.5-7.5 43 .5T247 694q20-13 39-22.5t39-29.5q-10-3-21-12.5t-23-18-25.5-13T229 601q7-14-.5-28.5l-16-30-10-31.5 17.5-32-16-35q32-19 66-26.5t67.5-7.5 67.5 5.5 66 11.5q16 19 18 40t-2 42.5-10 42-6 40.5q-10 3-30 6t-38.5 11-29.5 23.5-4 44.5l250 8 41-43q-25-15-49-41t-40.5-57-21.5-64 9-62 9-62-6.5-70-7.5-71.5 5.5-66.5T592 93t77-37q-2-32-13-47T629.5-9.5t-35 .5-40 9T515 7.5 481 4q-10 10-29 8t-37.5-3.5-32 3T369 39q13 26 36.5 36.5l45.5 20 35 26 4 55.5q3 23 1.5 57.5t-13 64-35.5 44-66-1.5q-15-17-34.5-19.5t-39 .5-38 8-31.5 3-19.5-15-1.5-45q-3-33-2-71t12.5-69.5T259 81t66-17q16-19 12.5-28.5T322 20 294.5 7.5 273-12Q247 1 213 .5T146-1 84.5 2.5 41 30q29 19 49 46t33.5 58 22.5 64 15 66q-17 32-20.5 68.5t-2.5 73 1.5 72-9 66-34.5 54T22 634z"/><glyph unicode="I" horiz-adv-x="519" d="M31 14q13 16 27.5 31t33 25.5T133 85t52-3q10 45 13.5 97t3 106.5-5 108.5T185 496q20 10 20 19.5t-7 20-15.5 22T177 582L40 601v59q57 0 116 8t117 8.5T385.5 664 488 609q-2-13-21-16.5t-43.5-3l-49.5 1-39.5-4.5-13.5-19.5 29-44.5q-26 13-37.5 13t-15-8.5-2-22.5 2.5-29-1.5-28.5T281 427q15-6 16.5-14.5t-2.5-17-11-17.5-9.5-16.5 3.5-13 28-7.5q-9-23-10-46t4-45.5 13.5-45T332 160q-26 0-26-26 11-30 32.5-43T384 73t45.5-6.5 32.5-9 6.5-25T436-22H56z"/><glyph unicode="J" horiz-adv-x="596" d="M29 129.5Q24 161 33 194q3 23 15.5 36.5T79 250t39.5 7 44.5-2q19-15 21-34.5t-3.5-39.5-13-38.5-6-32.5 16-22 53.5-6q42 45 54.5 99t12 113-6 121 .5 124q0 7-11.5 14.5T252 568t-36.5 13-35.5 10l-17-25-43 51q16 26 46.5 33.5t66.5 8 74.5.5 70.5 10q52 0 93.5-10.5T559 617q10-7 5.5-14.5t-16-14.5-26-13-24.5-9q-6 9-15 11.5t-19.5 2-21-3T423 574q-20-6-25.5-15.5t-4-20.5 6-22 4.5-21h-7q-14-61-12.5-125l3-127-4-124L351 4q-22-23-47.5-31T250-35t-59 5-64 9Q104-5 83 18T48 69.5t-19 60z"/><glyph unicode="K" horiz-adv-x="758" d="M31 53q13-3 30-2.5t32.5 6 27.5 17 15 30.5l17 482q-16 16-34 20.5t-33.5 7-25.5 8T50 647q15 13 39.5 21t52.5 10.5 57.5.5 54-9 42-19.5T317 620q-48 14-72 0t-34.5-41.5T197 517t-9-60l26-87q19 4 32.5 16t24 28 19 34.5T308 483l9-8 95 111-22.5 12.5-15.5 14-7.5 20.5 1.5 32q46 12 93.5 17t94 1 89-17 78.5-36q-20-17-45-26t-53-13.5-56-7-54-5.5L360 406q13-7 14.5-15t-1.5-17-8-18.5-5-19.5q26-13 45-35.5t35.5-48.5l32.5-53 36-49.5 46-37.5 63-17q23-16 30-31.5t13-27T678.5 19t44.5-2q-45-26-91.5-35t-92-6-89 16.5T368 26q-6 16-1 22.5t14.5 9 21 4T420 69q0 32-13 65.5t-32 66-42 63L291 320q-32-7-49.5-29.5t-24-53-4-66T222 104q7-3 19-9.5L266.5 80l27-17L317 45q-7-21-18.5-34T274-8q-17 9-38.5 9.5t-45-1.5l-47-4-45 2-39 16.5L31 53z"/><glyph unicode="L" horiz-adv-x="716" d="M20 630q49 6 92.5 13.5t87 13 90 8.5 101.5 0q-5-26-15-49t-36-30q-16 13-29.5 14.5T285 598t-24-10.5-25-9.5q4-13 .5-25t-10-23.5-13-21.5-8-19.5 5-17.5 25.5-14q-6-13-14.5-25.5T219 406l17-26-34-26q13-39 18.5-79.5t12.5-76 21-63T297 95q26 3 46 6.5t39 6.5 37.5 5.5L461 119q9 9 13.5 24.5t8.5 33 9.5 34.5 16 28.5 27.5 15 45-4.5q13-13 23-26.5t20.5-25T649 180t36-7q-3-29-8.5-65t-19-67.5-39.5-53T547-34q-68 3-129 8.5L296-14 172.5-4 39 0q-7 22-4.5 32.5t11 14.5 21 4 26 .5T119 55t21 14q10 58 17.5 125.5T166 332t-6.5 137.5T133 595L20 630z"/><glyph unicode="M" horiz-adv-x="761" d="M15 47q2 14 22 23l9-9q39 33 58 72t24.5 82 1.5 90-9 95-8.5 96.5T116 593l-70 45q6 26 17.5 36.5t25.5 12 30-3 32.5-7 32-1T213 690l68-176q-6 8-8 3t-8-11q26-32 34.5-73t15-83.5 19-83.5 45.5-74q-13 18-11.5 30.5t10 23 21 19.5 20.5 19 8.5 21.5T413 332q10 22 22.5 54t23.5 69.5 20 79.5 13 84q15 28 34.5 40t40.5 13.5 43.5-5L655 654l42.5-12.5L736 638q-14-13-24.5-24.5t-22-20.5-25.5-15.5-33-9.5q9-14 7.5-20t-9-12L612 522l-16-24q6-4 10-8.5t7-7.5 7-4 11 2v-26q-7 7-9 11.5t-9-2.5l18-79q-7 0-9 4t-9 4q26-29 22.5-57T622 280.5t-13.5-53T631 175q-17-7-19-16.5t2.5-20T625 117t6-21V79h-9q-10-7-8.5-13t8-12 15-10.5T648 35l45 26q6-10 9-26t.5-30.5-11.5-24-25-6.5q-23 0-53-.5t-59.5 4-54 15T465 26q40 10 56 29.5t22 44.5 7 55.5 11 63.5h18q-20 13-22.5 30.5t2 37.5 12 40.5 7 40.5-13 37.5T517 436l9-78q-6 3-12.5 11t-13 15-13.5 8.5-14-8.5q0-14-2-29.5t11-22.5h35q-31 4-43.5-1T458 315t.5-26 5-31-2.5-31-21-26v-26h-10L413-8q-35-9-55.5-2t-31 25-15 44-7.5 54-7.5 56-15.5 50l-34 156h-26q10 17 13.5 29t3 21-5 15.5T221 454h9q10 10 8.5 14.5t-7 7.5-12 7.5T213 498h-18q-7-26-4-51t7-50 5.5-49.5T195 297h18q-23-17-28.5-43t-1.5-54.5 13.5-56.5L213 96q10-10 24-17.5T262.5 62t16-21.5T273 8q-20-17-38.5-21.5T197-16t-37.5 7.5T122-1 84-3.5 46-26q-3 7-12.5 19t-15 26T15 47zm511 441l18-34v34h-18z"/><glyph unicode="N" horiz-adv-x="714" d="M26.5 36Q26 45 29 54t9 15q16 3 33.5 10t32 17.5 25.5 25 14 33.5q-13 39-14 84.5t2 93 4.5 94.5-5.5 88.5-28 75.5-64 56q-6 29-1.5 34.5t15 4 23.5-2T98 698q23 7 47 4.5t46.5-10.5 43-20 37.5-25l41-52-6-9q19-19 31.5-45.5t24-55.5l24-59 32.5-56-19-16 60-34q-12-14-10.5-30.5T471 268q19 32 24 64.5t3 66.5-6.5 70.5T487 545q0 19-11 29.5t-26 18-31.5 13.5-28 14.5-14.5 23 8 38.5q33-6 78-1t89.5 5.5 81-12T685 620q-26-6-40.5-14.5t-23-20.5-15-28.5L591 518l25-26q-19-2-25.5-9.5t-6.5-18 4.5-22.5 6-23.5-2.5-22-19-16.5q4-4 11-7.5t13.5-8 10-11.5.5-17q-7 0-13 5.5T583 354q-10-7-14.5-15t-5.5-17-.5-18.5.5-19.5l45-9-45-51 62-25q-13 0-28.5-6.5T573 173q19-14 26.5-24.5t6-22-10.5-25L573 69l35-16q-3-10-20-25.5T549 3t-43.5-6T471 26l-29.5 69-25.5 57-29 52-38 54q0 27-11.5 46T314 340t-19 34 2 40q-9 7-17.5 15.5t-17.5 16-19.5 11-23.5.5q15-16 17.5-31t-.5-30-8.5-30-7-30.5T226 305t29-30q-7 10-13.5 8.5t-12.5-8-11-14.5-8-11q3-6 5.5-13.5t6-15 9-13.5 16.5-9q-20-13-24.5-23t-1-18 13-15 18-14 12.5-15.5-2-18.5q16 3 26.5-6T309 66l17.5-28.5L349 17 47 7q-10 4-15 12t-5.5 17z"/><glyph unicode="O" horiz-adv-x="543" d="M19.5 353.5q-.5 48.5 5.5 97T50 545q23 19 46.5 44t48.5 46.5 53 35.5 60 11q26-20 54.5-27l56-13.5L421 624l44-38q0-32 7.5-63l15.5-61.5 12.5-61.5-1.5-64q13-20 16.5-39t2.5-39.5-3-41.5 1-43q-6 3-11 2t-10-4.5-10-8-11-7.5q17-11 21-19t-.5-15-13-14T465 92.5t-11.5-17T456 53q-26-20-58-37t-66.5-26.5-70.5-10T189-8q-32 9-54.5 26.5T95 58.5 64 108l-30 56q-4 45-9 93t-5.5 96.5zm85 12.5q-.5-42 12-85.5t32.5-86 40-75.5q19-15 46-24t53-10 46.5 7 27.5 27q-3 13 3.5 23.5t16 19 19.5 16 14.5 15.5 1 17.5T396 233q6 6 13 15.5t14 9.5v156q-14 16-24.5 41l-22 50-25 45.5L319 578q-42 13-70 1.5t-48.5-35-37-53T128 440q-23-32-23.5-74z"/><glyph unicode="P" horiz-adv-x="621" d="M25 640.5q7 6.5 20.5 8t29 4.5T96 672q23-16 47-14.5t48.5 5.5 48 3.5T286 647q36-3 71.5 1t69.5 4.5 65.5-7T553 612q26-16 33.5-45t7.5-62.5-2-69 5-65.5q-19-26-42.5-44T505 295t-53.5-22-53.5-15q-13 6-33.5 7t-42.5.5-41-1-29 3.5q-3-23-7.5-43t-7-39.5T236 146t7-42q13-3 26-15t26-21 26-9.5T347 78q0-17 13-30.5T382 22t4.5-24T347-26q-42-6-87.5-2.5T171-17 90.5 1 28 17q3 26 18.5 36t36 15 41 11 33.5 25q0 97 1 191.5t8 179.5q3 35-7.5 60t-30 41T83 600.5 28 612q-10 22-3 28.5zM235 483l25-120q33 3 53-4t38-12.5 38-4.5 52 21q26 12 45.5 30.5T515 435t5 48.5-26 51.5q-23 19-44.5 23.5t-43 5.5-45 4-49.5 18q-3-15-12-18.5t-18.5-2-18 4-11.5-.5l-9-86h-8z"/><glyph unicode="Q" horiz-adv-x="645" d="M25 148q3 33 4 74t3.5 82 8 78T59 446l-25 27 51.5 66 56 60 67.5 40.5 86 7.5q36-3 65-18t53.5-34.5T460 553t45-38q3-26 1-54t-1-52.5 7.5-42.5 26.5-25q0-16-7.5-29.5t-12.5-26-2.5-24T539 237l-15.5-35.5-17.5-46-14-49.5-6-44q-13-23-29.5-38t-26-28.5-7-30T452-78q24 4 34.5 14.5t14 23.5 4 27 4 26 14 21T557 46q7-21 22.5-37T608-7l11 7q-16 0-22.5-10.5t-8.5-27-1-37 2.5-41 .5-38-7-28.5l-44 25q-6-23-17-28.5t-24-4.5-27 3.5-27-3.5l-10 33q-16-12-26.5-12t-19.5 5.5-18.5 13.5-22.5 11q4 24-2.5 39.5t-19.5 25T295-60t-33 8.5-29 7T216-34q-6-10-14.5-2.5L183-20 161.5-9 137-26q4 19-9 39.5T97 55 62.5 99 43 148H25zm87 115q-3-13 4-23.5l13.5-20.5 7-20-15.5-23q13-20 22-20t17 7.5l17 15.5 22 5q4-3 8.5-5t8.5-4.5 6.5-6T225 158q0 30 10.5 38.5t27.5 5 39-14 44.5-17.5 43-6 36.5 20q13-6 10-14t-7.5-15.5T424 141t20-9q-4 19-1.5 43t6.5 48.5l8 48 4 43.5h34q-26 9-36 20.5T447 360t1 28 4 30.5-4 31.5-22 31q-13 26-34.5 41T345 544.5t-52 8-50-2.5q-33-23-56.5-57t-39-73-24-80-11.5-77zm87-192l22.5-6.5 25-5.5 23-3.5L286 54q-3 6-3.5 16.5t-3.5 20-9.5 16.5-19.5 7z"/><glyph unicode="R" horiz-adv-x="656" d="M28 1.5Q24 12 31 34l103 59-17 474q-15-13-23-13t-11.5 7-6 17-7 18-13 11-25.5-6q13 42 44 56.5t70.5 15.5 82.5-5.5 79-6.5q51 4 96-3t83.5-26.5 69-52.5 53.5-82q0-38-19.5-72.5t-41-67.5-35-66-1.5-69h-8q-11-24-7-43.5t16-36 29.5-32L577 79l30.5-33.5L625 6q-16-29-33.5-32.5t-36 2.5T518-9t-38 5q-22 22-33.5 56.5t-20 72T408 197t-28.5 58.5-50 30.5-83.5-13q-30-2-40.5-9.5t-9.5-18 8-23.5 11.5-27 1.5-27-23-24l25-36-16-15q19-22 34.5-27.5t29-9T293 44t29-38q-18-4-35.5-15.5t-34-18.5-31-4T194-4l-77-7v-8q0 6-8 6.5t-20-1T64-16t-22.5 3T28 1.5zM203 464q19-14 23-35t-16-34q13-22 26.5-28.5t26.5-5 26.5 7.5 27.5 10.5 28.5 3.5 29.5-14q26 0 37.5 5t15 13 2.5 17.5 1 18 10 15 30 8.5q-4 16-2.5 28.5t3 23.5.5 23-11 28q-23 16-51 24t-56.5 10-56.5 1.5-51-.5q-3-10-16-23.5t-21-26-4.5-23T237 497z"/><glyph unicode="S" horiz-adv-x="601" d="M25 105q1 30 6 61.5t9 63.5-3 61q24-4 35.5-16t17-27.5T97 216t6.5-28.5 14.5-20 32-5.5q10-17 33.5-30.5t49-22 49-9.5 33.5 8l-9-7q22-9 43-3t40 21.5 35 36.5 29 41q32 32 25.5 56.5t-31 43-56.5 32-51 23.5l-34-27q-7 26-20.5 31.5t-29 4l-30-3L203 369v-17q-27 6-51 22.5T107.5 412 71 455.5 46 497q-13 23-10.5 45.5t13 44.5T73 630t24 41q23 22 48.5 29t52.5 8.5 54 2 54 10.5q28-6 41-16.5t22.5-16.5 22.5-4 42 21v-18q29 20 49 8.5t34-36 23-52 16-40.5q-7-10-6.5-21t2-22 1.5-22-7-21l-25 26-15-37-20-24-27.5 40.5-20 33L423 550l-14 34q-23 26-42.5 28t-35.5-1.5-28.5-2T280 636v-17q-20 10-32.5 6T225 613.5t-19.5-13-22.5.5q0 6-3 8t-3 10q-7-17-27-29t-36-24-18-26 27-33l9 9-9-35q33-20 72.5-31.5t81.5-19 85-11.5 82-7q0-17 5.5-23.5T463 381t17 0 15.5-1 9-10-1.5-27l69-52-26-44q29-9 32.5-25t-3.5-32.5-18-29.5-11-16l-25-26q13-8 19-19.5t6-31.5q-4-13-11-16t-15.5-1-16 6-13 4.5-7-4.5 2.5-22q-58-17-110-18t-100 8.5-92.5 28T97 93q0-26-17-37.5T37 49q-13 26-12 56z"/><glyph unicode="T" horiz-adv-x="631" d="M25.5 501q-.5 36 3.5 75.5t7 84.5q67 13 129.5 14t123-1.5 122-3T537 680q19-7 33.5-27.5T604 619q-12-20-15.5-38t15.5-32q-16-9-18-28.5t-.5-44 2-50.5-8.5-49q-16-7-33.5-1.5T514 392t-21 26-1 28q-6 19-2 44.5t5 50-7 43.5-38 25q-39 14-63 0t-36-41.5-14.5-61.5.5-60q13-30 13.5-72.5T348 286t-3.5-88.5T357 121t44-51 91-12q15-21 16-33t-7.5-17.5-23-7.5-30-3T418-7.5 398-19Q376-6 348.5-6t-56-4.5l-57-9h-51L147 2l-17 56 130 50q7 58 8 115.5t0 116-1.5 119T270 584q-23 16-43 19.5t-38.5-.5-37-12.5T114 575q10-10 10.5-17t-4.5-13-14-13-19-16q26-20 31-34t-1-27-16-27-14-33l-26-36q-20 36-27.5 71t-8 71z"/><glyph unicode="U" horiz-adv-x="718" d="M29 598q-3 29 5.5 37.5t23 10L90 649l34 18q26 0 54 .5t55.5-3.5 52.5-15 45-33q-26-13-50-30t-40-39.5-21-52.5 8-69q13-19 9-43.5t-9-50.5-2.5-51 28.5-44q-26-16-28-32.5t6.5-33.5 19.5-35 11-37q19-20 40-27.5t42.5-7 44 7.5T435 88q30 22 43 47.5t16 54-.5 59.5-6.5 63-3 65 11 65l-25 19q28 16 25.5 30.5t-15.5 28L455 546l-2 27q-10-7-23.5-8.5T405 567t-18 13.5-4 25.5l13.5 30.5L417 667q29-7 65-6t73.5-.5 73-10T693 616q-54-20-80.5-52T576 491.5t-9-87.5 3.5-96 1-98.5T554 115q-19-40-43-68.5L462-14q-14 13-28.5 9t-30-13T372-35t-32-5q-32 3-65 15.5T214 8t-49.5 47.5T133 115q-7 61-3.5 121t4 117.5T126 466 89 573q-10-10-18-10t-15 6-13.5 14.5T29 598z"/><glyph unicode="V" horiz-adv-x="658" d="M16 616q3 19 18 31t36 19.5 43.5 11.5l39.5 7q29-20 56-20h49.5l39.5-10 27-49q-42 7-64-11t-29.5-47-2.5-63 18-60q-6-13 3-23t18-18.5 10-17-22-17.5l96-79q-4 42 10 76t30 68 27 72 1 87l-23 7-24.5 12-18 21.5L352 649q10 23 32.5 27t50.5 3 58 1 56 22l86-70q-6-17-20.5-25.5t-32.5-13l-37-9-34-13-23.5-24.5-6.5-44-20-139-26-131.5L393 109 325-6q-41 45-63.5 99T224 204.5t-28 116T162.5 433 108 534t-92 82z"/><glyph unicode="W" horiz-adv-x="741" d="M20 650q7 24 22 35t34.5 12.5 42-5T162 675t39-24.5 29-26.5q2-13-6-24t-19-21.5L183 557l-15.5-23.5.5-27 27-31.5-44-16q16-26 20.5-55t6-59 5.5-59 21-55q15 29 25 69t17 84.5l14 91 17.5 87 26 73L343 686q23 3 32-10t13.5-29.5l8-30L413 606h-17q-10-6-10-11t5-10 12-10.5 10-12.5h35q-10-10-21-22.5t-16-25 0-25 27-22.5q-12 6-19.5-2T405 450q0-13 7-26t17.5-24.5 22.5-21l21-16.5q27 10 35 33.5t10.5 48T524 488t20 23q-13 13-14 29.5t-1.5 33-5 30T499 624q0 10-1 19.5t0 17.5 5 14.5 15 10.5q22 0 50 1.5t56-2 52.5-15T718 633l-18-17 9-10q-23-19-37.5-42.5T647 518t-15.5-40.5T623 450q6-17 1-23.5t-14.5-9-21-4T571 406q6-17 16.5-41t14.5-46.5-3.5-40T562 258l16-18q-26-33-36-72t10-85q-13 0-20.5-2T518 92q6-17 6.5-29T521 39.5 508.5 16 490-12q-39 26-56 59t-23.5 69-8 73-8.5 71-26 63-60 49l-17-18 25-36q-21-7-26-16t-1.5-19 11-21.5 11-21.5-1.5-19.5-27-15.5l26-26q-13 7-22-3.5T271 145t-11-45-10-47-12-37.5T220.5 0 195 18.5 159 83q-13 75-23 147.5t-24 143-35 139T20 650zm421-314q6-9 18-14.5t23-10 8-10.5q3 20-.5 27T479 338.5t-16 7-15 16.5q-13-17-7-26z"/><glyph unicode="X" horiz-adv-x="664" d="M21 624q17 33 49 44.5t71 11.5 80-7.5l77-14.5q3-13-.5-22.5t-9-17-11-12.5-5.5-8q11-2 14.5-11.5t4-22.5l1-26.5L297 514l16.5-14 35.5 3q17 13 18 31.5t-3 40.5l-8.5 45.5L357 667q39 7 80 10.5t79.5 0 71.5-18 56-43.5q-15-18-37-23.5t-45.5-7-45.5-2-38-8.5-23.5-26.5-.5-54.5q-26 0-39.5-7t-19-18.5-7-26T384 414t-10.5-27-24.5-22q30-26 49.5-60t36.5-70.5l35-72L514 98q6 10 19.5 8t28-9.5 27.5-18T608 62l10-50q-33 9-69 4.5T477 7t-69-3-59 25q9 26 19.5 48t16 43.5 4 45T374 218l-51 78q-51-65-65.5-133.5T281 29q-29-19-57-22t-54.5-2.5-52.5-1T66-14Q46-8 38.5 4.5T30 31t2.5 29.5T40 88q30-7 53.5 2.5t42.5 29 34 45 29 52l27.5 50.5 28.5 39q10 25 11.5 54.5t-5.5 56-21.5 47.5-36.5 30q0 19-9 37t-24.5 32.5-36 25.5T91 606q-19-12-37.5-7T21 624z"/><glyph unicode="Y" horiz-adv-x="734" d="M19 604.5Q17 621 30 649q45 0 87 6.5t82.5 7 80-12.5 78.5-52q6 38 23.5 56t42 22.5 54-.5 60-11 59.5-10 53 3l62-60q-9-9-22-19.5t-29-18-34-10-37 4.5q-38-35-70.5-80t-59-92-47.5-92l-37-81q-16-35-14.5-60.5T375 104t32-35 42.5-27l44-23.5L530-6q-42-26-85.5-26t-87 7.5-87 13T185-22v59l34-8q3 19 14.5 23t25.5 5 27 3.5T305 79q24 39 26.5 75.5T323 226t-31.5 69.5-44 69.5L202 436l-35 75q-11 17-28.5 26.5t-37 15.5-38 11T33 578.5t-14 26zM273 535q-7-9 6-32 16-3 22-17t11-28.5 14-25 32-7.5l43 95q-9 6-11.5 20t-5.5 26-12 18-32-3q-3-17-17.5-22.5t-28.5-10-21-13.5z"/><glyph unicode="Z" horiz-adv-x="634" d="M24.5 586.5Q24 605 32 623t32 35l483-34q0-29-15-54.5T497 519l-40-51.5-30-58.5-43 8q2-26-6.5-45.5t-23.5-36-33.5-31T285 274t-30.5-35.5T237 193q-13-13-28.5-25L177 144l-31.5-25.5L117 88q5-20 21.5-33.5T168 29q36 10 63.5 15t53 5.5 53-2.5T400 37q13 4 33 9t40.5 11 38 14T539 90t9 25.5-18 33.5q13-6 23 4.5t2 30.5v26q4-6 10-9t12-4.5 10.5-4 4.5-8.5l-18-26q23-13 28-23.5t0-20T587 96t-17-19-6-21.5T583 29q-7-3-14.5-3h-15l-14-2.5L530 12V-6l-353-8v8q-8 5-23 4t-31-3-31.5-2.5-26 4.5-14 18.5T56 55q-3 12 7 24t23.5 24 25.5 25.5 12 29.5q39 42 66 77.5t49.5 71.5l46 75 55.5 87 43 60q-32 33-64.5 41t-64 5.5-62-8.5-59.5-3q3-20 2.5-45.5t-7-48-20-38T73 417l-42 8q13 21 13.5 42T41 508.5t-10 40-6.5 38z"/><glyph unicode="_" horiz-adv-x="833" d="M30-183q-5 36 5.5 55t30 27 45.5 9 53 1 53 3.5T262-71q36-7 84-8t99 1 100.5 4.5T634-71l8 25q29-9 47.5-24l35-29 34.5-24 47-10h9q-6-6-23-18.5T753.5-177 707-199.5t-47-9.5q-71 6-150.5 6h-161L186-200 30-183z"/><glyph unicode="a" horiz-adv-x="540" d="M15.5 147.5q4.5 38.5 29 73T111 278q36 10 69.5 10.5t65 2 60.5 11 55 38.5q-12 42-36.5 63.5T270 432t-62.5 4-61.5-10q-16-20-18-41.5t-4.5-41.5-13-37.5T67 278q-24 28-34.5 64t9.5 75q28 37 67.5 57t81.5 24.5 83.5-5.5 74.5-33 53.5-57.5T423 323q4-26 2.5-56.5l-3-61V146L434 93.5l31.5-41L526 29l8-26q-23-16-45.5-20t-45 0-45 14T353 20Q324 7 291-3t-67-14-67.5 0T94 3Q49 32 30 70.5t-14.5 77zm44.5 1q2-11.5 9.5-23L84 103l10.5-21-.5-18q16 3 31 7t29.5 5 29.5-3.5T216 55q22 0 47.5 9T310 89t33.5 38.5T353 176q-11 35-28 48t-39 12.5-47-9.5l-51.5-18.5L135 193l-50 1q-18-11-22.5-22.5t-2.5-23z"/><glyph unicode="b" horiz-adv-x="562" d="M17 641q16 16 45 25t60 5.5 57-20.5 35-53q-16-12-19.5-26.5t-2.5-29 2.5-29T190 486q29 10 58 11t58-2 58-8.5 58-8.5q39-20 60-45.5t31.5-56 14-66T534 236q10-49-2-84.5T496.5 88 443 36t-55-50q-32-13-64.5-4t-64 21.5-62.5 21-59-4.5q-20 78-27 171.5t1 190.5q13 47 10.5 97T120 582q-10 13-27.5 16.5l-34 7-29 10L17 641zm173-397q9-29 19.5-58t27-53 40-40.5T335 73q35 19 57 43.5t33 55.5 13.5 68.5-.5 82.5q-13 10-22 23.5t-19.5 27T372 399t-37 18q-32-16-58.5-33t-46-37-30-45-10.5-58z"/><glyph unicode="c" horiz-adv-x="467" d="M19.5 239.5Q17 279 20 319t16.5 75T82 453q24 28 56.5 44t68 20.5T278 515t67.5-24 55.5-44.5 35-64.5q3-19 0-39t-13-36.5-26.5-27T358 269q-30 2-43.5 18.5T296 326t-7.5 45.5T278 413t-27 25.5-58-3.5q-29-17-53-44t-39.5-61-19-73 9.5-81q26-46 63.5-68T237 73q26 0 50 13t45 33 38.5 44 30.5 47q26-6 33-24.5t5.5-40.5-7-42.5T427 73q-20-23-45-42T328 0t-61-16.5-64 2.5q-42 3-67 23T93 56.5 59.5 114 22 167q0 33-2.5 72.5z"/><glyph unicode="d" horiz-adv-x="512" d="M20 304.5Q25 353 44 396t58 73q3 16 15.5 15t25-4 22-1 6.5 24q13-6 37-14t50.5-12 52-1 41.5 18q-6 20-11.5 40.5T335 582q-9 11-25 13.5t-34 2.5-34.5-.5-27 4.5-12 17.5T215 658l162-8q19-22 20-48.5t-3-54.5-5.5-54.5T403 444q-13-53-8.5-110.5T412 210q-15-11-18.5-19.5T393 174t9.5-15.5T414 143t6-17-8-20l113-77q-26-33-51-39.5t-50.5 0-50.5 20T322 31t-52.5 4T215 3q-26 0-53 9t-50.5 24.5T69 72t-29 43q-12 42-18.5 91.5t-1.5 98zM76 228q10-26 21.5-52.5T126 127t40-36.5T222 73q16 3 26.5 14.5t19 25T283 139t17 19l9-17q13 23 16 43t3 38.5V259l7 38q6 42-15.5 72T266 413.5t-67 12-54-25.5q-26-13-36.5-33.5T94 323t-6-48-12-47z"/><glyph unicode="e" horiz-adv-x="537" d="M26 250.5Q16 322 42 400q39 46 81 73t99 47q55 10 96.5-8.5t74-49T450 397t48-57q15-34 11.5-53.5T490 258t-40.5-10.5-50.5-1l-50 1-39-3.5q-26-3-54 2.5t-56.5 8.5-57.5-1-58-26q6-33 24-54t42-36 50.5-28T250 81q16 16 33.5 15t32.5-2.5 25 4 10 34.5q23-6 34.5 4.5t22 23.5 26 21 47.5-5L437 37q-12 0-28.5-2t-34-7.5T340 12t-30-26q-30 3-63 11.5t-65 23T120.5 56 68 106q-32 73-42 144.5zm75 98.5q30-10 65-11t72 .5l75 3 74-1.5q0 29-17 51.5t-41.5 37-51.5 21-47 3.5q-87-13-129-104z"/><glyph unicode="f" horiz-adv-x="535" d="M20 12l26 69q9-3 18.5-8.5T84 64t19.5-2T122 73q30 29 36.5 65t2.5 77-12 85.5-8 89.5q-8 11-22.5 16T89 413.5 59 419t-24.5 9.5-12.5 20 6 37.5l18 15 25 2q7-9 19-10t26 4.5 27.5 16T166 537q6 20 16 41.5t25 39 34.5 29T287 658q58 13 108.5-.5T485 625q4-20 12-38t13.5-35.5 5.5-36-13-37.5q-10-20-23-22t-26.5 2.5-27.5 12-27 7.5q-13 13-14 24.5t3 22 10.5 20.5 8 19-5 17.5T374 598l-96-25q3-10 6-26.5t8.5-34 16-34T338 453q-13-14-24.5-17t-22.5-3h-22.5l-24.5-7q-10-48-15-86t-5-73.5 5-73.5 15-87q19-12 44.5-16.5t48-11 38-20.5T390 12Q348-1 302-7.5T208.5-14 113-7.5 20 12z"/><glyph unicode="g" horiz-adv-x="575" d="M16 137q0 14 3 28 28 28 41 65t20 76l13.5 76.5 22.5 68 46.5 50L247 522q30-26 66-29t72 3.5 68 16 55 9.5q10-29 24-49t20.5-37 0-35.5T516 356l-68 9q-10-29-15.5-58T417 252.5t-28.5-46T334 174q-26 6-53-6t-34-39q16-3 40-5.5t47-1.5 40.5 6.5T395 147q0-20 4.5-26.5t12-6T429 119t19.5 6 19-2 16.5-19q29-23 44.5-45.5t21-47 3-53T544-106q-35-37-74-54.5T390.5-182t-82.5 3-82.5 18-79 24T73-115q-20 13-35.5 38.5T18-22t6.5 56T65 78q-17 3-27.5 12t-16 21-5.5 26zm49 18l16-26q19-6 42.5-6.5T170 126t43.5 11.5T247 155q-15-4-31 .5T184 167l-32 14.5-31 8.5-29-6-27-29zM81-10q0-36 18.5-56T143-97.5t51.5-18T238-132h43q23 19 50 23t55 5.5 54.5 8.5T490-61q9 30 3 49.5t-21 32-37.5 19T388 50l-47.5 8L300 68q-18-13-39-16t-43-2-44 2.5-40.5-3-32.5-18T81-10zm65.5 379.5q-4.5-26.5 3-54.5t27.5-51 53-30q26 0 46 7.5t35.5 20 27 28T360 322q0 19-5 39.5T340.5 399 316 428.5 281 444q-7-7-23-8.5l-33.5-3-33.5-6-23-17.5q-17-13-21.5-39.5z"/><glyph unicode="h" horiz-adv-x="629" d="M25 3q-4 22 6 38.5t26 31 33.5 28 28.5 29 10.5 35T110 210l15 112.5 5 119.5-24 111-73 88q2 2 17.5 9t36 12.5 43 7 39-5.5 23-26.5T188 582q-9-10-7.5-24t9-29.5 17-31T223 469q19 16 43 24.5t49 12 50 2 47-4.5q30-9 50-30t32-47 17-53.5 5-49.5q-9-17-9-41.5t3-51l6-52.5v-46q0-19 10.5-29.5t25-17 29-11.5T604 61.5t8-21T594 3Q526-6 460.5-7.5t-131 1T197-.5 59 3H25zm172 286q0-19 17-45h-9l9-138q3-16 21-19t36.5-6.5 31-13T308 29q23 19 46 42t39 49 22.5 55-3.5 61h9l-9 146q3 16-3 21.5t-16 7-19.5 3.5-12.5 12q-15-18-36.5-30.5t-44-24-42-23-30.5-26-11-33.5z"/><glyph unicode="i" horiz-adv-x="476" d="M26.5 24q-.5 11 4 21.5t13.5 20T63 81q32-26 64.5-16.5T191 106q14 78 13.5 150.5T184 400L37 426q-10 29-4 40t20 15 31 6.5 30 15.5q11-9 27-9.5t33.5 1.5l35.5 4 32.5-2 24.5-16 13-37q-4-48-3-91.5t6-86 12.5-85.5T313 90q13-13 36.5-15t46-5 39-14.5T451 12Q399 5 348.5-3T247-15t-103-1T37 3Q27 13 26.5 24zM160 606q-1 16 15 35 10 3 28.5 8t36.5 4 30.5-11 9.5-36q3-9 0-19.5T270 566t-16-18-19-11q-17 7-34 17t-28.5 23-12.5 29z"/><glyph unicode="j" horiz-adv-x="405" d="M16-27.5Q12 0 28 29q9 16 23 25t28.5 12.5 28.5 2 24-4.5q10-9 12.5-22t1.5-28-4-30.5-3-29 5.5-23.5T165-83q16-3 33.5 1T231-68t25.5 24T270-14q-6 58-1 117.5l10 117 3.5 112L262 435q-26 3-43 1.5t-31.5-2.5-31 2-42.5 17q4 42 28.5 56t57.5 13 68.5-11l60.5-17 26-104q-10-15-11.5-28t-1.5-25-1.5-24.5T329 287q20-35 23.5-86T351 93 336.5-23.5 321-134q-45-33-100-41t-107 6l-41 41.5L35.5-80 16-27.5zM217 632q6 13 16 33t23 33.5 29.5 15T321 693q20-13 26.5-26t7-26.5-1-28T355 582q-19-6-45.5-10t-49-.5-36 17.5-7.5 43z"/><glyph unicode="k" horiz-adv-x="612" d="M14 34q47 7 68.5 28.5t27 52.5.5 68.5L100 260l-5.5 76.5L109 404q3 36-.5 72.5T96 547t-23 63.5T40 663q23 3 45.5 2.5T125 657t25-25 2-46q3-36-.5-66t-6.5-59-3-59 10-66q29-10 52-2.5t42.5 24 36 37T315 431q-19 10-19.5 22t8.5 23.5 23 20.5 24 12q21-17 44-20t46.5 0 46.5 7 43.5 1 38.5-17.5 31-48.5q-112 0-187.5-38T298 283q23-16 36.5-35t23-38l19-38 25.5-35 8 9q10-23 34.5-37.5l52-30 52-35.5L583-9q-32 0-69.5-1t-74.5.5T367.5-2 306 17q-3 9 2 17.5T321.5 50l17 14L351 77q3 26-10 45t-32 37l-37 36.5-25 44.5-9-8q-3-9-2.5-7.5t.5 7-2.5 11.5-12.5 6q-6-6-23-14.5T166.5 214 145 185.5t7-39.5q-3-23 2-35.5T169 88t22-20 22-26l8 9q10 10 18.5 5.5t13.5-16 4-25.5-10-24Q211 4 174 3.5t-69.5-1-56.5 4T14 34z"/><glyph unicode="l" horiz-adv-x="535" d="M22 17q2 21 16.5 30T73 59t42 3 38.5 4.5 24 16-.5 37.5l25 17q-6 36-5.5 78t3 85.5 4 87-4 84T179 548t-45 64q-14-10-27-10.5t-26 4T55.5 619L30 637q7 10 20.5 15.5T81 661t35 5.5 33 5.5q17-10 32-8t29 3.5 27-3 26-27.5q3-58 0-128.5t-3.5-146 4.5-151T288 68q33 0 65 .5t61-2.5 54.5-12.5T513 25q-6-19-24.5-29t-44-13-55-2-59 2.5-56 2T229-18l-45 6.5L131-4 75 5 22 17z"/><glyph unicode="m" horiz-adv-x="701" d="M17 28q4 10 14.5 15.5t23 10T73 68l18 397q9 17 20 21.5t24 3 27-7 28.5-7 29 3T247 500q32-24 65-27t65.5 3 64.5 15 62.5 9.5 59-14T618 431l26-87-52 17q0-15-2-30.5t.5-28 12-20T635 275q-13 0-24.5-2T592 283q8-19 8-40.5t-2.5-43T592 158t0-36.5T606.5 93 644 77q9-6 19-18t15-25 1.5-25T660-9l-206-9Q437-5 412.5-5.5t-52-4-55-4T255-1q-29 0-58-3.5t-58-6T81-12 23-1q-10 19-6 29zm136 49q19-10 39-11.5t37-1.5 29-1.5T273 51q22 39 25 83t-1.5 88.5-11 87T282 388q-23 9-29.5 2t-8-18-4.5-21-19-7l-27 17-16-25q15-17 16.5-33.5t-3-32.5-12.5-32-12.5-31-1-30.5T186 146l-33 8q0-13 5.5-20.5t12-13.5 13.5-13.5T194 86zm211 72.5q1-24.5 21-46.5l17 104 8-9q16-17 19.5-31.5t.5-29-10-29.5-10-31q13-10 26-9.5t24.5 4.5 21 9 15.5 5q-9 25-7.5 51.5t7 52.5 12 52 9 51-3.5 49-25 46q-20-20-36.5-26.5T410 361q-3-19 4-35.5t12.5-33 4-33T410 224q-19 0-26 4t-7 10.5 4.5 14.5 8 16.5 4 16.5-8.5 14h-9q6-26 1-51.5l-9.5-50-3.5-49zM618 240l26-33 8 33h-34z"/><glyph unicode="n" horiz-adv-x="615" d="M10 34q16 19 37 33.5t40.5 30T121 132t17 48q-17 29-19.5 70.5t-2.5 86-3 87.5-19 76q30-22 70.5-24t83.5 2.5 85 9.5 77-3 59-36 31-88q7-39 7-81.5t5.5-83.5 23.5-78.5T596 51q-7-26-22-38T538.5-3 493-4.5 442.5 1 392 4.5 345-1q-13 28-8 45.5t19 29T388.5 94t32.5 20.5 19 28.5-8 45q-3 30-2 64.5t-1.5 68.5-13 65-35.5 54q-33 6-63-2t-57-25-49-40-38-45q6-26 4.5-55t-3.5-57.5-2-56 9.5-51T213 68t64-26h16q4-17-6.5-26T256 3.5 210 0t-53.5.5-53-1.5T61-9Q41-3 31.5 9T10 34z"/><glyph unicode="o" horiz-adv-x="525" d="M26 170q1 28 2.5 57.5t2 57.5-2.5 51q3 39 25.5 66t54 45.5T176 478l69 22q29 6 58-3.5t56-27 52.5-40L460 388q7-36 18-65t19-57.5 9.5-59T496 137q-17-23-34-48.5t-36.5-48-42.5-39T331-18q-42-7-88-4.5t-88.5 18-76.5 46T28 120q-3 22-2 50zm82 70q-3-35 5.5-59t25.5-42.5 40-35L228 68q13-3 34-2.5t44.5 8 46 22.5 37.5 41q26 46 26 99.5T390 336q-15-3-24.5 7t-19 23.5-23 25.5-36.5 12q-13-9-37-9t-47.5-2.5T163 379t-13-43l-26 8q0-26-8-52t-8-52z"/><glyph unicode="p" horiz-adv-x="568" d="M-11-156.5q-1 8.5 4 12t14.5 4T26-138t17 7.5T53-112q12 0 24 2t19-11q12 68 21 134.5T128 148t-5.5 138T96 431q-7-16-15-18t-16.5 3-18 13T27 440q10 9 14.5 17t9 14.5T63 483t24 8q13-6 29.5-9t32.5-7 29.5-11.5T198 440q30 19 63.5 31.5t66.5 15 64-6.5 57-31q36-20 54-45.5t25.5-54.5 7.5-61v-64q-10-39-23.5-77t-34-70-49-57T362-18q-19-20-42-20.5T273.5-30 228-7l-38 24q3-20 .5-39.5t-2-38 7.5-36 29-33.5q16-7 32-2.5t29.5 7 24.5-4 18-35.5q-33-22-72.5-31t-82-9.5-87 6.5T1-183q-11 18-12 26.5zm204 407q-2-26.5.5-53.5t11.5-54 29-49q19-13 37-23t37-14 39 0 43 20q35 10 47 37.5t13 62.5-4.5 71-5.5 62q-6 19-21.5 43.5t-35 40.5-40.5 18-40-24q-9 3-25.5-3t-33-18-29.5-29.5-17-37.5q-3-23-5-49.5z"/><glyph unicode="q" horiz-adv-x="569" d="M29.5 194q-4.5 52 7 105T74 401q39 30 87.5 45t99 16.5T358 453t83-34q0-79-5-149t-9-136-4.5-130.5T432-130q9-7 13.5-17.5T455-167t13-14.5 25-2.5l17 18q4-7 10-12.5t10.5-11 7-12.5-1.5-17q-33-19-69.5-20.5T394-236t-69 10.5-60-.5q-11 22-10 31.5t8 12.5 18.5 3 23 3.5T325-162t11 32l34-18q6 16 7 36.5t.5 40.5l-1 38.5L379 0q-33-16-69.5-31.5t-72.5-21-69 5.5-58 47Q74 43 54 92.5T29.5 194zm74.5.5q-1-30.5 13-63.5l41.5-42L203 51.5l47.5-20L301 43v45q28 4 41 15.5t16.5 28.5.5 38l-6.5 43.5-5 46L353 305q-16 20-38 35.5T269 363t-47.5 4.5T178 349q-20-20-37-44t-26.5-52-10.5-58.5z"/><glyph unicode="r" horiz-adv-x="610" d="M30.5 37q4.5 11 15 20.5t23 17.5T87 86q16-13 23-9.5T122.5 88t14 14.5 28.5.5q13 39 17 78t3 77.5-4.5 77T174 412q-9 9-21.5 10.5t-26 0T99 419t-25.5 0T54 429t-10 28q0 28 13.5 44.5t35 23 48 4.5 52.5-10.5 48-22.5 35-31q78 58 146 54t139-62q13-17 14.5-33.5t0-34.5-2.5-37.5 6-41.5l-39-7.5-37-3-33.5 8.5-28.5 28-35 68q-46-6-85-36t-53-76q3-20 0-46t-4-55 5-58.5T295 77q13 0 33.5-1t40.5-5.5T404.5 55 423 25q-9-23-27.5-27.5T356-6t-42.5 1T276-18Q250-8 220-7.5t-61.5.5-63 3.5T36 17q-10 9-5.5 20z"/><glyph unicode="s" horiz-adv-x="502" d="M11 137h18l8 70q21 6 37-1.5t29-22.5 24-33 24-32.5T180 95t37-1q23-10 41-8t34.5 8.5T326 109t39 11q-4 10 0 18t11.5 14.5 16 11.5 14.5 8q-12 29-32 43.5T331.5 237 283 247.5 236 258q-16-10-35.5-5.5t-39.5 14l-41 20L80 300q-26 20-31.5 44t-.5 49 15.5 50T80 491q28 21 56 29.5t56 9.5 57-3.5l60-9 64-6 70 4.5q3-29 7-58.5t6.5-58 2-54T452 300q-7 8-23 18t-30 10q25-17 44-46t28-64 7-72-19-69q-16-13-33-19.5t-32-13T366.5 28 348-1q-39 7-80.5 18t-82 19-78.5 9.5T37 34Q24 45 23 55t3.5 19.5 10.5 18 7.5 16.5-5 15T11 137zm120 224q20-3 53-12.5t66.5-16.5 63-8.5T355 336q6 24 2.5 38.5t-14 23-25 13.5-29 9.5-27 11T243 449q-16-3-35.5-9T171 424t-28.5-25.5T131 361z"/><glyph unicode="t" horiz-adv-x="503" d="M11 509q38-15 60.5-8.5t35.5 25 20 44.5 15.5 51 21 44.5T200 689l12-60.5 18-57.5 33-42 57-13q26 14 55.5 10.5T424 491q0-10-5.5-18t-14-15l-17-13.5L373 431q-11 13-29 17t-39 2.5-42.5-7T224 431q0-39-7-79t-11-79 0-75.5 27-69.5q16-13 32.5-16.5t32-1 29.5 10 27 16.5q20 19 26.5 40.5t13.5 41 19.5 35T458 275q13-29 16-50t2.5-40.5T474 144t2-50q-16-16-42.5-35.5t-57-34.5T313 1t-61-2q-26 13-51 31t-43.5 40.5-28.5 50-6 59.5q-5 22-3 48.5t5.5 54 5 54.5-3.5 49.5-20 39T62 449q-13-7-25-9t-18-9z"/><glyph unicode="u" horiz-adv-x="599" d="M23 418v25q13 0 27.5 4t29.5 7.5 31 5.5 32-1q28-38 35.5-76t6.5-75-4.5-73 1.5-71 24.5-68.5T272 30q3 6 7.5 9.5t8 6.5 4.5 7-3 10l-9 8q13-6 22.5 4.5T322 99t22.5 22.5T376 125v43q6-4 11-3t10 4 10 7.5 12 7.5q-15 8-17.5 20.5t.5 26.5 8.5 28 5.5 25.5-8 19-32 9.5l43 18-120 87q13 32 35.5 41t49 6.5 54-11T488 443q6-51 8.5-101.5t3.5-100 1.5-98T505 46l52-34h26q13-26 6-35t-22.5-11.5T533-38t-28-11q-15-9-26-4.5T458-39t-20 22-22 20-28 7.5T351-5q-27-13-50.5-22t-46-10.5T209-32 160-5q-33 30-43.5 67T105 139t2 80.5-1 77-22 68T23 418z"/><glyph unicode="v" horiz-adv-x="610" d="M19 418v50l72 17 86 10.5 78-16 47-61.5q-12 0-20.5-7T266 394t-12.5-20.5T242 356q7-8 11-22l8-28.5 9-27.5 13.5-19.5 21-4.5 32.5 17q17 19 17 44.5t-6 52.5l-12 52.5-1 44 26.5 27.5 71.5 3q16-10 38.5-8.5t45 1.5 42-8 29.5-37q-50-17-78.5-47.5t-45.5-69-26-83.5-19.5-91.5-26.5-91T346-23q-26-13-44-11.5T271.5-22 251 7t-14.5 38l-13 39-14.5 32q-15 23-24 54t-16.5 64-16.5 64.5-25 57.5-42 42.5T19 418z"/><glyph unicode="w" horiz-adv-x="648" d="M23 408l9 60q11 7 21 3.5T72 461t16.5-15 13.5-10 10.5 4.5T119 468q20-13 44.5-11t50.5 2q-13-19-22.5-44T178 363.5t-2-53 12-48.5l26-26q24 6 36.5 32t20 58l14.5 63.5 19 50.5 33 18.5 58-32.5q19-23 20-50.5t0-55 5-52.5 35-41v-51q22 2 32.5 11.5t14 23 2.5 30-2.5 33T500 305t7 26q2 13-1 31.5l-6 37.5-2.5 36.5L507 466l29 16 57-5q0-14 10.5-22t22.5-21q0-15-8-36.5T599 353t-22.5-44.5T559 271q6-27 3-50.5T551.5 173l-16-50.5L524 63q7-12 2-23.5t-14-23l-18.5-23L481-31q-19-7-30-.5T433-14t-13.5 24T403 30q10 36 5.5 61.5t-15.5 47-25.5 42T343 227h-26q-11-19-18-45l-14-53.5L270.5 75 251 30 222 .5 179-5q-26 51-36 105.5L123 208 96.5 312 41 408H23z"/><glyph unicode="x" horiz-adv-x="599" d="M20 450q0 17 11 22t26 5 29.5-2 20.5 1v28q26-14 49.5-11l45 6 43.5-.5 45-30.5-43-52q13 2 21-4t14.5-15.5 11-18.5 10-11.5 13 3.5 18.5 28q-4 7-8.5 17.5t-7 21.5-1.5 21.5 7 17.5q29 24 59 26t61-4l64-12 69 1q6-26-6.5-38.5t-35-18.5-49-10.5-48.5-14-33.5-29.5-2.5-57q-13 10-23 4.5T362.5 305t-12-28.5L343 251q16-17 29.5-37l26.5-39 27-34.5 31-22.5q3-3-.5-6t-6.5-6.5-3-6.5 10-6q6-15 14.5-19t17-3.5 16.5 3 14.5 1.5 10.5-8.5 4-26.5q-19-16-41.5-22T445 11.5t-51 2-51 2.5q5 14-2.5 20T325 50q7 0 19.5 6t22 15T379 90.5 369 110q-15-2-23 3.5T333.5 128t-7 19.5-6 18.5-10.5 10.5-20-4.5q-13-3-31.5-19T229 117.5 219.5 79 247 50q6-13-1.5-22.5T225 12t-27.5-8T177 5L28 16q43 9 71 35.5t51 61 45 71.5 52 67q-8 51-42.5 92T125 416q-20-7-33-2.5T68.5 426L47 442l-27 8z"/><glyph unicode="y" horiz-adv-x="612" d="M14.5-129.5Q12-112 19-92l50 61q28 2 41-9t18.5-27.5 6.5-35 6.5-30.5 18-14.5T200-135l-26 35q33 9 43.5 30t10 47-6 53-5.5 50q-25 49-42 94t-35.5 86.5T95 339t-67 69q0 19 10 27.5T61.5 449l28 10 23.5 18q26-7 51.5-8.5t48-5.5 41.5-13.5 32-31.5q22 29 55.5 43t72 17 77.5-3 72-16q0-12 7-24.5t12-24.5 2.5-23-21.5-21q-23 13-40.5 6T491 349.5t-26-34-25-27.5q-26-59-48-117L347.5 54.5 300-62.5 244-179q-33-39-80.5-45.5T69-204q-12 6-24 17t-20 25.5-10.5 32zM216 356q0-26 2-54t16-48q10-3 20-11.5t20.5-15.5 21.5-8.5 23 8.5q3 23 14.5 52t15 56-8.5 47-54 26q0-16-8.5-27t-20-18-23-8.5T216 356z"/><glyph unicode="z" d="M28 360.5q-2 25.5 1 47t14.5 39T81 477h328q26 0 38.5-11.5T463 438t-1-33.5-10-29.5q-36-39-75-77l-76-76.5-69.5-79.5L176 56q19-17 39.5-23t45-7.5T315 24t69-4l16 36q0-8 4.5-14.5T409 30h34q0 12-1 30t-1 37.5 2.5 38T452 168q20-16 26.5-36.5t5.5-43-6.5-46.5T469-5q-51-4-108-10t-113.5-7T137-14.5 38 20l69 96-8 9q32 22 66 50.5t64 62 52.5 70T314 383q-23 0-44.5 1.5T226 386t-45-2-49-9q-9-17-16.5-36t-18-31.5-26-15.5T30 306q0 29-2 54.5z"/><glyph/><glyph unicode="" horiz-adv-x="467" d="M31.5 327.5Q29 362 42 398t49 75q17 32 44 51t57 31.5 60 23.5 53.5 28 36 44 8.5 72q19 2 27.5-1.5t10.5-11 .5-18T386 671t2-22 14-20q-24-28-23-53.5t12.5-49 28-46 23.5-45-2.5-45T393 344q-10 3-18 10.5T358.5 371L342 389l-18 16q2-22-5.5-47.5t-18-51.5l-20-51-11-46.5 8-38L315 145q15 0 28 9.5t24.5 22.5l21.5 25 19.5 17 18-1 17.5-29q-9-41-30-61.5T366.5 97 312 81.5t-51-16-37-31T212-27q-13-7-18-21t-11-27.5-16.5-23T133-105q20 42 21 81t-9.5 75.5-28.5 71L80 191l-32 68-16.5 68.5zm90.5-26q3-19.5 12-35.5t21-28.5 23-22.5q13 16 16.5 36l7 40 10.5 38.5 27 31.5-20 26q-3 7 0 9.5t8 4 10.5 4 7.5 9.5q0 6 2.5 15t2.5 17-4 14-17 6q-26 4-39.5-.5t-20-14.5-8.5-24-4.5-29-9-29-21.5-25q-7-23-4-42.5z"/><glyph unicode="" horiz-adv-x="578" d="M-.5 131Q-1 155 7 176t23.5 38T68 241q16-7 31-3t28 8 24.5 3 20.5-17q20 13 21.5 33t-3.5 42.5L179.5 353l.5 42q-11 15-22.5 19t-24.5 2.5-26.5-5.5-27-4.5-27 6T26 439v27q16 3 39.5 0t44.5-2.5 34.5 9.5 10.5 35q-10 23-4 46.5t17 46 23.5 43T207 680q32 26 76 34.5t88.5 1T455 686t61-57q-19-19-19.5-41t0-43-5-40-34.5-32q-26 14-45.5 8.5T378 456q7 6 5.5 15.5t-5.5 21-7 24 0 25.5q6 13 18.5 20l24 13.5 18 15.5.5 28q-17-15-34.5-11t-36 16-38 26.5T285 671q6-19 2-30t-13.5-18-22.5-11.5-25-11.5-20-18-8-30q13-4 17.5-14t3.5-22.5-5-24-7-18.5l145-17q-3-29-17-37t-32.5-7-37.5 4.5-32-2.5q6-20 5-40.5l-2-41.5 3-42 20-40-26-18 63.5-61.5L352 129q14-14 32.5-23t37.5-3l18 52q13-13 20.5-14.5t13 3.5 9 13.5 9 15.5 13 10 20.5-3q-3-19-8.5-39.5t-15-37.5T477 73.5 440 58q-23 10-47.5 14T344 81.5 296 99t-46 38L147 51q-20 3-35.5 7t-31 9l-32 10L10 85Q0 107-.5 131zM103 180l26-35-8 35h-18z"/><glyph unicode="" horiz-adv-x="581" d="M28 298.5Q29 314 41 331q22 6 49 15.5t55.5 14.5 57.5 1.5 56-22.5q16 16 30.5 19.5T319 363t31.5 1 36.5 11q29-3 51-12.5t41.5-21.5 38.5-26.5 41-27.5q-21-41-55-60t-74.5-24-86-.5T253 214t-86 12-74 1q-20 7-35 18t-23 24.5-7 29z"/><glyph horiz-adv-x="471"/><glyph horiz-adv-x="942"/><glyph horiz-adv-x="471"/><glyph horiz-adv-x="942"/><glyph horiz-adv-x="314"/><glyph horiz-adv-x="235"/><glyph horiz-adv-x="157"/><glyph horiz-adv-x="157"/><glyph horiz-adv-x="117"/><glyph horiz-adv-x="188"/><glyph horiz-adv-x="52"/><glyph unicode="" horiz-adv-x="581" d="M28 298.5Q29 314 41 331q22 6 49 15.5t55.5 14.5 57.5 1.5 56-22.5q16 16 30.5 19.5T319 363t31.5 1 36.5 11q29-3 51-12.5t41.5-21.5 38.5-26.5 41-27.5q-21-41-55-60t-74.5-24-86-.5T253 214t-86 12-74 1q-20 7-35 18t-23 24.5-7 29z"/><glyph unicode="" horiz-adv-x="581" d="M28 298.5Q29 314 41 331q22 6 49 15.5t55.5 14.5 57.5 1.5 56-22.5q16 16 30.5 19.5T319 363t31.5 1 36.5 11q29-3 51-12.5t41.5-21.5 38.5-26.5 41-27.5q-21-41-55-60t-74.5-24-86-.5T253 214t-86 12-74 1q-20 7-35 18t-23 24.5-7 29z"/><glyph unicode="" horiz-adv-x="581" d="M28 298.5Q29 314 41 331q22 6 49 15.5t55.5 14.5 57.5 1.5 56-22.5q16 16 30.5 19.5T319 363t31.5 1 36.5 11q29-3 51-12.5t41.5-21.5 38.5-26.5 41-27.5q-21-41-55-60t-74.5-24-86-.5T253 214t-86 12-74 1q-20 7-35 18t-23 24.5-7 29z"/><glyph unicode="" d="M28 200v175h450V200H28z"/><glyph unicode="" horiz-adv-x="1000" d="M28 200v175h950V200H28z"/><glyph unicode="" horiz-adv-x="273" d="M31 616q-7 31 0 63 17 39 49 50t65 3 60-32 33-56q-20-15-29-42.5t-14.5-59T185 480t-13-54-25.5-33.5-46.5.5q-18 40-30 83.5T58 567q-20 18-27 49z"/><glyph unicode="" horiz-adv-x="260" d="M31 616q-7 31 0 63 17 39 49 50t65 3 60-32 33-56q-20-15-29-42.5t-14.5-59T185 480t-13-54-25.5-33.5-46.5.5q-18 40-30 83.5T58 567q-20 18-27 49z"/><glyph unicode="" horiz-adv-x="487" d="M17 498q0 26 17 55t63 62q23-13 40.5-24t30.5-24 21-30.5 12-43.5l-43-16 26-60q-26 0-38-15.5T129.5 365t-4.5-42-3-32.5-12-8.5-30 31q6 22-3 44t-22.5 44.5T29 448t-12 50zm241.5 43.5q-2.5 28.5 14.5 52t67 38.5q19-23 41-38t39.5-31.5 27-38T451 468q-13-17-19.5-40T420 381.5L410 336l-14-38.5-24.5-24.5-41.5-4q11 35 2 71t-24.5 71.5l-31 68.5-18 61.5z"/><glyph unicode="" horiz-adv-x="466" d="M21 460q14 14 17.5 39.5T49 548t25 36.5 60 3.5q22-4 29.5-16t9-27.5T175 513t10-28q-18-26-25-52t-9.5-51.5l-5-51.5-11.5-52q-23 16-34 40t-20 49.5-21.5 50T21 460zm254.5 56.5q-2.5 25.5 5 50T314 615q20-7 36.5-8.5t30.5-5 27-11.5 26-28l-67-284q-10-7-14.5-2t-9 14-10.5 18.5-19 12.5q9 22 5 45.5T306.5 415 288 465.5t-12.5 51z"/><glyph unicode="" horiz-adv-x="894" d="M623.5 126q9.5 17 29 31t42 26 34.5 26q27 3 51-4t42.5-22 31-35.5T869 105q0-33-23.5-61.5T790 2q-26-14-50.5-11.5T693 5.5t-39 34T628 86q-14 23-4.5 40zm-298 0q9.5 17 29 31t42 26 34.5 26q27 3 51-4t42.5-22 31-35.5T571 105q0-33-23.5-61.5T492 2q-26-14-50.5-11.5T395 5.5t-39 34T330 86q-14 23-4.5 40zm-298 0q9.5 17 29 31t42 26 34.5 26q27 3 51-4t42.5-22 31-35.5T273 105q0-33-23.5-61.5T194 2q-26-14-50.5-11.5T97 5.5t-39 34T32 86q-14 23-4.5 40z"/><glyph horiz-adv-x="188"/><glyph horiz-adv-x="235"/><glyph unicode="" horiz-adv-x="1392" d="M646 47q2 14 22 23l9-9q39 33 58 72t24.5 82 1.5 90-9 95-8.5 96.5T747 593l-70 45q6 26 17.5 36.5t25.5 12 30-3 32.5-7 32-1T844 690l68-176q-6 8-8 3t-8-11q26-32 34.5-73t15-83.5 19-83.5 45.5-74q-13 18-11.5 30.5t10 23 21 19.5 20.5 19 8.5 21.5T1044 332q10 22 22.5 54t23.5 69.5 20 79.5 13 84q15 28 34.5 40t40.5 13.5 43.5-5L1286 654l42.5-12.5 38.5-3.5q-14-13-24.5-24.5t-22-20.5-25.5-15.5-33-9.5q9-14 7.5-20t-9-12l-17.5-14-16-24q6-4 10-8.5t7-7.5 7-4 11 2v-26q-7 7-9 11.5t-9-2.5l18-79q-7 0-9 4t-9 4q26-29 22.5-57t-13.5-54.5-13.5-53T1262 175q-17-7-19-16.5t2.5-20T1256 117t6-21V79h-9q-10-7-8.5-13t8-12 15-10.5T1279 35l45 26q6-10 9-26t.5-30.5-11.5-24-25-6.5q-23 0-53-.5t-59.5 4-54 15T1096 26q40 10 56 29.5t22 44.5 7 55.5 11 63.5h18q-20 13-22.5 30.5t2 37.5 12 40.5 7 40.5-13 37.5T1148 436l9-78q-6 3-12.5 11t-13 15-13.5 8.5-14-8.5q0-14-2-29.5t11-22.5h35q-31 4-43.5-1t-15.5-16 .5-26 5-31-2.5-31-21-26v-26h-10L1044-8q-35-9-55.5-2t-31 25-15 44-7.5 54-7.5 56-15.5 50l-34 156h-26q10 17 13.5 29t3 21-5 15.5T852 454h9q10 10 8.5 14.5t-7 7.5-12 7.5T844 498h-18q-7-26-4-51t7-50 5.5-49.5T826 297h18q-23-17-28.5-43t-1.5-54.5 13.5-56.5L844 96q10-10 24-17.5T893.5 62t16-21.5T904 8q-20-17-38.5-21.5T828-16t-37.5 7.5T753-1t-38-2.5T677-26q-3 7-12.5 19t-15 26-3.5 28zm511 441l18-34v34h-18zM25.5 501q-.5 36 3.5 75.5t7 84.5q67 13 129.5 14t123-1.5 122-3T537 680q19-7 33.5-27.5T604 619q-12-20-15.5-38t15.5-32q-16-9-18-28.5t-.5-44 2-50.5-8.5-49q-16-7-33.5-1.5T514 392t-21 26-1 28q-6 19-2 44.5t5 50-7 43.5-38 25q-39 14-63 0t-36-41.5-14.5-61.5.5-60q13-30 13.5-72.5T348 286t-3.5-88.5T357 121t44-51 91-12q15-21 16-33t-7.5-17.5-23-7.5-30-3T418-7.5 398-19Q376-6 348.5-6t-56-4.5l-57-9h-51L147 2l-17 56 130 50q7 58 8 115.5t0 116-1.5 119T270 584q-23 16-43 19.5t-38.5-.5-37-12.5T114 575q10-10 10.5-17t-4.5-13-14-13-19-16q26-20 31-34t-1-27-16-27-14-33l-26-36q-20 36-27.5 71t-8 71z"/><glyph unicode="" horiz-adv-x="505" d="M0 505h505V0H0v505z"/><glyph unicode="" horiz-adv-x="1011" d="M561.5 24q-.5 11 4 21.5t13.5 20T598 81q32-26 64.5-16.5T726 106q14 78 13.5 150.5T719 400l-147 26q-10 29-4 40t20 15 31 6.5 30 15.5q11-9 27-9.5t33.5 1.5l35.5 4 32.5-2 24.5-16 13-37q-4-48-3-91.5t6-86 12.5-85.5T848 90q13-13 36.5-15t46-5 39-14.5T986 12Q934 5 883.5-3T782-15t-103-1T572 3q-10 10-10.5 21zM695 606q-1 16 15 35 10 3 28.5 8t36.5 4 30.5-11 9.5-36q3-9 0-19.5T805 566t-16-18-19-11q-17 7-34 17t-28.5 23-12.5 29zM20 12l26 69q9-3 18.5-8.5T84 64t19.5-2T122 73q30 29 36.5 65t2.5 77-12 85.5-8 89.5q-8 11-22.5 16T89 413.5 59 419t-24.5 9.5-12.5 20 6 37.5l18 15 25 2q7-9 19-10t26 4.5 27.5 16T166 537q6 20 16 41.5t25 39 34.5 29T287 658q58 13 108.5-.5T485 625q4-20 12-38t13.5-35.5 5.5-36-13-37.5q-10-20-23-22t-26.5 2.5-27.5 12-27 7.5q-13 13-14 24.5t3 22 10.5 20.5 8 19-5 17.5T374 598l-96-25q3-10 6-26.5t8.5-34 16-34T338 453q-13-14-24.5-17t-22.5-3h-22.5l-24.5-7q-10-48-15-86t-5-73.5 5-73.5 15-87q19-12 44.5-16.5t48-11 38-20.5T390 12Q348-1 302-7.5T208.5-14 113-7.5 20 12z"/><glyph unicode="" horiz-adv-x="1070" d="M557 17q2 21 16.5 30T608 59t42 3 38.5 4.5 24 16-.5 37.5l25 17q-6 36-5.5 78t3 85.5 4 87-4 84T714 548t-45 64q-14-10-27-10.5t-26 4-25.5 13.5L565 637q7 10 20.5 15.5T616 661t35 5.5 33 5.5q17-10 32-8t29 3.5 27-3 26-27.5q3-58 0-128.5t-3.5-146 4.5-151T823 68q33 0 65 .5t61-2.5 54.5-12.5T1048 25q-6-19-24.5-29t-44-13-55-2-59 2.5-56 2T764-18l-45 6.5L666-4l-56 9-53 12zM20 12l26 69q9-3 18.5-8.5T84 64t19.5-2T122 73q30 29 36.5 65t2.5 77-12 85.5-8 89.5q-8 11-22.5 16T89 413.5 59 419t-24.5 9.5-12.5 20 6 37.5l18 15 25 2q7-9 19-10t26 4.5 27.5 16T166 537q6 20 16 41.5t25 39 34.5 29T287 658q58 13 108.5-.5T485 625q4-20 12-38t13.5-35.5 5.5-36-13-37.5q-10-20-23-22t-26.5 2.5-27.5 12-27 7.5q-13 13-14 24.5t3 22 10.5 20.5 8 19-5 17.5T374 598l-96-25q3-10 6-26.5t8.5-34 16-34T338 453q-13-14-24.5-17t-22.5-3h-22.5l-24.5-7q-10-48-15-86t-5-73.5 5-73.5 15-87q19-12 44.5-16.5t48-11 38-20.5T390 12Q348-1 302-7.5T208.5-14 113-7.5 20 12z"/><glyph unicode="" horiz-adv-x="1546" d="M1096.5 24q-.5 11 4 21.5t13.5 20 19 15.5q32-26 64.5-16.5T1261 106q14 78 13.5 150.5T1254 400l-147 26q-10 29-4 40t20 15 31 6.5 30 15.5q11-9 27-9.5t33.5 1.5l35.5 4 32.5-2 24.5-16 13-37q-4-48-3-91.5t6-86 12.5-85.5 17.5-91q13-13 36.5-15t46-5 39-14.5T1521 12q-52-7-102.5-15T1317-15t-103-1-107 19q-10 10-10.5 21zM1230 606q-1 16 15 35 10 3 28.5 8t36.5 4 30.5-11 9.5-36q3-9 0-19.5t-10-20.5-16-18-19-11q-17 7-34 17t-28.5 23-12.5 29zM555 12l26 69q9-3 18.5-8.5T619 64t19.5-2T657 73q30 29 36.5 65t2.5 77-12 85.5-8 89.5q-8 11-22.5 16t-29.5 7.5-30 5.5-24.5 9.5-12.5 20 6 37.5l18 15 25 2q7-9 19-10t26 4.5 27.5 16T701 537q6 20 16 41.5t25 39 34.5 29T822 658q58 13 108.5-.5T1020 625q4-20 12-38t13.5-35.5 5.5-36-13-37.5q-10-20-23-22t-26.5 2.5-27.5 12-27 7.5q-13 13-14 24.5t3 22 10.5 20.5 8 19-5 17.5T909 598l-96-25q3-10 6-26.5t8.5-34 16-34T873 453q-13-14-24.5-17t-22.5-3h-22.5l-24.5-7q-10-48-15-86t-5-73.5 5-73.5 15-87q19-12 44.5-16.5t48-11 38-20.5T925 12Q883-1 837-7.5T743.5-14 648-7.5 555 12zM20 12l26 69q9-3 18.5-8.5T84 64t19.5-2T122 73q30 29 36.5 65t2.5 77-12 85.5-8 89.5q-8 11-22.5 16T89 413.5 59 419t-24.5 9.5-12.5 20 6 37.5l18 15 25 2q7-9 19-10t26 4.5 27.5 16T166 537q6 20 16 41.5t25 39 34.5 29T287 658q58 13 108.5-.5T485 625q4-20 12-38t13.5-35.5 5.5-36-13-37.5q-10-20-23-22t-26.5 2.5-27.5 12-27 7.5q-13 13-14 24.5t3 22 10.5 20.5 8 19-5 17.5T374 598l-96-25q3-10 6-26.5t8.5-34 16-34T338 453q-13-14-24.5-17t-22.5-3h-22.5l-24.5-7q-10-48-15-86t-5-73.5 5-73.5 15-87q19-12 44.5-16.5t48-11 38-20.5T390 12Q348-1 302-7.5T208.5-14 113-7.5 20 12z"/><glyph unicode="" horiz-adv-x="1605" d="M1092 17q2 21 16.5 30t34.5 12 42 3 38.5 4.5 24 16-.5 37.5l25 17q-6 36-5.5 78t3 85.5 4 87-4 84T1249 548t-45 64q-14-10-27-10.5t-26 4-25.5 13.5l-25.5 18q7 10 20.5 15.5t30.5 8.5 35 5.5 33 5.5q17-10 32-8t29 3.5 27-3 26-27.5q3-58 0-128.5t-3.5-146 4.5-151T1358 68q33 0 65 .5t61-2.5 54.5-12.5T1583 25q-6-19-24.5-29t-44-13-55-2-59 2.5-56 2T1299-18l-45 6.5-53 7.5-56 9-53 12zm-537-5l26 69q9-3 18.5-8.5T619 64t19.5-2T657 73q30 29 36.5 65t2.5 77-12 85.5-8 89.5q-8 11-22.5 16t-29.5 7.5-30 5.5-24.5 9.5-12.5 20 6 37.5l18 15 25 2q7-9 19-10t26 4.5 27.5 16T701 537q6 20 16 41.5t25 39 34.5 29T822 658q58 13 108.5-.5T1020 625q4-20 12-38t13.5-35.5 5.5-36-13-37.5q-10-20-23-22t-26.5 2.5-27.5 12-27 7.5q-13 13-14 24.5t3 22 10.5 20.5 8 19-5 17.5T909 598l-96-25q3-10 6-26.5t8.5-34 16-34T873 453q-13-14-24.5-17t-22.5-3h-22.5l-24.5-7q-10-48-15-86t-5-73.5 5-73.5 15-87q19-12 44.5-16.5t48-11 38-20.5T925 12Q883-1 837-7.5T743.5-14 648-7.5 555 12zM20 12l26 69q9-3 18.5-8.5T84 64t19.5-2T122 73q30 29 36.5 65t2.5 77-12 85.5-8 89.5q-8 11-22.5 16T89 413.5 59 419t-24.5 9.5-12.5 20 6 37.5l18 15 25 2q7-9 19-10t26 4.5 27.5 16T166 537q6 20 16 41.5t25 39 34.5 29T287 658q58 13 108.5-.5T485 625q4-20 12-38t13.5-35.5 5.5-36-13-37.5q-10-20-23-22t-26.5 2.5-27.5 12-27 7.5q-13 13-14 24.5t3 22 10.5 20.5 8 19-5 17.5T374 598l-96-25q3-10 6-26.5t8.5-34 16-34T338 453q-13-14-24.5-17t-22.5-3h-22.5l-24.5-7q-10-48-15-86t-5-73.5 5-73.5 15-87q19-12 44.5-16.5t48-11 38-20.5T390 12Q348-1 302-7.5T208.5-14 113-7.5 20 12z"/></font>
</defs>
</svg>
