<?xml version="1.0" encoding="utf-8"?>
<!-- Generator: Adobe Illustrator 16.0.0, SVG Export Plug-In . SVG Version: 6.00 Build 0)  -->
<!DOCTYPE svg PUBLIC "-//W3C//DTD SVG 1.1//EN" "http://www.w3.org/Graphics/SVG/1.1/DTD/svg11.dtd">
<svg version="1.1" id="Layer_1" xmlns="http://www.w3.org/2000/svg" xmlns:xlink="http://www.w3.org/1999/xlink" x="0px" y="0px"
	 width="161.25px" height="195.875px" viewBox="0 0 161.25 195.875" enable-background="new 0 0 161.25 195.875"
	 xml:space="preserve">
<path fill-rule="evenodd" clip-rule="evenodd" fill="#302A22" d="M151.718,168.796c-2.782-1.335-3.064-4.878-2.893-5.563
	c0.171-0.571,8.33,2.525,8.427-1.455c0.098-3.98-7.84-0.895-7.986-2.407c-0.285-0.856-0.293-19.005,0.506-20.375
	c0.799-1.371,3.655-0.514,4.397-2.513c-0.057-0.514-0.742-1.199-2.798-1.884c-2.398-0.343-15.931-0.4-18.272-1.428
	c-2.341-1.028-5.253-1.542-5.71-2.855c-0.457-1.313,0.686-2.912,1.142-4.682c0.286-2.969,0.343-2.456,0.229-6.395
	c-0.343-3.711-0.971-18.9-2.912-21.298s0.171-1.371-7.366-6.453c-7.537-5.081-14.332-8.051-28.55-21.869
	C75.712,55.801,68.86,44.095,67.718,38.271c-1.142-5.824,1.713-17.187,1.37-19.185c-0.342-1.999-9.707-18.386-11.591-18.443
	C55.613,0.585,43.565,3.84,41.68,5.267c-1.884,1.427-19.757,22.211-20.842,24.21C19.753,31.476,9.19,60.312,8.276,62.424
	c-0.914,2.113-6.966,27.865-7.195,30.32c-0.228,2.455-0.856,21.526,0.857,24.153c1.713,2.626,11.706,8.166,13.818,7.366
	c4.282-3.026,13.19-12.333,19.357-16.216c0-0.171,1.941-0.742,2.912-0.857c7.48-1.712,29.121-8.051,37.629-10.449
	c9.193-0.571,15.703,0.457,23.925,1.37c8.108,1.085,20.042,4.226,20.442,4.854c0.914,1.885,0.628,4.396,0.286,3.939
	c-3.141-4.168-4.911-0.057-5.025,3.997c-4.339,0-10.278,1.771-10.049,7.766c0.228,5.996,4.911,6.338,10.221,6.566
	c5.311,0.229,8.851-2.74,9.365-1.998c0,2.341-0.388,4.669-0.649,6.751c-39.298-2.102-47.033,3.299-47.228,4.981
	c-1.224-0.333-4.228,1.002-3.783,2.782c-15.133,0.445-21.698,4.562-20.697,5.119c1.892,1.001,4.229,1.112,4.562,1.335
	c0.556,2.226,1.558,29.6,0.779,30.156c-4.229,2.336-13.464,4.785-11.016,6.343c5.897,2.67,69.323,15.356,72.995,14.577
	c5.118-1.558,40.828-21.867,40.717-23.424C160.054,168.851,155.835,168.573,151.718,168.796z M117.7,120.318
	c-1.144,0.679-5.077,1.072-6.399,1.108c-1.323,0.035-2.396-0.608-2.717-2.503c-0.322-1.895,2.074-3.468,2.574-3.897
	s3.539-0.787,4.361,0.036s2.539,3.897,2.717,4.326S118.844,119.639,117.7,120.318z"/>
</svg>
