<svg enable-background="new 0 0 161.25 195.875" height="195.875" viewBox="0 0 161.25 195.875" width="161.25" xmlns="http://www.w3.org/2000/svg"><path clip-rule="evenodd" d="m151.718 168.796c-2.782-1.335-3.064-4.878-2.893-5.563.171-.571 8.33 2.525 8.427-1.455.098-3.98-7.84-.895-7.986-2.407-.285-.856-.293-19.005.506-20.375.799-1.371 3.655-.514 4.397-2.513-.057-.514-.742-1.199-2.798-1.884-2.398-.343-15.931-.4-18.272-1.428s-5.253-1.542-5.71-2.855.686-2.912 1.142-4.682c.286-2.969.343-2.456.229-6.395-.343-3.711-.971-18.9-2.912-21.298s.171-1.371-7.366-6.453c-7.537-5.081-14.332-8.051-28.55-21.869-14.22-13.818-21.072-25.524-22.214-31.348s1.713-17.187 1.37-19.185c-.342-1.999-9.707-18.386-11.591-18.443-1.884-.058-13.932 3.197-15.817 4.624-1.884 1.427-19.757 22.211-20.842 24.21s-11.648 30.835-12.562 32.947c-.914 2.113-6.966 27.865-7.195 30.32-.228 2.455-.856 21.526.857 24.153 1.713 2.626 11.706 8.166 13.818 7.366 4.282-3.026 13.19-12.333 19.357-16.216 0-.171 1.941-.742 2.912-.857 7.48-1.712 29.121-8.051 37.629-10.449 9.193-.571 15.703.457 23.925 1.37 8.108 1.085 20.042 4.226 20.442 4.854.914 1.885.628 4.396.286 3.939-3.141-4.168-4.911-.057-5.025 3.997-4.339 0-10.278 1.771-10.049 7.766.228 5.996 4.911 6.338 10.221 6.566 5.311.229 8.851-2.74 9.365-1.998 0 2.341-.388 4.669-.649 6.751-39.298-2.102-47.033 3.299-47.228 4.981-1.224-.333-4.228 1.002-3.783 2.782-15.133.445-21.698 4.562-20.697 5.119 1.892 1.001 4.229 1.112 4.562 1.335.556 2.226 1.558 29.6.779 30.156-4.229 2.336-13.464 4.785-11.016 6.343 5.897 2.67 69.323 15.356 72.995 14.577 5.118-1.558 40.828-21.867 40.717-23.424-.445-3.004-4.664-3.282-8.781-3.059zm-34.018-48.478c-1.144.679-5.077 1.072-6.399 1.108-1.323.035-2.396-.608-2.717-2.503-.322-1.895 2.074-3.468 2.574-3.897s3.539-.787 4.361.036 2.539 3.897 2.717 4.326.608.251-.536.93z" fill="#302a22" fill-rule="evenodd"/></svg>