<svg enable-background="new 0 0 960 960" height="960" viewBox="0 0 960 960" width="960" xmlns="http://www.w3.org/2000/svg" xmlns:xlink="http://www.w3.org/1999/xlink"><radialGradient id="a" cx="480.0005" cy="480.0005" gradientUnits="userSpaceOnUse" r="478.6878"><stop offset="0" stop-color="#fff"/><stop offset="1" stop-color="#fdfdfd" stop-opacity="0"/></radialGradient><path d="m480 0v480l-99.797-469.511zm-282.137 91.672 282.137 388.328-195.233-438.502zm-133.555 148.328 415.692 240-356.71-321.183zm-61.679 189.827 477.371 50.173-456.508-148.328zm20.863 198.502 456.508-148.329-477.371 50.174zm99.798 172.855 356.71-321.184-415.692 240zm161.477 117.319 195.233-438.503-282.138 388.328zm195.234 41.498-.001-480.001-99.799 469.512zm195.233-41.498-195.234-438.503 99.796 469.513zm161.476-117.319-356.71-321.184 282.136 388.331zm99.798-172.855-456.508-148.329 415.692 240.004zm20.863-198.502-477.371 50.173 477.372 50.178zm-61.679-189.826-415.692 239.999 456.51-148.325zm-133.554-148.328-282.138 388.327 356.713-321.181zm-182.339-81.183-99.799 469.51 195.237-438.501z" fill="url(#a)"/></svg>