<?xml version="1.0" encoding="utf-8"?>
<!-- Generator: Adobe Illustrator 16.0.0, SVG Export Plug-In . SVG Version: 6.00 Build 0)  -->
<!DOCTYPE svg PUBLIC "-//W3C//DTD SVG 1.1//EN" "http://www.w3.org/Graphics/SVG/1.1/DTD/svg11.dtd">
<svg version="1.1" id="Layer_1" xmlns="http://www.w3.org/2000/svg" xmlns:xlink="http://www.w3.org/1999/xlink" x="0px" y="0px"
	 width="960px" height="960px" viewBox="0 0 960 960" enable-background="new 0 0 960 960" xml:space="preserve">
<radialGradient id="SVGID_1_" cx="480.0005" cy="480.0005" r="478.6878" gradientUnits="userSpaceOnUse">
	<stop  offset="0" style="stop-color:#FFFFFF"/>
	<stop  offset="1" style="stop-color:#FDFDFD;stop-opacity:0"/>
</radialGradient>
<path fill="url(#SVGID_1_)" d="M480,0v480L380.203,10.489L480,0z M197.863,91.672L480,480L284.767,41.498L197.863,91.672z
	 M64.308,240L480,480L123.29,158.817L64.308,240z M2.629,429.827L480,480L23.492,331.672L2.629,429.827z M23.492,628.329L480,480
	L2.629,530.174L23.492,628.329z M123.29,801.184L480,480L64.308,720L123.29,801.184z M284.767,918.503L480,480L197.862,868.328
	L284.767,918.503z M480.001,960.001L480,480l-99.799,469.512L480.001,960.001z M675.234,918.503L480,480l99.796,469.513
	L675.234,918.503z M836.71,801.184L480,480l282.136,388.331L836.71,801.184z M936.508,628.329L480,480l415.692,240.004
	L936.508,628.329z M957.371,429.827L480,480l477.372,50.178L957.371,429.827z M895.692,240.001L480,480l456.51-148.325
	L895.692,240.001z M762.138,91.673L480,480l356.713-321.181L762.138,91.673z M579.799,10.49L480,480L675.237,41.499L579.799,10.49z"
	/>
</svg>
